SplineFontDB: 3.2
FontName: SchoonSquare-Regular
FullName: SchoonSquare
FamilyName: SchoonSquare
Weight: Regular
Copyright: SchoonOntwerp
FontLog: "FONTLOG for the Schoon SchoonSquare fonts+AAoACgAA-This file provides detailed information on the SchoonSquare Font Software. This information should be distributed along with the SchoonSquare fonts and any derivative works.+AAoACgAA-Basic Font Information+AAoACgAA-SchoonSquare is a Unicode typeface family that supports all languages that use the Latin script and its variants, and could be expanded to support other scripts.+AAoACgAA-ChangeLog+AAoACgAA-SchoonSquare 1.2+AAoACgAA-Initial release+AAoA-Wider m&w. Various small fixes+AAoA-Changed capital height+AAoACgAA-License+AAoACgAA-SIL Open Font License v1.1+AAoACgAA-Acknowledgements+AAoACgAA-N: Michiel van Kleef"
Version: 001.200
ItalicAngle: 0
UnderlinePosition: -153
UnderlineWidth: 51
Ascent: 768
Descent: 256
InvalidEm: 0
sfntRevision: 0x00010000
LayerCount: 2
Layer: 0 1 "Back" 1
Layer: 1 1 "Fore" 0
XUID: [1021 703 -335025502 1161]
StyleMap: 0x0040
FSType: 0
OS2Version: 1
OS2_WeightWidthSlopeOnly: 0
OS2_UseTypoMetrics: 0
CreationTime: 1280473793
ModificationTime: 1576162103
PfmFamily: 33
TTFWeight: 400
TTFWidth: 5
LineGap: 92
VLineGap: 0
Panose: 2 0 6 3 0 0 0 0 0 0
OS2TypoAscent: 768
OS2TypoAOffset: 0
OS2TypoDescent: -256
OS2TypoDOffset: 0
OS2TypoLinegap: 92
OS2WinAscent: 682
OS2WinAOffset: 0
OS2WinDescent: 192
OS2WinDOffset: 0
HheadAscent: 682
HheadAOffset: 0
HheadDescent: -192
HheadDOffset: 0
OS2SubXSize: 665
OS2SubYSize: 716
OS2SubXOff: 0
OS2SubYOff: 143
OS2SupXSize: 665
OS2SupYSize: 716
OS2SupXOff: 0
OS2SupYOff: 491
OS2StrikeYSize: 51
OS2StrikeYPos: 265
OS2Vendor: '2ttf'
OS2CodePages: 00000093.00000000
OS2UnicodeRanges: 80000027.0001006b.00000020.00000000
MarkAttachClasses: 1
DEI: 91125
ShortTable: cvt  2
  34
  648
EndShort
ShortTable: maxp 16
  1
  0
  350
  64
  10
  0
  0
  2
  0
  1
  1
  0
  64
  46
  0
  0
EndShort
LangName: 1033 "" "" "" "SchoonSquare"

StartChar: .notdef
Encoding: 65536 -1 0
Width: 374
Flags: W
HStem: 0 34<68 272> 648 34<68 272>
VStem: 34 34<34 648> 272 34<34 648>
LayerCount: 2
Fore
SplineSet
34 0 m 1,0,-1
 34 682 l 1,1,-1
 306 682 l 1,2,-1
 306 0 l 1,3,-1
 34 0 l 1,0,-1
68 34 m 1,4,-1
 272 34 l 1,5,-1
 272 648 l 1,6,-1
 68 648 l 1,7,-1
 68 34 l 1,4,-1
EndSplineSet
Validated: 1
EndChar

StartChar: exclam
Encoding: 33 33 4
Width: 128
Flags: W
HStem: 0 64<0 64> 428 20G<0 64>
VStem: 0 64<0 64 128 448>
LayerCount: 2
Fore
SplineSet
0 0 m 1,0,-1
 0 64 l 1,1,-1
 64 64 l 1,2,-1
 64 0 l 1,3,-1
 0 0 l 1,0,-1
0 128 m 1,4,-1
 0 448 l 1,5,-1
 64 448 l 1,6,-1
 64 128 l 1,7,-1
 0 128 l 1,4,-1
EndSplineSet
Validated: 1
EndChar

StartChar: quotedbl
Encoding: 34 34 5
Width: 256
Flags: W
HStem: 256 192<0 64 128 192>
VStem: 0 64<256 448> 128 64<256 448>
LayerCount: 2
Fore
SplineSet
128 256 m 1,0,-1
 128 448 l 1,1,-1
 192 448 l 1,2,-1
 192 256 l 1,3,-1
 128 256 l 1,0,-1
0 256 m 1,4,-1
 0 448 l 1,5,-1
 64 448 l 1,6,-1
 64 256 l 1,7,-1
 0 256 l 1,4,-1
EndSplineSet
Validated: 1
EndChar

StartChar: numbersign
Encoding: 35 35 6
Width: 384
Flags: W
HStem: 0 21G<64 128 192 256> 64 64<0 64 128 192 256 320> 320 64<0 64 128 192 256 320> 428 20G<64 128 192 256>
VStem: 64 64<0 64 128 320 384 448> 192 64<0 64 128 320 384 448>
LayerCount: 2
Fore
SplineSet
192 0 m 1,0,-1
 192 64 l 1,1,-1
 128 64 l 1,2,-1
 128 0 l 1,3,-1
 64 0 l 1,4,-1
 64 64 l 1,5,-1
 0 64 l 1,6,-1
 0 128 l 1,7,-1
 64 128 l 1,8,-1
 64 320 l 1,9,-1
 0 320 l 1,10,-1
 0 384 l 1,11,-1
 64 384 l 1,12,-1
 64 448 l 1,13,-1
 128 448 l 1,14,-1
 128 384 l 1,15,-1
 192 384 l 1,16,-1
 192 448 l 1,17,-1
 256 448 l 1,18,-1
 256 384 l 1,19,-1
 320 384 l 1,20,-1
 320 320 l 1,21,-1
 256 320 l 1,22,-1
 256 128 l 1,23,-1
 320 128 l 1,24,-1
 320 64 l 1,25,-1
 256 64 l 1,26,-1
 256 0 l 1,27,-1
 192 0 l 1,0,-1
192 128 m 1,28,-1
 192 320 l 1,29,-1
 128 320 l 1,30,-1
 128 128 l 1,31,-1
 192 128 l 1,28,-1
EndSplineSet
Validated: 1
EndChar

StartChar: dollar
Encoding: 36 36 7
Width: 384
Flags: W
HStem: 128 64<0 64 256 320> 256 64<0 128 192 320> 384 64<0 64 256 320>
VStem: 0 64<128 192 384 448> 128 64<128 256 320 448> 256 64<128 192 384 448>
CounterMasks: 1 fc
LayerCount: 2
Fore
SplineSet
256 128 m 1,0,-1
 256 192 l 1,1,-1
 320 192 l 1,2,-1
 320 128 l 1,3,-1
 256 128 l 1,0,-1
128 128 m 1,4,-1
 128 256 l 1,5,-1
 0 256 l 1,6,-1
 0 320 l 1,7,-1
 128 320 l 1,8,-1
 128 448 l 1,9,-1
 192 448 l 1,10,-1
 192 320 l 1,11,-1
 320 320 l 1,12,-1
 320 256 l 1,13,-1
 192 256 l 1,14,-1
 192 128 l 1,15,-1
 128 128 l 1,4,-1
0 128 m 1,16,-1
 0 192 l 1,17,-1
 64 192 l 1,18,-1
 64 128 l 1,19,-1
 0 128 l 1,16,-1
256 384 m 1,20,-1
 256 448 l 1,21,-1
 320 448 l 1,22,-1
 320 384 l 1,23,-1
 256 384 l 1,20,-1
0 384 m 1,24,-1
 0 448 l 1,25,-1
 64 448 l 1,26,-1
 64 384 l 1,27,-1
 0 384 l 1,24,-1
EndSplineSet
Validated: 1
EndChar

StartChar: percent
Encoding: 37 37 8
Width: 384
Flags: W
HStem: 0 64<192 256> 128 64<192 256> 256 64<0 320> 384 64<64 128> 512 64<64 128>
VStem: 0 64<448 512> 128 64<64 128 448 512> 256 64<64 128>
CounterMasks: 1 07
LayerCount: 2
Fore
SplineSet
320 0 m 1,0,-1
 128 0 l 1,1,-1
 128 192 l 1,2,-1
 320 192 l 1,3,-1
 320 0 l 1,0,-1
256 64 m 1,4,-1
 256 128 l 1,5,-1
 192 128 l 1,6,-1
 192 64 l 1,7,-1
 256 64 l 1,4,-1
0 320 m 1,8,-1
 320 320 l 1,9,-1
 320 256 l 1,10,-1
 0 256 l 1,11,-1
 0 320 l 1,8,-1
192 384 m 1,12,-1
 0 384 l 1,13,-1
 0 576 l 1,14,-1
 192 576 l 1,15,-1
 192 384 l 1,12,-1
128 448 m 1,16,-1
 128 512 l 1,17,-1
 64 512 l 1,18,-1
 64 448 l 1,19,-1
 128 448 l 1,16,-1
EndSplineSet
Validated: 1
EndChar

StartChar: ampersand
Encoding: 38 38 9
Width: 384
Flags: W
HStem: 0 64<64 192 256 320> 128 64<256 320> 192 64<64 192> 384 64<64 192>
VStem: 0 64<64 192 256 384> 192 64<64 128 256 384> 256 64<0 64>
LayerCount: 2
Fore
SplineSet
256 0 m 1,0,-1
 256 64 l 1,1,-1
 320 64 l 1,2,-1
 320 0 l 1,3,-1
 256 0 l 1,0,-1
64 64 m 1,4,-1
 192 64 l 1,5,-1
 192 192 l 1,6,-1
 64 192 l 1,7,-1
 64 64 l 1,4,-1
192 0 m 1,8,-1
 0 0 l 1,9,-1
 0 448 l 1,10,-1
 256 448 l 1,11,-1
 256 192 l 1,12,-1
 320 192 l 1,13,-1
 320 128 l 1,14,-1
 256 128 l 1,15,-1
 256 64 l 1,16,-1
 192 64 l 1,17,-1
 192 0 l 1,8,-1
64 256 m 1,18,-1
 192 256 l 1,19,-1
 192 384 l 1,20,-1
 64 384 l 1,21,-1
 64 256 l 1,18,-1
EndSplineSet
Validated: 5
EndChar

StartChar: quotesingle
Encoding: 39 39 10
Width: 128
Flags: W
HStem: 256 192<0 64>
VStem: 0 64<256 448>
LayerCount: 2
Fore
SplineSet
0 256 m 1,0,-1
 0 448 l 1,1,-1
 64 448 l 1,2,-1
 64 256 l 1,3,-1
 0 256 l 1,0,-1
EndSplineSet
Validated: 1
EndChar

StartChar: parenleft
Encoding: 40 40 11
Width: 256
Flags: W
HStem: 0 64<128 192> 64 64<64 128> 300 20G<0 64> 320 64<64 128> 384 64<128 192>
VStem: 0 64<128 320> 64 64<64 128 320 384> 128 64<0 64 384 448>
LayerCount: 2
Fore
SplineSet
128 0 m 1,0,-1
 128 64 l 1,1,-1
 192 64 l 1,2,-1
 192 0 l 1,3,-1
 128 0 l 1,0,-1
128 64 m 1,4,-1
 64 64 l 1,5,-1
 64 128 l 1,6,-1
 128 128 l 1,7,-1
 128 64 l 1,4,-1
64 128 m 1,8,-1
 0 128 l 1,9,-1
 0 320 l 1,10,-1
 64 320 l 1,11,-1
 64 128 l 1,8,-1
64 320 m 1,12,-1
 64 384 l 1,13,-1
 128 384 l 1,14,-1
 128 320 l 1,15,-1
 64 320 l 1,12,-1
128 384 m 1,16,-1
 128 448 l 1,17,-1
 192 448 l 1,18,-1
 192 384 l 1,19,-1
 128 384 l 1,16,-1
EndSplineSet
Validated: 5
EndChar

StartChar: parenright
Encoding: 41 41 12
Width: 256
Flags: W
HStem: 0 64<0 64> 64 64<64 128> 300 20G<128 192> 320 64<64 128> 384 64<0 64>
VStem: 0 64<0 64 384 448> 64 64<64 128 320 384> 128 64<128 320>
LayerCount: 2
Fore
SplineSet
0 0 m 1,0,-1
 0 64 l 1,1,-1
 64 64 l 1,2,-1
 64 0 l 1,3,-1
 0 0 l 1,0,-1
64 64 m 1,4,-1
 64 128 l 1,5,-1
 128 128 l 1,6,-1
 128 64 l 1,7,-1
 64 64 l 1,4,-1
128 128 m 1,8,-1
 128 320 l 1,9,-1
 192 320 l 1,10,-1
 192 128 l 1,11,-1
 128 128 l 1,8,-1
128 320 m 1,12,-1
 64 320 l 1,13,-1
 64 384 l 1,14,-1
 128 384 l 1,15,-1
 128 320 l 1,12,-1
64 384 m 1,16,-1
 0 384 l 1,17,-1
 0 448 l 1,18,-1
 64 448 l 1,19,-1
 64 384 l 1,16,-1
EndSplineSet
Validated: 5
EndChar

StartChar: asterisk
Encoding: 42 42 13
Width: 384
Flags: W
HStem: 128 64<0 64 256 320> 256 64<0 128 192 320> 384 64<0 64 256 320>
VStem: 0 64<128 192 384 448> 128 64<128 256 320 448> 256 64<128 192 384 448>
CounterMasks: 1 fc
LayerCount: 2
Fore
SplineSet
256 128 m 1,0,-1
 256 192 l 1,1,-1
 320 192 l 1,2,-1
 320 128 l 1,3,-1
 256 128 l 1,0,-1
128 128 m 1,4,-1
 128 256 l 1,5,-1
 0 256 l 1,6,-1
 0 320 l 1,7,-1
 128 320 l 1,8,-1
 128 448 l 1,9,-1
 192 448 l 1,10,-1
 192 320 l 1,11,-1
 320 320 l 1,12,-1
 320 256 l 1,13,-1
 192 256 l 1,14,-1
 192 128 l 1,15,-1
 128 128 l 1,4,-1
0 128 m 1,16,-1
 0 192 l 1,17,-1
 64 192 l 1,18,-1
 64 128 l 1,19,-1
 0 128 l 1,16,-1
256 384 m 1,20,-1
 256 448 l 1,21,-1
 320 448 l 1,22,-1
 320 384 l 1,23,-1
 256 384 l 1,20,-1
0 384 m 1,24,-1
 0 448 l 1,25,-1
 64 448 l 1,26,-1
 64 384 l 1,27,-1
 0 384 l 1,24,-1
EndSplineSet
Validated: 1
EndChar

StartChar: plus
Encoding: 43 43 14
Width: 384
Flags: W
HStem: 0 21G<128 192> 128 64<0 128 192 320> 300 20G<128 192>
VStem: 128 64<0 128 192 320>
LayerCount: 2
Fore
SplineSet
128 0 m 1,0,-1
 128 128 l 1,1,-1
 0 128 l 1,2,-1
 0 192 l 1,3,-1
 128 192 l 1,4,-1
 128 320 l 1,5,-1
 192 320 l 1,6,-1
 192 192 l 1,7,-1
 320 192 l 1,8,-1
 320 128 l 1,9,-1
 192 128 l 1,10,-1
 192 0 l 1,11,-1
 128 0 l 1,0,-1
EndSplineSet
Validated: 1
EndChar

StartChar: comma
Encoding: 44 44 15
Width: 128
Flags: W
HStem: -128 192<0 64>
VStem: 0 64<-128 64>
LayerCount: 2
Fore
SplineSet
0 -128 m 1,0,-1
 0 64 l 1,1,-1
 64 64 l 1,2,-1
 64 -128 l 1,3,-1
 0 -128 l 1,0,-1
EndSplineSet
Validated: 1
EndChar

StartChar: hyphen
Encoding: 45 45 16
Width: 384
Flags: W
HStem: 128 64<0 320>
VStem: 0 320<128 192>
LayerCount: 2
Fore
SplineSet
0 192 m 1,0,-1
 320 192 l 1,1,-1
 320 128 l 1,2,-1
 0 128 l 1,3,-1
 0 192 l 1,0,-1
EndSplineSet
Validated: 1
EndChar

StartChar: period
Encoding: 46 46 17
Width: 128
Flags: W
HStem: 0 64<0 64>
VStem: 0 64<0 64>
LayerCount: 2
Fore
SplineSet
0 0 m 1,0,-1
 0 64 l 1,1,-1
 64 64 l 1,2,-1
 64 0 l 1,3,-1
 0 0 l 1,0,-1
EndSplineSet
Validated: 1
EndChar

StartChar: slash
Encoding: 47 47 18
Width: 256
Flags: W
HStem: 0 21G<0 64> 192 64<64 128> 428 20G<128 192>
VStem: 0 64<0 192> 64 64<192 256> 128 64<256 448>
LayerCount: 2
Fore
SplineSet
0 0 m 1,0,-1
 0 192 l 1,1,-1
 64 192 l 1,2,-1
 64 0 l 1,3,-1
 0 0 l 1,0,-1
64 192 m 1,4,-1
 64 256 l 1,5,-1
 128 256 l 1,6,-1
 128 192 l 1,7,-1
 64 192 l 1,4,-1
128 256 m 1,8,-1
 128 448 l 1,9,-1
 192 448 l 1,10,-1
 192 256 l 1,11,-1
 128 256 l 1,8,-1
EndSplineSet
Validated: 5
EndChar

StartChar: zero
Encoding: 48 48 19
Width: 384
Flags: W
HStem: 0 64<64 256> 192 64<128 192> 384 64<64 256>
VStem: 0 64<64 384> 128 64<192 256> 256 64<64 384>
CounterMasks: 1 fc
LayerCount: 2
Fore
SplineSet
128 192 m 1,0,-1
 128 256 l 1,1,-1
 192 256 l 1,2,-1
 192 192 l 1,3,-1
 128 192 l 1,0,-1
320 0 m 1,4,-1
 0 0 l 1,5,-1
 0 448 l 1,6,-1
 320 448 l 1,7,-1
 320 0 l 1,4,-1
64 64 m 1,8,-1
 256 64 l 1,9,-1
 256 384 l 1,10,-1
 64 384 l 1,11,-1
 64 64 l 1,8,-1
EndSplineSet
Validated: 1
EndChar

StartChar: one
Encoding: 49 49 20
Width: 192
Flags: W
HStem: 0 21G<64 128> 384 64<0 64>
VStem: 0 128<384 448> 64 64<0 384>
LayerCount: 2
Fore
SplineSet
64 0 m 1,0,-1
 64 384 l 1,1,-1
 0 384 l 1,2,-1
 0 448 l 1,3,-1
 128 448 l 1,4,-1
 128 0 l 1,5,-1
 64 0 l 1,0,-1
EndSplineSet
Validated: 1
EndChar

StartChar: two
Encoding: 50 50 21
Width: 384
Flags: W
HStem: 0 64<64 320> 192 64<64 256> 384 64<0 256>
VStem: 0 64<64 192> 256 64<256 384>
CounterMasks: 1 e0
LayerCount: 2
Fore
SplineSet
64 64 m 1,0,-1
 320 64 l 1,1,-1
 320 0 l 1,2,-1
 0 0 l 1,3,-1
 0 256 l 1,4,-1
 256 256 l 1,5,-1
 256 384 l 1,6,-1
 0 384 l 1,7,-1
 0 448 l 1,8,-1
 320 448 l 1,9,-1
 320 192 l 1,10,-1
 64 192 l 1,11,-1
 64 64 l 1,0,-1
EndSplineSet
Validated: 1
EndChar

StartChar: three
Encoding: 51 51 22
Width: 384
Flags: W
HStem: 0 64<0 256> 192 64<0 256> 384 64<0 256>
VStem: 256 64<64 192 256 384>
CounterMasks: 1 e0
LayerCount: 2
Fore
SplineSet
320 0 m 1,0,-1
 0 0 l 1,1,-1
 0 64 l 1,2,-1
 256 64 l 1,3,-1
 256 192 l 1,4,-1
 0 192 l 1,5,-1
 0 256 l 1,6,-1
 256 256 l 1,7,-1
 256 384 l 1,8,-1
 0 384 l 1,9,-1
 0 448 l 1,10,-1
 320 448 l 1,11,-1
 320 0 l 1,0,-1
EndSplineSet
Validated: 1
EndChar

StartChar: four
Encoding: 52 52 23
Width: 384
Flags: W
HStem: 0 21G<256 320> 192 64<64 256> 428 20G<0 64 256 320>
VStem: 0 64<256 448> 256 64<0 192 256 448>
LayerCount: 2
Fore
SplineSet
256 0 m 1,0,-1
 256 192 l 1,1,-1
 0 192 l 1,2,-1
 0 448 l 1,3,-1
 64 448 l 1,4,-1
 64 256 l 1,5,-1
 256 256 l 1,6,-1
 256 448 l 1,7,-1
 320 448 l 1,8,-1
 320 0 l 1,9,-1
 256 0 l 1,0,-1
EndSplineSet
Validated: 1
EndChar

StartChar: five
Encoding: 53 53 24
Width: 384
Flags: W
HStem: 0 64<0 256> 192 64<64 256> 384 64<64 320>
VStem: 0 64<256 384> 256 64<64 192>
CounterMasks: 1 e0
LayerCount: 2
Fore
SplineSet
320 0 m 1,0,-1
 0 0 l 1,1,-1
 0 64 l 1,2,-1
 256 64 l 1,3,-1
 256 192 l 1,4,-1
 0 192 l 1,5,-1
 0 448 l 1,6,-1
 320 448 l 1,7,-1
 320 384 l 1,8,-1
 64 384 l 1,9,-1
 64 256 l 1,10,-1
 320 256 l 1,11,-1
 320 0 l 1,0,-1
EndSplineSet
Validated: 1
EndChar

StartChar: six
Encoding: 54 54 25
Width: 384
Flags: W
HStem: 0 64<64 256> 192 64<64 256> 384 64<64 320>
VStem: 0 64<64 192 256 384> 256 64<64 192>
CounterMasks: 1 e0
LayerCount: 2
Fore
SplineSet
320 0 m 1,0,-1
 0 0 l 1,1,-1
 0 448 l 1,2,-1
 320 448 l 1,3,-1
 320 384 l 1,4,-1
 64 384 l 1,5,-1
 64 256 l 1,6,-1
 320 256 l 1,7,-1
 320 0 l 1,0,-1
64 64 m 1,8,-1
 256 64 l 1,9,-1
 256 192 l 1,10,-1
 64 192 l 1,11,-1
 64 64 l 1,8,-1
EndSplineSet
Validated: 1
EndChar

StartChar: seven
Encoding: 55 55 26
Width: 384
Flags: W
HStem: 0 21G<256 320> 384 64<0 256>
VStem: 256 64<0 384>
LayerCount: 2
Fore
SplineSet
256 0 m 1,0,-1
 256 384 l 1,1,-1
 0 384 l 1,2,-1
 0 448 l 1,3,-1
 320 448 l 1,4,-1
 320 0 l 1,5,-1
 256 0 l 1,0,-1
EndSplineSet
Validated: 1
EndChar

StartChar: eight
Encoding: 56 56 27
Width: 384
Flags: W
HStem: 0 64<64 256> 192 64<64 256> 384 64<64 256>
VStem: 0 64<64 192 256 384> 256 64<64 192 256 384>
CounterMasks: 1 e0
LayerCount: 2
Fore
SplineSet
320 0 m 1,0,-1
 0 0 l 1,1,-1
 0 448 l 1,2,-1
 320 448 l 1,3,-1
 320 0 l 1,0,-1
64 64 m 1,4,-1
 256 64 l 1,5,-1
 256 192 l 1,6,-1
 64 192 l 1,7,-1
 64 64 l 1,4,-1
64 256 m 1,8,-1
 256 256 l 1,9,-1
 256 384 l 1,10,-1
 64 384 l 1,11,-1
 64 256 l 1,8,-1
EndSplineSet
Validated: 1
EndChar

StartChar: nine
Encoding: 57 57 28
Width: 384
Flags: W
HStem: 0 64<0 256> 192 64<64 256> 384 64<64 256>
VStem: 0 64<256 384> 256 64<64 192 256 384>
CounterMasks: 1 e0
LayerCount: 2
Fore
SplineSet
320 0 m 1,0,-1
 0 0 l 1,1,-1
 0 64 l 1,2,-1
 256 64 l 1,3,-1
 256 192 l 1,4,-1
 0 192 l 1,5,-1
 0 448 l 1,6,-1
 320 448 l 1,7,-1
 320 0 l 1,0,-1
64 256 m 1,8,-1
 256 256 l 1,9,-1
 256 384 l 1,10,-1
 64 384 l 1,11,-1
 64 256 l 1,8,-1
EndSplineSet
Validated: 1
EndChar

StartChar: colon
Encoding: 58 58 29
Width: 128
Flags: W
HStem: 0 64<0 64> 256 64<0 64>
VStem: 0 64<0 64 256 320>
LayerCount: 2
Fore
SplineSet
0 0 m 1,0,-1
 0 64 l 1,1,-1
 64 64 l 1,2,-1
 64 0 l 1,3,-1
 0 0 l 1,0,-1
0 256 m 1,4,-1
 0 320 l 1,5,-1
 64 320 l 1,6,-1
 64 256 l 1,7,-1
 0 256 l 1,4,-1
EndSplineSet
Validated: 1
EndChar

StartChar: semicolon
Encoding: 59 59 30
Width: 128
Flags: W
HStem: -128 21G<0 64> 256 64<0 64>
VStem: 0 64<-128 64 256 320>
LayerCount: 2
Fore
SplineSet
0 -128 m 1,0,-1
 0 64 l 1,1,-1
 64 64 l 1,2,-1
 64 -128 l 1,3,-1
 0 -128 l 1,0,-1
0 256 m 1,4,-1
 0 320 l 1,5,-1
 64 320 l 1,6,-1
 64 256 l 1,7,-1
 0 256 l 1,4,-1
EndSplineSet
Validated: 1
EndChar

StartChar: less
Encoding: 60 60 31
Width: 256
Flags: W
HStem: 0 64<128 192> 64 64<64 128> 128 64<0 64> 192 64<64 128> 256 64<128 192>
VStem: 0 64<128 192> 64 64<64 128 192 256> 128 64<0 64 256 320>
LayerCount: 2
Fore
SplineSet
128 0 m 1,0,-1
 128 64 l 1,1,-1
 192 64 l 1,2,-1
 192 0 l 1,3,-1
 128 0 l 1,0,-1
128 64 m 1,4,-1
 64 64 l 1,5,-1
 64 128 l 1,6,-1
 128 128 l 1,7,-1
 128 64 l 1,4,-1
64 128 m 1,8,-1
 0 128 l 1,9,-1
 0 192 l 1,10,-1
 64 192 l 1,11,-1
 64 128 l 1,8,-1
64 192 m 1,12,-1
 64 256 l 1,13,-1
 128 256 l 1,14,-1
 128 192 l 1,15,-1
 64 192 l 1,12,-1
128 256 m 1,16,-1
 128 320 l 1,17,-1
 192 320 l 1,18,-1
 192 256 l 1,19,-1
 128 256 l 1,16,-1
EndSplineSet
Validated: 5
EndChar

StartChar: equal
Encoding: 61 61 32
Width: 384
Flags: W
HStem: 0 64<0 320> 256 64<0 320>
VStem: 0 320<0 64 256 320>
LayerCount: 2
Fore
SplineSet
0 64 m 1,0,-1
 320 64 l 1,1,-1
 320 0 l 1,2,-1
 0 0 l 1,3,-1
 0 64 l 1,0,-1
0 320 m 1,4,-1
 320 320 l 1,5,-1
 320 256 l 1,6,-1
 0 256 l 1,7,-1
 0 320 l 1,4,-1
EndSplineSet
Validated: 1
EndChar

StartChar: greater
Encoding: 62 62 33
Width: 256
Flags: W
HStem: 0 64<0 64> 64 64<64 128> 128 64<128 192> 192 64<64 128> 256 64<0 64>
VStem: 0 64<0 64 256 320> 64 64<64 128 192 256> 128 64<128 192>
LayerCount: 2
Fore
SplineSet
0 0 m 1,0,-1
 0 64 l 1,1,-1
 64 64 l 1,2,-1
 64 0 l 1,3,-1
 0 0 l 1,0,-1
64 64 m 1,4,-1
 64 128 l 1,5,-1
 128 128 l 1,6,-1
 128 64 l 1,7,-1
 64 64 l 1,4,-1
128 128 m 1,8,-1
 128 192 l 1,9,-1
 192 192 l 1,10,-1
 192 128 l 1,11,-1
 128 128 l 1,8,-1
128 192 m 1,12,-1
 64 192 l 1,13,-1
 64 256 l 1,14,-1
 128 256 l 1,15,-1
 128 192 l 1,12,-1
64 256 m 1,16,-1
 0 256 l 1,17,-1
 0 320 l 1,18,-1
 64 320 l 1,19,-1
 64 256 l 1,16,-1
EndSplineSet
Validated: 5
EndChar

StartChar: question
Encoding: 63 63 34
Width: 384
Flags: W
HStem: 0 64<64 128> 128 128<64 128> 192 64<128 256> 384 64<0 256>
VStem: 64 64<0 64 128 192> 256 64<256 384>
LayerCount: 2
Fore
SplineSet
64 0 m 1,0,-1
 64 64 l 1,1,-1
 128 64 l 1,2,-1
 128 0 l 1,3,-1
 64 0 l 1,0,-1
64 128 m 1,4,-1
 64 256 l 1,5,-1
 256 256 l 1,6,-1
 256 384 l 1,7,-1
 0 384 l 1,8,-1
 0 448 l 1,9,-1
 320 448 l 1,10,-1
 320 192 l 1,11,-1
 128 192 l 1,12,-1
 128 128 l 1,13,-1
 64 128 l 1,4,-1
EndSplineSet
Validated: 1
EndChar

StartChar: at
Encoding: 64 64 35
Width: 384
Flags: W
HStem: 0 64<64 320> 128 64<192 256> 256 64<192 256> 384 64<64 256>
VStem: 0 64<64 384> 128 64<192 256> 256 64<192 256 320 384>
CounterMasks: 1 0e
LayerCount: 2
Fore
SplineSet
64 64 m 1,0,-1
 320 64 l 1,1,-1
 320 0 l 1,2,-1
 0 0 l 1,3,-1
 0 448 l 1,4,-1
 320 448 l 1,5,-1
 320 128 l 1,6,-1
 128 128 l 1,7,-1
 128 320 l 1,8,-1
 256 320 l 1,9,-1
 256 384 l 1,10,-1
 64 384 l 1,11,-1
 64 64 l 1,0,-1
256 192 m 1,12,-1
 256 256 l 1,13,-1
 192 256 l 1,14,-1
 192 192 l 1,15,-1
 256 192 l 1,12,-1
EndSplineSet
Validated: 1
EndChar

StartChar: A
Encoding: 65 65 36
Width: 384
Flags: W
HStem: 0 21G<0 64 256 320> 192 64<64 256> 384 64<64 256>
VStem: 0 64<0 192 256 384> 256 64<0 192 256 384>
LayerCount: 2
Fore
SplineSet
256 0 m 1,0,-1
 256 192 l 1,1,-1
 64 192 l 1,2,-1
 64 0 l 1,3,-1
 0 0 l 1,4,-1
 0 448 l 1,5,-1
 320 448 l 1,6,-1
 320 0 l 1,7,-1
 256 0 l 1,0,-1
64 256 m 1,8,-1
 256 256 l 1,9,-1
 256 384 l 1,10,-1
 64 384 l 1,11,-1
 64 256 l 1,8,-1
EndSplineSet
Validated: 1
EndChar

StartChar: B
Encoding: 66 66 37
Width: 384
Flags: W
HStem: 0 64<64 256> 192 64<64 256> 384 64<64 256>
VStem: 0 64<64 192 256 384> 256 64<64 192 256 384>
CounterMasks: 1 e0
LayerCount: 2
Fore
SplineSet
320 0 m 1,0,-1
 0 0 l 1,1,-1
 0 448 l 1,2,-1
 320 448 l 1,3,-1
 320 256 l 1,4,-1
 256 256 l 1,5,-1
 256 384 l 1,6,-1
 64 384 l 1,7,-1
 64 256 l 1,8,-1
 256 256 l 1,9,-1
 256 192 l 1,10,-1
 64 192 l 1,11,-1
 64 64 l 1,12,-1
 256 64 l 1,13,-1
 256 192 l 1,14,-1
 320 192 l 1,15,-1
 320 0 l 1,0,-1
EndSplineSet
Validated: 5
EndChar

StartChar: C
Encoding: 67 67 38
Width: 384
Flags: W
HStem: 0 64<64 320> 384 64<64 320>
VStem: 0 64<64 384>
LayerCount: 2
Fore
SplineSet
64 64 m 1,0,-1
 320 64 l 1,1,-1
 320 0 l 1,2,-1
 0 0 l 1,3,-1
 0 448 l 1,4,-1
 320 448 l 1,5,-1
 320 384 l 1,6,-1
 64 384 l 1,7,-1
 64 64 l 1,0,-1
EndSplineSet
Validated: 1
EndChar

StartChar: D
Encoding: 68 68 39
Width: 384
Flags: W
HStem: 0 64<64 256> 384 64<64 256>
VStem: 0 64<64 384> 256 64<64 384>
LayerCount: 2
Fore
SplineSet
64 64 m 1,0,-1
 256 64 l 1,1,-1
 256 384 l 1,2,-1
 64 384 l 1,3,-1
 64 64 l 1,0,-1
256 0 m 1,4,-1
 0 0 l 1,5,-1
 0 448 l 1,6,-1
 256 448 l 1,7,-1
 256 384 l 1,8,-1
 320 384 l 1,9,-1
 320 64 l 1,10,-1
 256 64 l 1,11,-1
 256 0 l 1,4,-1
EndSplineSet
Validated: 5
EndChar

StartChar: E
Encoding: 69 69 40
Width: 384
Flags: W
HStem: 0 64<64 320> 192 64<64 256> 384 64<64 320>
VStem: 0 64<64 192 256 384>
CounterMasks: 1 e0
LayerCount: 2
Fore
SplineSet
64 64 m 5,0,-1
 320 64 l 5,1,-1
 320 0 l 5,2,-1
 0 0 l 5,3,-1
 0 448 l 5,4,-1
 320 448 l 5,5,-1
 320 384 l 5,6,-1
 64 384 l 5,7,-1
 64 256 l 5,8,-1
 256 256 l 5,9,-1
 256 192 l 5,10,-1
 64 192 l 5,11,-1
 64 64 l 5,0,-1
EndSplineSet
Validated: 1
EndChar

StartChar: F
Encoding: 70 70 41
Width: 384
Flags: W
HStem: 0 21G<0 64> 192 64<64 320> 384 64<64 320>
VStem: 0 64<0 192 256 384>
LayerCount: 2
Fore
SplineSet
0 0 m 1,0,-1
 0 448 l 1,1,-1
 320 448 l 1,2,-1
 320 384 l 1,3,-1
 64 384 l 1,4,-1
 64 256 l 1,5,-1
 320 256 l 1,6,-1
 320 192 l 1,7,-1
 64 192 l 1,8,-1
 64 0 l 1,9,-1
 0 0 l 1,0,-1
EndSplineSet
Validated: 1
EndChar

StartChar: G
Encoding: 71 71 42
Width: 384
Flags: W
HStem: 0 64<64 256> 192 64<192 256> 384 64<64 320>
VStem: 0 64<64 384> 192 128<192 256> 256 64<64 192>
CounterMasks: 1 e0
LayerCount: 2
Fore
SplineSet
320 0 m 1,0,-1
 0 0 l 1,1,-1
 0 448 l 1,2,-1
 320 448 l 1,3,-1
 320 384 l 1,4,-1
 64 384 l 1,5,-1
 64 64 l 1,6,-1
 256 64 l 1,7,-1
 256 192 l 1,8,-1
 192 192 l 1,9,-1
 192 256 l 1,10,-1
 320 256 l 1,11,-1
 320 0 l 1,0,-1
EndSplineSet
Validated: 1
EndChar

StartChar: H
Encoding: 72 72 43
Width: 384
Flags: W
HStem: 0 21G<0 64 256 320> 192 64<64 256> 428 20G<0 64 256 320>
VStem: 0 64<0 192 256 448> 256 64<0 192 256 448>
LayerCount: 2
Fore
SplineSet
256 0 m 1,0,-1
 256 192 l 1,1,-1
 64 192 l 1,2,-1
 64 0 l 1,3,-1
 0 0 l 1,4,-1
 0 448 l 1,5,-1
 64 448 l 1,6,-1
 64 256 l 1,7,-1
 256 256 l 1,8,-1
 256 448 l 1,9,-1
 320 448 l 1,10,-1
 320 0 l 1,11,-1
 256 0 l 1,0,-1
EndSplineSet
Validated: 1
EndChar

StartChar: I
Encoding: 73 73 44
Width: 128
Flags: W
HStem: 0 21G<0 64> 428 20G<0 64>
VStem: 0 64<0 448>
LayerCount: 2
Fore
SplineSet
0 0 m 1,0,-1
 0 448 l 1,1,-1
 64 448 l 1,2,-1
 64 0 l 1,3,-1
 0 0 l 1,0,-1
EndSplineSet
Validated: 1
EndChar

StartChar: J
Encoding: 74 74 45
Width: 256
Flags: W
HStem: 0 64<0 128> 428 20G<128 192>
VStem: 128 64<64 448>
LayerCount: 2
Fore
SplineSet
192 0 m 1,0,-1
 0 0 l 1,1,-1
 0 64 l 1,2,-1
 128 64 l 1,3,-1
 128 448 l 1,4,-1
 192 448 l 1,5,-1
 192 0 l 1,0,-1
EndSplineSet
Validated: 1
EndChar

StartChar: K
Encoding: 75 75 46
Width: 384
Flags: W
HStem: 0 21G<0 64 256 320> 192 64<64 256> 428 20G<0 64 256 320>
VStem: 0 64<0 192 256 448> 256 64<0 192 256 448>
LayerCount: 2
Fore
SplineSet
256 0 m 1,0,-1
 256 192 l 1,1,-1
 320 192 l 1,2,-1
 320 0 l 1,3,-1
 256 0 l 1,0,-1
0 0 m 1,4,-1
 0 448 l 1,5,-1
 64 448 l 1,6,-1
 64 256 l 1,7,-1
 256 256 l 1,8,-1
 256 192 l 1,9,-1
 64 192 l 1,10,-1
 64 0 l 1,11,-1
 0 0 l 1,4,-1
256 256 m 1,12,-1
 256 448 l 1,13,-1
 320 448 l 1,14,-1
 320 256 l 1,15,-1
 256 256 l 1,12,-1
EndSplineSet
Validated: 5
EndChar

StartChar: L
Encoding: 76 76 47
Width: 384
Flags: W
HStem: 0 64<64 320> 428 20G<0 64>
VStem: 0 64<64 448>
LayerCount: 2
Fore
SplineSet
64 64 m 1,0,-1
 320 64 l 1,1,-1
 320 0 l 1,2,-1
 0 0 l 1,3,-1
 0 448 l 1,4,-1
 64 448 l 1,5,-1
 64 64 l 1,0,-1
EndSplineSet
Validated: 1
EndChar

StartChar: M
Encoding: 77 77 48
Width: 512
Flags: W
HStem: 0 21G<0 64 192 256 384 448> 384 64<64 192 256 384>
VStem: 0 64<0 384> 192 64<0 384> 384 64<0 384>
CounterMasks: 1 38
LayerCount: 2
Fore
SplineSet
384 0 m 1,0,-1
 384 384 l 1,1,-1
 256 384 l 1,2,-1
 256 0 l 1,3,-1
 192 0 l 1,4,-1
 192 384 l 1,5,-1
 64 384 l 1,6,-1
 64 0 l 1,7,-1
 0 0 l 1,8,-1
 0 448 l 1,9,-1
 448 448 l 1,10,-1
 448 0 l 1,11,-1
 384 0 l 1,0,-1
EndSplineSet
Validated: 1
EndChar

StartChar: N
Encoding: 78 78 49
Width: 384
Flags: W
HStem: 0 21G<0 64 256 320> 384 64<64 256>
VStem: 0 64<0 384> 256 64<0 384>
LayerCount: 2
Fore
SplineSet
256 0 m 1,0,-1
 256 384 l 1,1,-1
 64 384 l 1,2,-1
 64 0 l 1,3,-1
 0 0 l 1,4,-1
 0 448 l 1,5,-1
 320 448 l 1,6,-1
 320 0 l 1,7,-1
 256 0 l 1,0,-1
EndSplineSet
Validated: 1
EndChar

StartChar: O
Encoding: 79 79 50
Width: 384
Flags: W
HStem: 0 64<64 256> 384 64<64 256>
VStem: 0 64<64 384> 256 64<64 384>
LayerCount: 2
Fore
SplineSet
320 0 m 1,0,-1
 0 0 l 1,1,-1
 0 448 l 1,2,-1
 320 448 l 1,3,-1
 320 0 l 1,0,-1
64 64 m 1,4,-1
 256 64 l 1,5,-1
 256 384 l 1,6,-1
 64 384 l 1,7,-1
 64 64 l 1,4,-1
EndSplineSet
Validated: 1
EndChar

StartChar: P
Encoding: 80 80 51
Width: 384
Flags: W
HStem: 0 21G<0 64> 192 64<64 256> 384 64<64 256>
VStem: 0 64<0 192 256 384> 256 64<256 384>
LayerCount: 2
Fore
SplineSet
0 0 m 1,0,-1
 0 448 l 1,1,-1
 320 448 l 1,2,-1
 320 192 l 1,3,-1
 64 192 l 1,4,-1
 64 0 l 1,5,-1
 0 0 l 1,0,-1
64 256 m 1,6,-1
 256 256 l 1,7,-1
 256 384 l 1,8,-1
 64 384 l 1,9,-1
 64 256 l 1,6,-1
EndSplineSet
Validated: 1
EndChar

StartChar: Q
Encoding: 81 81 52
Width: 384
Flags: W
HStem: 0 64<64 128 192 256> 384 64<64 256>
VStem: 0 64<64 384> 128 64<-64 0 64 128> 256 64<64 384>
CounterMasks: 1 38
LayerCount: 2
Fore
SplineSet
128 -64 m 1,0,-1
 128 0 l 1,1,-1
 0 0 l 1,2,-1
 0 448 l 1,3,-1
 320 448 l 1,4,-1
 320 0 l 1,5,-1
 192 0 l 1,6,-1
 192 -64 l 1,7,-1
 128 -64 l 1,0,-1
256 64 m 1,8,-1
 256 384 l 1,9,-1
 64 384 l 1,10,-1
 64 64 l 1,11,-1
 128 64 l 1,12,-1
 128 128 l 1,13,-1
 192 128 l 1,14,-1
 192 64 l 1,15,-1
 256 64 l 1,8,-1
EndSplineSet
Validated: 1
EndChar

StartChar: R
Encoding: 82 82 53
Width: 384
Flags: W
HStem: 0 21G<0 64 256 320> 192 64<64 256> 384 64<64 256>
VStem: 0 64<0 192 256 384> 256 64<0 192 256 384>
LayerCount: 2
Fore
SplineSet
256 0 m 1,0,-1
 256 192 l 1,1,-1
 320 192 l 1,2,-1
 320 0 l 1,3,-1
 256 0 l 1,0,-1
0 0 m 1,4,-1
 0 448 l 1,5,-1
 320 448 l 1,6,-1
 320 256 l 1,7,-1
 256 256 l 1,8,-1
 256 384 l 1,9,-1
 64 384 l 1,10,-1
 64 256 l 1,11,-1
 256 256 l 1,12,-1
 256 192 l 1,13,-1
 64 192 l 1,14,-1
 64 0 l 1,15,-1
 0 0 l 1,4,-1
EndSplineSet
Validated: 5
EndChar

StartChar: S
Encoding: 83 83 54
Width: 384
Flags: W
HStem: 0 64<0 256> 192 64<64 256> 384 64<64 320>
VStem: 0 64<256 384> 256 64<64 192>
CounterMasks: 1 e0
LayerCount: 2
Fore
SplineSet
320 0 m 1,0,-1
 0 0 l 1,1,-1
 0 64 l 1,2,-1
 256 64 l 1,3,-1
 256 192 l 1,4,-1
 0 192 l 1,5,-1
 0 448 l 1,6,-1
 320 448 l 1,7,-1
 320 384 l 1,8,-1
 64 384 l 1,9,-1
 64 256 l 1,10,-1
 320 256 l 1,11,-1
 320 0 l 1,0,-1
EndSplineSet
Validated: 1
EndChar

StartChar: T
Encoding: 84 84 55
Width: 384
Flags: W
HStem: 0 21G<128 192> 384 64<0 128 192 320>
VStem: 128 64<0 384>
LayerCount: 2
Fore
SplineSet
128 0 m 1,0,-1
 128 384 l 1,1,-1
 0 384 l 1,2,-1
 0 448 l 1,3,-1
 320 448 l 1,4,-1
 320 384 l 1,5,-1
 192 384 l 1,6,-1
 192 0 l 1,7,-1
 128 0 l 1,0,-1
EndSplineSet
Validated: 1
EndChar

StartChar: U
Encoding: 85 85 56
Width: 384
Flags: W
HStem: 0 64<64 256> 428 20G<0 64 256 320>
VStem: 0 64<64 448> 256 64<64 448>
LayerCount: 2
Fore
SplineSet
320 0 m 1,0,-1
 0 0 l 1,1,-1
 0 448 l 1,2,-1
 64 448 l 1,3,-1
 64 64 l 1,4,-1
 256 64 l 1,5,-1
 256 448 l 1,6,-1
 320 448 l 1,7,-1
 320 0 l 1,0,-1
EndSplineSet
Validated: 1
EndChar

StartChar: V
Encoding: 86 86 57
Width: 384
Flags: W
HStem: 0 64<128 192> 64 64<64 128 192 256> 428 20G<0 64 256 320>
VStem: 0 64<128 448> 64 64<64 128> 128 64<0 64> 192 64<64 128> 256 64<128 448>
LayerCount: 2
Fore
SplineSet
128 0 m 1,0,-1
 128 64 l 1,1,-1
 192 64 l 1,2,-1
 192 0 l 1,3,-1
 128 0 l 1,0,-1
192 64 m 1,4,-1
 192 128 l 1,5,-1
 256 128 l 1,6,-1
 256 64 l 1,7,-1
 192 64 l 1,4,-1
128 64 m 1,8,-1
 64 64 l 1,9,-1
 64 128 l 1,10,-1
 128 128 l 1,11,-1
 128 64 l 1,8,-1
256 128 m 1,12,-1
 256 448 l 1,13,-1
 320 448 l 1,14,-1
 320 128 l 1,15,-1
 256 128 l 1,12,-1
64 128 m 1,16,-1
 0 128 l 1,17,-1
 0 448 l 1,18,-1
 64 448 l 1,19,-1
 64 128 l 1,16,-1
EndSplineSet
Validated: 5
EndChar

StartChar: W
Encoding: 87 87 58
Width: 512
Flags: W
HStem: 0 64<64 192 256 384> 428 20G<0 64 192 256 384 448>
VStem: 0 64<64 448> 192 64<64 448> 384 64<64 448>
CounterMasks: 1 38
LayerCount: 2
Fore
SplineSet
448 0 m 1,0,-1
 0 0 l 1,1,-1
 0 448 l 1,2,-1
 64 448 l 1,3,-1
 64 64 l 1,4,-1
 192 64 l 1,5,-1
 192 448 l 1,6,-1
 256 448 l 1,7,-1
 256 64 l 1,8,-1
 384 64 l 1,9,-1
 384 448 l 1,10,-1
 448 448 l 1,11,-1
 448 0 l 1,0,-1
EndSplineSet
Validated: 1
EndChar

StartChar: X
Encoding: 88 88 59
Width: 384
Flags: W
HStem: 0 192<0 64 256 320> 192 64<64 256> 256 192<0 64 256 320>
VStem: 0 64<0 192 256 448> 256 64<0 192 256 448>
LayerCount: 2
Fore
SplineSet
256 0 m 1,0,-1
 256 192 l 1,1,-1
 320 192 l 1,2,-1
 320 0 l 1,3,-1
 256 0 l 1,0,-1
0 0 m 1,4,-1
 0 192 l 1,5,-1
 64 192 l 1,6,-1
 64 0 l 1,7,-1
 0 0 l 1,4,-1
256 192 m 1,8,-1
 64 192 l 1,9,-1
 64 256 l 1,10,-1
 256 256 l 1,11,-1
 256 192 l 1,8,-1
256 256 m 1,12,-1
 256 448 l 1,13,-1
 320 448 l 1,14,-1
 320 256 l 1,15,-1
 256 256 l 1,12,-1
64 256 m 1,16,-1
 0 256 l 1,17,-1
 0 448 l 1,18,-1
 64 448 l 1,19,-1
 64 256 l 1,16,-1
EndSplineSet
Validated: 5
EndChar

StartChar: Y
Encoding: 89 89 60
Width: 384
Flags: W
HStem: 0 21G<128 192> 192 64<64 128 192 256> 428 20G<0 64 256 320>
VStem: 0 64<256 448> 128 64<0 192> 256 64<256 448>
CounterMasks: 1 1c
LayerCount: 2
Fore
SplineSet
128 0 m 1,0,-1
 128 192 l 1,1,-1
 0 192 l 1,2,-1
 0 448 l 1,3,-1
 64 448 l 1,4,-1
 64 256 l 1,5,-1
 256 256 l 1,6,-1
 256 448 l 1,7,-1
 320 448 l 1,8,-1
 320 192 l 1,9,-1
 192 192 l 1,10,-1
 192 0 l 1,11,-1
 128 0 l 1,0,-1
EndSplineSet
Validated: 1
EndChar

StartChar: Z
Encoding: 90 90 61
Width: 384
Flags: W
HStem: 0 64<64 320> 192 64<64 256> 384 64<0 256>
VStem: 0 64<64 192> 256 64<256 384>
CounterMasks: 1 e0
LayerCount: 2
Fore
SplineSet
64 64 m 1,0,-1
 320 64 l 1,1,-1
 320 0 l 1,2,-1
 0 0 l 1,3,-1
 0 192 l 1,4,-1
 64 192 l 1,5,-1
 64 64 l 1,0,-1
64 256 m 1,6,-1
 256 256 l 1,7,-1
 256 192 l 1,8,-1
 64 192 l 1,9,-1
 64 256 l 1,6,-1
256 256 m 1,10,-1
 256 384 l 1,11,-1
 0 384 l 1,12,-1
 0 448 l 1,13,-1
 320 448 l 1,14,-1
 320 256 l 1,15,-1
 256 256 l 1,10,-1
EndSplineSet
Validated: 5
EndChar

StartChar: bracketleft
Encoding: 91 91 62
Width: 256
Flags: W
HStem: 0 64<64 192> 384 64<64 192>
VStem: 0 192<0 64 384 448> 0 64<64 384>
LayerCount: 2
Fore
SplineSet
64 64 m 1,0,-1
 192 64 l 1,1,-1
 192 0 l 1,2,-1
 0 0 l 1,3,-1
 0 448 l 1,4,-1
 192 448 l 1,5,-1
 192 384 l 1,6,-1
 64 384 l 1,7,-1
 64 64 l 1,0,-1
EndSplineSet
Validated: 1
EndChar

StartChar: backslash
Encoding: 92 92 63
Width: 256
Flags: W
HStem: 0 21G<128 192> 192 64<64 128> 428 20G<0 64>
VStem: 0 64<256 448> 64 64<192 256> 128 64<0 192>
LayerCount: 2
Fore
SplineSet
128 0 m 1,0,-1
 128 192 l 1,1,-1
 192 192 l 1,2,-1
 192 0 l 1,3,-1
 128 0 l 1,0,-1
128 192 m 1,4,-1
 64 192 l 1,5,-1
 64 256 l 1,6,-1
 128 256 l 1,7,-1
 128 192 l 1,4,-1
64 256 m 1,8,-1
 0 256 l 1,9,-1
 0 448 l 1,10,-1
 64 448 l 1,11,-1
 64 256 l 1,8,-1
EndSplineSet
Validated: 5
EndChar

StartChar: bracketright
Encoding: 93 93 64
Width: 256
Flags: W
HStem: 0 64<0 128> 384 64<0 128>
VStem: 0 192<0 64 384 448> 128 64<64 384>
LayerCount: 2
Fore
SplineSet
192 0 m 1,0,-1
 0 0 l 1,1,-1
 0 64 l 1,2,-1
 128 64 l 1,3,-1
 128 384 l 1,4,-1
 0 384 l 1,5,-1
 0 448 l 1,6,-1
 192 448 l 1,7,-1
 192 0 l 1,0,-1
EndSplineSet
Validated: 1
EndChar

StartChar: asciicircum
Encoding: 94 94 65
Width: 384
Flags: W
HStem: 256 64<0 64 256 320> 320 64<64 128 192 256> 384 64<128 192>
VStem: 0 64<256 320> 64 64<320 384> 128 64<384 448> 192 64<320 384> 256 64<256 320>
LayerCount: 2
Fore
SplineSet
256 256 m 1,0,-1
 256 320 l 1,1,-1
 320 320 l 1,2,-1
 320 256 l 1,3,-1
 256 256 l 1,0,-1
0 256 m 1,4,-1
 0 320 l 1,5,-1
 64 320 l 1,6,-1
 64 256 l 1,7,-1
 0 256 l 1,4,-1
256 320 m 1,8,-1
 192 320 l 1,9,-1
 192 384 l 1,10,-1
 256 384 l 1,11,-1
 256 320 l 1,8,-1
64 320 m 1,12,-1
 64 384 l 1,13,-1
 128 384 l 1,14,-1
 128 320 l 1,15,-1
 64 320 l 1,12,-1
192 384 m 1,16,-1
 128 384 l 1,17,-1
 128 448 l 1,18,-1
 192 448 l 1,19,-1
 192 384 l 1,16,-1
EndSplineSet
Validated: 5
EndChar

StartChar: underscore
Encoding: 95 95 66
Width: 384
Flags: W
HStem: -64 64<0 320>
VStem: 0 320<-64 0>
LayerCount: 2
Fore
SplineSet
0 0 m 1,0,-1
 320 0 l 1,1,-1
 320 -64 l 1,2,-1
 0 -64 l 1,3,-1
 0 0 l 1,0,-1
EndSplineSet
Validated: 1
EndChar

StartChar: grave
Encoding: 96 96 67
Width: 128
Flags: W
HStem: 256 192<0 64>
VStem: 0 64<256 448>
LayerCount: 2
Fore
SplineSet
0 256 m 1,0,-1
 0 448 l 1,1,-1
 64 448 l 1,2,-1
 64 256 l 1,3,-1
 0 256 l 1,0,-1
EndSplineSet
Validated: 1
EndChar

StartChar: a
Encoding: 97 97 68
Width: 384
Flags: W
HStem: 0 64<64 256> 128 64<64 256> 256 64<0 256>
VStem: 0 64<64 128> 256 64<64 128 192 256>
CounterMasks: 1 e0
LayerCount: 2
Fore
SplineSet
320 0 m 1,0,-1
 0 0 l 1,1,-1
 0 192 l 1,2,-1
 256 192 l 1,3,-1
 256 256 l 1,4,-1
 0 256 l 1,5,-1
 0 320 l 1,6,-1
 320 320 l 1,7,-1
 320 0 l 1,0,-1
64 64 m 1,8,-1
 256 64 l 1,9,-1
 256 128 l 1,10,-1
 64 128 l 1,11,-1
 64 64 l 1,8,-1
EndSplineSet
Validated: 1
EndChar

StartChar: b
Encoding: 98 98 69
Width: 384
Flags: W
HStem: 0 64<64 256> 256 64<64 256> 428 20G<0 64>
VStem: 0 64<64 256 320 448> 256 64<64 256>
LayerCount: 2
Fore
SplineSet
320 0 m 1,0,-1
 0 0 l 1,1,-1
 0 448 l 1,2,-1
 64 448 l 1,3,-1
 64 320 l 1,4,-1
 320 320 l 1,5,-1
 320 0 l 1,0,-1
64 64 m 1,6,-1
 256 64 l 1,7,-1
 256 256 l 1,8,-1
 64 256 l 1,9,-1
 64 64 l 1,6,-1
EndSplineSet
Validated: 1
EndChar

StartChar: c
Encoding: 99 99 70
Width: 384
Flags: W
HStem: 0 64<64 320> 256 64<64 320>
VStem: 0 64<64 256>
LayerCount: 2
Fore
SplineSet
64 64 m 1,0,-1
 320 64 l 1,1,-1
 320 0 l 1,2,-1
 0 0 l 1,3,-1
 0 320 l 1,4,-1
 320 320 l 1,5,-1
 320 256 l 1,6,-1
 64 256 l 1,7,-1
 64 64 l 1,0,-1
EndSplineSet
Validated: 1
EndChar

StartChar: d
Encoding: 100 100 71
Width: 384
Flags: W
HStem: 0 64<64 256> 256 64<64 256> 428 20G<256 320>
VStem: 0 64<64 256> 256 64<64 256 320 448>
LayerCount: 2
Fore
SplineSet
320 0 m 1,0,-1
 0 0 l 1,1,-1
 0 320 l 1,2,-1
 256 320 l 1,3,-1
 256 448 l 1,4,-1
 320 448 l 1,5,-1
 320 0 l 1,0,-1
64 64 m 1,6,-1
 256 64 l 1,7,-1
 256 256 l 1,8,-1
 64 256 l 1,9,-1
 64 64 l 1,6,-1
EndSplineSet
Validated: 1
EndChar

StartChar: e
Encoding: 101 101 72
Width: 384
Flags: W
HStem: 0 64<64 320> 128 64<64 256> 256 64<64 256>
VStem: 0 64<64 128 192 256> 256 64<192 256>
CounterMasks: 1 e0
LayerCount: 2
Fore
SplineSet
64 64 m 1,0,-1
 320 64 l 1,1,-1
 320 0 l 1,2,-1
 0 0 l 1,3,-1
 0 320 l 1,4,-1
 320 320 l 1,5,-1
 320 128 l 1,6,-1
 64 128 l 1,7,-1
 64 64 l 1,0,-1
64 192 m 1,8,-1
 256 192 l 1,9,-1
 256 256 l 1,10,-1
 64 256 l 1,11,-1
 64 192 l 1,8,-1
EndSplineSet
Validated: 1
EndChar

StartChar: f
Encoding: 102 102 73
Width: 256
Flags: W
HStem: 0 21G<0 64> 192 64<64 192> 384 64<64 192>
VStem: 0 192<192 256 384 448> 0 64<0 192 256 384>
LayerCount: 2
Fore
SplineSet
0 0 m 1,0,-1
 0 448 l 1,1,-1
 192 448 l 1,2,-1
 192 384 l 1,3,-1
 64 384 l 1,4,-1
 64 256 l 1,5,-1
 192 256 l 1,6,-1
 192 192 l 1,7,-1
 64 192 l 1,8,-1
 64 0 l 1,9,-1
 0 0 l 1,0,-1
EndSplineSet
Validated: 1
EndChar

StartChar: g
Encoding: 103 103 74
Width: 384
Flags: W
HStem: -128 64<0 256> 0 64<64 256> 256 64<64 256>
VStem: 0 64<64 256> 256 64<-64 0 64 256>
LayerCount: 2
Fore
SplineSet
320 -128 m 1,0,-1
 0 -128 l 1,1,-1
 0 -64 l 1,2,-1
 256 -64 l 1,3,-1
 256 0 l 1,4,-1
 0 0 l 1,5,-1
 0 320 l 1,6,-1
 320 320 l 1,7,-1
 320 -128 l 1,0,-1
64 64 m 1,8,-1
 256 64 l 1,9,-1
 256 256 l 1,10,-1
 64 256 l 1,11,-1
 64 64 l 1,8,-1
EndSplineSet
Validated: 1
EndChar

StartChar: h
Encoding: 104 104 75
Width: 384
Flags: W
HStem: 0 21G<0 64 256 320> 256 64<64 256> 428 20G<0 64>
VStem: 0 64<0 256 320 448> 256 64<0 256>
LayerCount: 2
Fore
SplineSet
256 0 m 1,0,-1
 256 256 l 1,1,-1
 64 256 l 1,2,-1
 64 0 l 1,3,-1
 0 0 l 1,4,-1
 0 448 l 1,5,-1
 64 448 l 1,6,-1
 64 320 l 1,7,-1
 320 320 l 1,8,-1
 320 0 l 1,9,-1
 256 0 l 1,0,-1
EndSplineSet
Validated: 1
EndChar

StartChar: i
Encoding: 105 105 76
Width: 128
Flags: W
HStem: 0 21G<0 64> 300 20G<0 64> 384 64<0 64>
VStem: 0 64<0 320 384 448>
LayerCount: 2
Fore
SplineSet
0 0 m 1,0,-1
 0 320 l 1,1,-1
 64 320 l 1,2,-1
 64 0 l 1,3,-1
 0 0 l 1,0,-1
0 384 m 1,4,-1
 0 448 l 1,5,-1
 64 448 l 1,6,-1
 64 384 l 1,7,-1
 0 384 l 1,4,-1
EndSplineSet
Validated: 1
EndChar

StartChar: j
Encoding: 106 106 77
Width: 128
Flags: W
HStem: -128 21G<0 64> 300 20G<0 64> 384 64<0 64>
VStem: 0 64<-128 320 384 448>
LayerCount: 2
Fore
SplineSet
0 -128 m 1,0,-1
 0 320 l 1,1,-1
 64 320 l 1,2,-1
 64 -128 l 1,3,-1
 0 -128 l 1,0,-1
0 384 m 1,4,-1
 0 448 l 1,5,-1
 64 448 l 1,6,-1
 64 384 l 1,7,-1
 0 384 l 1,4,-1
EndSplineSet
Validated: 1
EndChar

StartChar: k
Encoding: 107 107 78
Width: 384
Flags: W
HStem: 0 128<256 320> 128 64<64 256> 192 128<256 320> 428 20G<0 64>
VStem: 0 64<0 128 192 448> 256 64<0 128 192 320>
LayerCount: 2
Fore
SplineSet
256 0 m 1,0,-1
 256 128 l 1,1,-1
 320 128 l 1,2,-1
 320 0 l 1,3,-1
 256 0 l 1,0,-1
0 0 m 1,4,-1
 0 448 l 1,5,-1
 64 448 l 1,6,-1
 64 192 l 1,7,-1
 256 192 l 1,8,-1
 256 128 l 1,9,-1
 64 128 l 1,10,-1
 64 0 l 1,11,-1
 0 0 l 1,4,-1
256 192 m 1,12,-1
 256 320 l 1,13,-1
 320 320 l 1,14,-1
 320 192 l 1,15,-1
 256 192 l 1,12,-1
EndSplineSet
Validated: 5
EndChar

StartChar: l
Encoding: 108 108 79
Width: 128
Flags: W
HStem: 0 21G<0 64> 428 20G<0 64>
VStem: 0 64<0 448>
LayerCount: 2
Fore
SplineSet
0 0 m 1,0,-1
 0 448 l 1,1,-1
 64 448 l 1,2,-1
 64 0 l 1,3,-1
 0 0 l 1,0,-1
EndSplineSet
Validated: 1
EndChar

StartChar: m
Encoding: 109 109 80
Width: 512
Flags: W
HStem: 0 21G<0 64 192 256 384 448> 256 64<64 192 256 384>
VStem: 0 64<0 256> 192 64<0 256> 384 64<0 256>
CounterMasks: 1 38
LayerCount: 2
Fore
SplineSet
384 0 m 1,0,-1
 384 256 l 1,1,-1
 256 256 l 1,2,-1
 256 0 l 1,3,-1
 192 0 l 1,4,-1
 192 256 l 1,5,-1
 64 256 l 1,6,-1
 64 0 l 1,7,-1
 0 0 l 1,8,-1
 0 320 l 1,9,-1
 448 320 l 1,10,-1
 448 0 l 1,11,-1
 384 0 l 1,0,-1
EndSplineSet
Validated: 1
EndChar

StartChar: n
Encoding: 110 110 81
Width: 384
Flags: W
HStem: 0 21G<0 64 256 320> 256 64<64 256>
VStem: 0 64<0 256> 256 64<0 256>
LayerCount: 2
Fore
SplineSet
256 0 m 1,0,-1
 256 256 l 1,1,-1
 64 256 l 1,2,-1
 64 0 l 1,3,-1
 0 0 l 1,4,-1
 0 320 l 1,5,-1
 320 320 l 1,6,-1
 320 0 l 1,7,-1
 256 0 l 1,0,-1
EndSplineSet
Validated: 1
EndChar

StartChar: o
Encoding: 111 111 82
Width: 384
Flags: W
HStem: 0 64<64 256> 256 64<64 256>
VStem: 0 64<64 256> 256 64<64 256>
LayerCount: 2
Fore
SplineSet
320 0 m 1,0,-1
 0 0 l 1,1,-1
 0 320 l 1,2,-1
 320 320 l 1,3,-1
 320 0 l 1,0,-1
64 64 m 1,4,-1
 256 64 l 1,5,-1
 256 256 l 1,6,-1
 64 256 l 1,7,-1
 64 64 l 1,4,-1
EndSplineSet
Validated: 1
EndChar

StartChar: p
Encoding: 112 112 83
Width: 384
Flags: W
HStem: -128 21G<0 64> 0 64<64 256> 256 64<64 256>
VStem: 0 64<-128 0 64 256> 256 64<64 256>
LayerCount: 2
Fore
SplineSet
0 -128 m 1,0,-1
 0 320 l 1,1,-1
 320 320 l 1,2,-1
 320 0 l 1,3,-1
 64 0 l 1,4,-1
 64 -128 l 1,5,-1
 0 -128 l 1,0,-1
64 64 m 1,6,-1
 256 64 l 1,7,-1
 256 256 l 1,8,-1
 64 256 l 1,9,-1
 64 64 l 1,6,-1
EndSplineSet
Validated: 1
EndChar

StartChar: q
Encoding: 113 113 84
Width: 384
Flags: W
HStem: -128 21G<256 320> 0 64<64 256> 256 64<64 256>
VStem: 0 64<64 256> 256 64<-128 0 64 256>
LayerCount: 2
Fore
SplineSet
256 -128 m 1,0,-1
 256 0 l 1,1,-1
 0 0 l 1,2,-1
 0 320 l 1,3,-1
 320 320 l 1,4,-1
 320 -128 l 1,5,-1
 256 -128 l 1,0,-1
64 64 m 1,6,-1
 256 64 l 1,7,-1
 256 256 l 1,8,-1
 64 256 l 1,9,-1
 64 64 l 1,6,-1
EndSplineSet
Validated: 1
EndChar

StartChar: r
Encoding: 114 114 85
Width: 256
Flags: W
HStem: 0 21G<0 64> 256 64<64 192>
VStem: 0 64<0 256>
LayerCount: 2
Fore
SplineSet
0 0 m 1,0,-1
 0 320 l 1,1,-1
 192 320 l 1,2,-1
 192 256 l 1,3,-1
 64 256 l 1,4,-1
 64 0 l 1,5,-1
 0 0 l 1,0,-1
EndSplineSet
Validated: 1
EndChar

StartChar: s
Encoding: 115 115 86
Width: 384
Flags: W
HStem: 0 64<0 256> 128 64<64 256> 256 64<64 320>
VStem: 0 64<192 256> 256 64<64 128>
CounterMasks: 1 e0
LayerCount: 2
Fore
SplineSet
320 0 m 1,0,-1
 0 0 l 1,1,-1
 0 64 l 1,2,-1
 256 64 l 1,3,-1
 256 128 l 1,4,-1
 0 128 l 1,5,-1
 0 320 l 1,6,-1
 320 320 l 1,7,-1
 320 256 l 1,8,-1
 64 256 l 1,9,-1
 64 192 l 1,10,-1
 320 192 l 1,11,-1
 320 0 l 1,0,-1
EndSplineSet
Validated: 1
EndChar

StartChar: t
Encoding: 116 116 87
Width: 256
Flags: W
HStem: 0 64<64 192> 256 64<64 192> 428 20G<0 64>
VStem: 0 192<0 64 256 320> 0 64<64 256 320 448>
LayerCount: 2
Fore
SplineSet
64 64 m 1,0,-1
 192 64 l 1,1,-1
 192 0 l 1,2,-1
 0 0 l 1,3,-1
 0 448 l 1,4,-1
 64 448 l 1,5,-1
 64 320 l 1,6,-1
 192 320 l 1,7,-1
 192 256 l 1,8,-1
 64 256 l 1,9,-1
 64 64 l 1,0,-1
EndSplineSet
Validated: 1
EndChar

StartChar: u
Encoding: 117 117 88
Width: 384
Flags: W
HStem: 0 64<64 256> 300 20G<0 64 256 320>
VStem: 0 64<64 320> 256 64<64 320>
LayerCount: 2
Fore
SplineSet
320 0 m 1,0,-1
 0 0 l 1,1,-1
 0 320 l 1,2,-1
 64 320 l 1,3,-1
 64 64 l 1,4,-1
 256 64 l 1,5,-1
 256 320 l 1,6,-1
 320 320 l 1,7,-1
 320 0 l 1,0,-1
EndSplineSet
Validated: 1
EndChar

StartChar: v
Encoding: 118 118 89
Width: 384
Flags: W
HStem: 0 64<128 192> 64 64<64 128 192 256> 128 192<0 64 256 320>
VStem: 0 64<128 320> 64 64<64 128> 128 64<0 64> 192 64<64 128> 256 64<128 320>
LayerCount: 2
Fore
SplineSet
128 0 m 1,0,-1
 128 64 l 1,1,-1
 192 64 l 1,2,-1
 192 0 l 1,3,-1
 128 0 l 1,0,-1
192 64 m 1,4,-1
 192 128 l 1,5,-1
 256 128 l 1,6,-1
 256 64 l 1,7,-1
 192 64 l 1,4,-1
128 64 m 1,8,-1
 64 64 l 1,9,-1
 64 128 l 1,10,-1
 128 128 l 1,11,-1
 128 64 l 1,8,-1
256 128 m 1,12,-1
 256 320 l 1,13,-1
 320 320 l 1,14,-1
 320 128 l 1,15,-1
 256 128 l 1,12,-1
64 128 m 1,16,-1
 0 128 l 1,17,-1
 0 320 l 1,18,-1
 64 320 l 1,19,-1
 64 128 l 1,16,-1
EndSplineSet
Validated: 5
EndChar

StartChar: w
Encoding: 119 119 90
Width: 512
Flags: W
HStem: 0 64<64 192 256 384> 300 20G<0 64 192 256 384 448>
VStem: 0 64<64 320> 192 64<64 320> 384 64<64 320>
CounterMasks: 1 38
LayerCount: 2
Fore
SplineSet
448 0 m 1,0,-1
 0 0 l 1,1,-1
 0 320 l 1,2,-1
 64 320 l 1,3,-1
 64 64 l 1,4,-1
 192 64 l 1,5,-1
 192 320 l 1,6,-1
 256 320 l 1,7,-1
 256 64 l 1,8,-1
 384 64 l 1,9,-1
 384 320 l 1,10,-1
 448 320 l 1,11,-1
 448 0 l 1,0,-1
EndSplineSet
Validated: 1
EndChar

StartChar: x
Encoding: 120 120 91
Width: 384
Flags: W
HStem: 0 128<0 64 256 320> 128 64<64 256> 192 128<0 64 256 320>
VStem: 0 64<0 128 192 320> 256 64<0 128 192 320>
LayerCount: 2
Fore
SplineSet
256 0 m 1,0,-1
 256 128 l 1,1,-1
 320 128 l 1,2,-1
 320 0 l 1,3,-1
 256 0 l 1,0,-1
0 0 m 1,4,-1
 0 128 l 1,5,-1
 64 128 l 1,6,-1
 64 0 l 1,7,-1
 0 0 l 1,4,-1
256 128 m 1,8,-1
 64 128 l 1,9,-1
 64 192 l 1,10,-1
 256 192 l 1,11,-1
 256 128 l 1,8,-1
256 192 m 1,12,-1
 256 320 l 1,13,-1
 320 320 l 1,14,-1
 320 192 l 1,15,-1
 256 192 l 1,12,-1
64 192 m 1,16,-1
 0 192 l 1,17,-1
 0 320 l 1,18,-1
 64 320 l 1,19,-1
 64 192 l 1,16,-1
EndSplineSet
Validated: 5
EndChar

StartChar: y
Encoding: 121 121 92
Width: 384
Flags: W
HStem: -128 21G<128 192> 0 64<64 128 192 256> 300 20G<0 64 256 320>
VStem: 0 64<64 320> 128 64<-128 0> 256 64<64 320>
CounterMasks: 1 1c
LayerCount: 2
Fore
SplineSet
128 -128 m 1,0,-1
 128 0 l 1,1,-1
 0 0 l 1,2,-1
 0 320 l 1,3,-1
 64 320 l 1,4,-1
 64 64 l 1,5,-1
 256 64 l 1,6,-1
 256 320 l 1,7,-1
 320 320 l 1,8,-1
 320 0 l 1,9,-1
 192 0 l 1,10,-1
 192 -128 l 1,11,-1
 128 -128 l 1,0,-1
EndSplineSet
Validated: 1
EndChar

StartChar: z
Encoding: 122 122 93
Width: 384
Flags: W
HStem: 0 128<0 64> 0 64<64 320> 128 64<64 256> 192 128<256 320> 256 64<0 256>
VStem: 0 64<64 128> 256 64<192 256>
LayerCount: 2
Fore
SplineSet
64 64 m 1,0,-1
 320 64 l 1,1,-1
 320 0 l 1,2,-1
 0 0 l 1,3,-1
 0 128 l 1,4,-1
 64 128 l 1,5,-1
 64 64 l 1,0,-1
64 192 m 5,6,-1
 256 192 l 1,7,-1
 256 128 l 1,8,-1
 64 128 l 1,9,-1
 64 192 l 5,6,-1
256 192 m 1,10,-1
 256 256 l 1,11,-1
 0 256 l 1,12,-1
 0 320 l 1,13,-1
 320 320 l 1,14,-1
 320 192 l 1,15,-1
 256 192 l 1,10,-1
EndSplineSet
Validated: 5
EndChar

StartChar: braceleft
Encoding: 123 123 94
Width: 320
Flags: W
HStem: 0 64<128 256> 192 64<0 64> 384 64<128 256>
VStem: 0 64<192 256> 64 192<0 64 384 448> 64 64<64 192 256 384>
CounterMasks: 1 e0
LayerCount: 2
Fore
SplineSet
128 64 m 1,0,-1
 256 64 l 1,1,-1
 256 0 l 1,2,-1
 64 0 l 1,3,-1
 64 192 l 1,4,-1
 128 192 l 1,5,-1
 128 64 l 1,0,-1
64 192 m 1,6,-1
 0 192 l 1,7,-1
 0 256 l 1,8,-1
 64 256 l 1,9,-1
 64 192 l 1,6,-1
64 256 m 1,10,-1
 64 448 l 1,11,-1
 256 448 l 1,12,-1
 256 384 l 1,13,-1
 128 384 l 1,14,-1
 128 256 l 1,15,-1
 64 256 l 1,10,-1
EndSplineSet
Validated: 5
EndChar

StartChar: bar
Encoding: 124 124 95
Width: 128
Flags: W
HStem: 428 20G<0 64>
VStem: 0 64<-192 448>
LayerCount: 2
Fore
SplineSet
0 -192 m 1,0,-1
 0 448 l 1,1,-1
 64 448 l 1,2,-1
 64 -192 l 1,3,-1
 0 -192 l 1,0,-1
EndSplineSet
Validated: 1
EndChar

StartChar: braceright
Encoding: 125 125 96
Width: 320
Flags: W
HStem: 0 64<0 128> 192 64<192 256> 384 64<0 128>
VStem: 0 192<0 64 384 448> 128 64<64 192 256 384> 192 64<192 256>
CounterMasks: 1 e0
LayerCount: 2
Fore
SplineSet
192 0 m 1,0,-1
 0 0 l 1,1,-1
 0 64 l 1,2,-1
 128 64 l 1,3,-1
 128 192 l 1,4,-1
 192 192 l 1,5,-1
 192 0 l 1,0,-1
192 192 m 1,6,-1
 192 256 l 1,7,-1
 256 256 l 1,8,-1
 256 192 l 1,9,-1
 192 192 l 1,6,-1
192 256 m 1,10,-1
 128 256 l 1,11,-1
 128 384 l 1,12,-1
 0 384 l 1,13,-1
 0 448 l 1,14,-1
 192 448 l 1,15,-1
 192 256 l 1,10,-1
EndSplineSet
Validated: 5
EndChar

StartChar: asciitilde
Encoding: 126 126 97
Width: 320
Flags: W
HStem: 320 64<0 64 128 192> 384 64<64 128 192 256>
VStem: 0 64<320 384> 64 64<384 448> 128 64<320 384> 192 64<384 448>
LayerCount: 2
Fore
SplineSet
128 320 m 1,0,-1
 128 384 l 1,1,-1
 192 384 l 1,2,-1
 192 320 l 1,3,-1
 128 320 l 1,0,-1
0 320 m 1,4,-1
 0 384 l 1,5,-1
 64 384 l 1,6,-1
 64 320 l 1,7,-1
 0 320 l 1,4,-1
192 384 m 1,8,-1
 192 448 l 1,9,-1
 256 448 l 1,10,-1
 256 384 l 1,11,-1
 192 384 l 1,8,-1
128 384 m 1,12,-1
 64 384 l 1,13,-1
 64 448 l 1,14,-1
 128 448 l 1,15,-1
 128 384 l 1,12,-1
EndSplineSet
Validated: 5
EndChar

StartChar: exclamdown
Encoding: 161 161 99
Width: 128
Flags: W
HStem: 0 21G<0 64> 300 20G<0 64> 384 64<0 64>
VStem: 0 64<0 320 384 448>
LayerCount: 2
Fore
SplineSet
0 0 m 1,0,-1
 0 320 l 1,1,-1
 64 320 l 1,2,-1
 64 0 l 1,3,-1
 0 0 l 1,0,-1
0 384 m 1,4,-1
 0 448 l 1,5,-1
 64 448 l 1,6,-1
 64 384 l 1,7,-1
 0 384 l 1,4,-1
EndSplineSet
Validated: 1
EndChar

StartChar: cent
Encoding: 162 162 100
Width: 384
Flags: W
HStem: 0 21G<128 192> 64 64<64 128 192 320> 320 64<64 128 192 320> 428 20G<128 192>
VStem: 0 64<128 320> 128 64<0 64 128 320 384 448>
LayerCount: 2
Fore
SplineSet
128 0 m 1,0,-1
 128 64 l 1,1,-1
 0 64 l 1,2,-1
 0 384 l 1,3,-1
 128 384 l 1,4,-1
 128 448 l 1,5,-1
 192 448 l 1,6,-1
 192 384 l 1,7,-1
 320 384 l 1,8,-1
 320 320 l 1,9,-1
 192 320 l 1,10,-1
 192 128 l 1,11,-1
 320 128 l 1,12,-1
 320 64 l 1,13,-1
 192 64 l 1,14,-1
 192 0 l 1,15,-1
 128 0 l 1,0,-1
128 128 m 1,16,-1
 128 320 l 1,17,-1
 64 320 l 1,18,-1
 64 128 l 1,19,-1
 128 128 l 1,16,-1
EndSplineSet
Validated: 1
EndChar

StartChar: sterling
Encoding: 163 163 101
Width: 384
Flags: W
HStem: 0 64<0 64 128 320> 192 64<0 64 128 192> 320 128<256 320> 384 64<128 256>
VStem: 64 64<64 192 256 384> 256 64<320 384>
LayerCount: 2
Fore
SplineSet
256 320 m 1,0,-1
 256 384 l 1,1,-1
 128 384 l 1,2,-1
 128 256 l 1,3,-1
 192 256 l 1,4,-1
 192 192 l 1,5,-1
 128 192 l 1,6,-1
 128 64 l 1,7,-1
 320 64 l 1,8,-1
 320 0 l 1,9,-1
 0 0 l 1,10,-1
 0 64 l 1,11,-1
 64 64 l 1,12,-1
 64 192 l 1,13,-1
 0 192 l 1,14,-1
 0 256 l 1,15,-1
 64 256 l 1,16,-1
 64 448 l 1,17,-1
 320 448 l 1,18,-1
 320 320 l 1,19,-1
 256 320 l 1,0,-1
EndSplineSet
Validated: 1
EndChar

StartChar: currency
Encoding: 164 164 102
Width: 384
Flags: W
HStem: 128 64<0 64 256 320> 192 64<128 192> 320 64<128 192> 384 64<0 64 256 320>
VStem: 0 64<128 192 384 448> 64 64<256 320> 192 64<256 320> 256 64<128 192 384 448>
LayerCount: 2
Fore
SplineSet
256 128 m 1,0,-1
 256 192 l 1,1,-1
 320 192 l 1,2,-1
 320 128 l 1,3,-1
 256 128 l 1,0,-1
0 128 m 1,4,-1
 0 192 l 1,5,-1
 64 192 l 1,6,-1
 64 128 l 1,7,-1
 0 128 l 1,4,-1
256 192 m 1,8,-1
 64 192 l 1,9,-1
 64 384 l 1,10,-1
 256 384 l 1,11,-1
 256 192 l 1,8,-1
192 256 m 1,12,-1
 192 320 l 1,13,-1
 128 320 l 1,14,-1
 128 256 l 1,15,-1
 192 256 l 1,12,-1
256 384 m 1,16,-1
 256 448 l 1,17,-1
 320 448 l 1,18,-1
 320 384 l 1,19,-1
 256 384 l 1,16,-1
64 384 m 1,20,-1
 0 384 l 1,21,-1
 0 448 l 1,22,-1
 64 448 l 1,23,-1
 64 384 l 1,20,-1
EndSplineSet
Validated: 5
EndChar

StartChar: yen
Encoding: 165 165 103
Width: 384
Flags: W
HStem: 0 21G<128 192> 128 64<0 128 192 320> 256 192<0 64 256 320> 256 64<64 128 192 256>
VStem: 0 64<320 448> 128 64<0 128 192 256> 256 64<320 448>
CounterMasks: 1 0e
LayerCount: 2
Fore
SplineSet
128 0 m 1,0,-1
 128 128 l 1,1,-1
 0 128 l 1,2,-1
 0 192 l 1,3,-1
 128 192 l 1,4,-1
 128 256 l 1,5,-1
 0 256 l 1,6,-1
 0 448 l 1,7,-1
 64 448 l 1,8,-1
 64 320 l 1,9,-1
 256 320 l 1,10,-1
 256 448 l 1,11,-1
 320 448 l 1,12,-1
 320 256 l 1,13,-1
 192 256 l 1,14,-1
 192 192 l 1,15,-1
 320 192 l 1,16,-1
 320 128 l 1,17,-1
 192 128 l 1,18,-1
 192 0 l 1,19,-1
 128 0 l 1,0,-1
EndSplineSet
Validated: 1
EndChar

StartChar: brokenbar
Encoding: 166 166 104
Width: 128
Flags: W
HStem: -128 21G<0 64> 428 20G<0 64>
VStem: 0 64<-128 128 192 448>
LayerCount: 2
Fore
SplineSet
0 -128 m 1,0,-1
 0 128 l 1,1,-1
 64 128 l 1,2,-1
 64 -128 l 1,3,-1
 0 -128 l 1,0,-1
0 192 m 1,4,-1
 0 448 l 1,5,-1
 64 448 l 1,6,-1
 64 192 l 1,7,-1
 0 192 l 1,4,-1
EndSplineSet
Validated: 1
EndChar

StartChar: section
Encoding: 167 167 105
Width: 384
Flags: W
HStem: 0 64<0 256> 128 64<64 256> 256 64<64 256> 384 64<64 320>
VStem: 0 64<192 256 320 384> 256 64<64 128 192 256>
LayerCount: 2
Fore
SplineSet
320 0 m 1,0,-1
 0 0 l 1,1,-1
 0 64 l 1,2,-1
 256 64 l 1,3,-1
 256 128 l 1,4,-1
 0 128 l 1,5,-1
 0 448 l 1,6,-1
 320 448 l 1,7,-1
 320 384 l 1,8,-1
 64 384 l 1,9,-1
 64 320 l 1,10,-1
 320 320 l 1,11,-1
 320 0 l 1,0,-1
64 192 m 1,12,-1
 256 192 l 1,13,-1
 256 256 l 1,14,-1
 64 256 l 1,15,-1
 64 192 l 1,12,-1
EndSplineSet
Validated: 1
EndChar

StartChar: dieresis
Encoding: 168 168 106
Width: 256
Flags: W
HStem: 384 64<0 64 128 192>
VStem: 0 64<384 448> 128 64<384 448>
LayerCount: 2
Fore
SplineSet
128 384 m 1,0,-1
 128 448 l 1,1,-1
 192 448 l 1,2,-1
 192 384 l 1,3,-1
 128 384 l 1,0,-1
0 384 m 1,4,-1
 0 448 l 1,5,-1
 64 448 l 1,6,-1
 64 384 l 1,7,-1
 0 384 l 1,4,-1
EndSplineSet
Validated: 1
EndChar

StartChar: copyright
Encoding: 169 169 107
Width: 448
Flags: W
HStem: 0 64<64 384> 128 64<192 320> 256 64<192 320> 384 64<64 384>
VStem: 0 64<64 384> 128 192<128 192 256 320> 128 64<192 256>
LayerCount: 2
Fore
SplineSet
64 64 m 1,0,-1
 384 64 l 1,1,-1
 384 0 l 1,2,-1
 0 0 l 1,3,-1
 0 448 l 1,4,-1
 384 448 l 1,5,-1
 384 384 l 1,6,-1
 64 384 l 1,7,-1
 64 64 l 1,0,-1
192 192 m 1,8,-1
 320 192 l 1,9,-1
 320 128 l 1,10,-1
 128 128 l 1,11,-1
 128 320 l 1,12,-1
 320 320 l 1,13,-1
 320 256 l 1,14,-1
 192 256 l 1,15,-1
 192 192 l 1,8,-1
EndSplineSet
Validated: 1
EndChar

StartChar: ordfeminine
Encoding: 170 170 108
Width: 384
Flags: W
HStem: 128 64<64 256> 256 64<64 256> 384 64<0 256>
VStem: 0 64<192 256> 256 64<192 256 320 384>
CounterMasks: 1 e0
LayerCount: 2
Fore
SplineSet
320 128 m 1,0,-1
 0 128 l 1,1,-1
 0 320 l 1,2,-1
 256 320 l 1,3,-1
 256 384 l 1,4,-1
 0 384 l 1,5,-1
 0 448 l 1,6,-1
 320 448 l 1,7,-1
 320 128 l 1,0,-1
64 192 m 1,8,-1
 256 192 l 1,9,-1
 256 256 l 1,10,-1
 64 256 l 1,11,-1
 64 192 l 1,8,-1
EndSplineSet
Validated: 1
EndChar

StartChar: guillemotleft
Encoding: 171 171 109
Width: 384
Flags: W
HStem: 0 64<128 192 256 320> 64 64<64 128 192 256> 128 64<0 64 128 192> 192 64<64 128 192 256> 256 64<128 192 256 320>
VStem: 0 64<128 192> 64 64<64 128 192 256> 128 64<0 64 128 192 256 320> 192 64<64 128 192 256> 256 64<0 64 256 320>
LayerCount: 2
Fore
SplineSet
256 0 m 1,0,-1
 256 64 l 1,1,-1
 320 64 l 1,2,-1
 320 0 l 1,3,-1
 256 0 l 1,0,-1
128 0 m 1,4,-1
 128 64 l 1,5,-1
 192 64 l 1,6,-1
 192 0 l 1,7,-1
 128 0 l 1,4,-1
256 64 m 1,8,-1
 192 64 l 1,9,-1
 192 128 l 1,10,-1
 256 128 l 1,11,-1
 256 64 l 1,8,-1
128 64 m 1,12,-1
 64 64 l 1,13,-1
 64 128 l 1,14,-1
 128 128 l 1,15,-1
 128 64 l 1,12,-1
192 128 m 1,16,-1
 128 128 l 1,17,-1
 128 192 l 1,18,-1
 192 192 l 1,19,-1
 192 128 l 1,16,-1
64 128 m 1,20,-1
 0 128 l 1,21,-1
 0 192 l 1,22,-1
 64 192 l 1,23,-1
 64 128 l 1,20,-1
192 192 m 1,24,-1
 192 256 l 1,25,-1
 256 256 l 1,26,-1
 256 192 l 1,27,-1
 192 192 l 1,24,-1
128 192 m 1,28,-1
 64 192 l 1,29,-1
 64 256 l 1,30,-1
 128 256 l 1,31,-1
 128 192 l 1,28,-1
256 256 m 1,32,-1
 256 320 l 1,33,-1
 320 320 l 1,34,-1
 320 256 l 1,35,-1
 256 256 l 1,32,-1
192 256 m 1,36,-1
 128 256 l 1,37,-1
 128 320 l 1,38,-1
 192 320 l 1,39,-1
 192 256 l 1,36,-1
EndSplineSet
Validated: 5
EndChar

StartChar: logicalnot
Encoding: 172 172 110
Width: 384
Flags: W
HStem: 64 128<256 320> 128 64<0 256>
VStem: 256 64<64 128>
LayerCount: 2
Fore
SplineSet
256 64 m 1,0,-1
 256 128 l 1,1,-1
 0 128 l 1,2,-1
 0 192 l 1,3,-1
 320 192 l 1,4,-1
 320 64 l 1,5,-1
 256 64 l 1,0,-1
EndSplineSet
Validated: 1
EndChar

StartChar: registered
Encoding: 174 174 111
Width: 448
Flags: W
HStem: 0 64<64 320> 256 64<192 320> 384 64<64 384>
VStem: 0 64<64 384> 128 64<128 256> 320 64<64 192>
LayerCount: 2
Fore
SplineSet
128 128 m 1,0,-1
 128 320 l 1,1,-1
 320 320 l 1,2,-1
 320 256 l 1,3,-1
 192 256 l 1,4,-1
 192 128 l 1,5,-1
 128 128 l 1,0,-1
384 0 m 1,6,-1
 0 0 l 1,7,-1
 0 448 l 1,8,-1
 384 448 l 1,9,-1
 384 384 l 1,10,-1
 64 384 l 1,11,-1
 64 64 l 1,12,-1
 320 64 l 1,13,-1
 320 192 l 1,14,-1
 384 192 l 1,15,-1
 384 0 l 1,6,-1
EndSplineSet
Validated: 1
EndChar

StartChar: macron
Encoding: 175 175 112
Width: 384
Flags: W
HStem: 384 64<0 320>
VStem: 0 320<384 448>
LayerCount: 2
Fore
SplineSet
0 448 m 1,0,-1
 320 448 l 1,1,-1
 320 384 l 1,2,-1
 0 384 l 1,3,-1
 0 448 l 1,0,-1
EndSplineSet
Validated: 1
EndChar

StartChar: degree
Encoding: 176 176 113
Width: 320
Flags: W
HStem: 128 64<64 192> 192 192<0 64 192 256> 384 64<64 192>
VStem: 0 64<192 384> 64 128<128 192 384 448> 192 64<192 384>
LayerCount: 2
Fore
SplineSet
64 192 m 1,0,-1
 192 192 l 1,1,-1
 192 128 l 1,2,-1
 64 128 l 1,3,-1
 64 192 l 1,0,-1
192 192 m 1,4,-1
 192 384 l 1,5,-1
 256 384 l 1,6,-1
 256 192 l 1,7,-1
 192 192 l 1,4,-1
64 192 m 1,8,-1
 0 192 l 1,9,-1
 0 384 l 1,10,-1
 64 384 l 1,11,-1
 64 192 l 1,8,-1
192 384 m 1,12,-1
 64 384 l 1,13,-1
 64 448 l 1,14,-1
 192 448 l 1,15,-1
 192 384 l 1,12,-1
EndSplineSet
Validated: 5
EndChar

StartChar: plusminus
Encoding: 177 177 114
Width: 384
Flags: W
HStem: 0 64<0 320> 256 64<0 128 192 320> 428 20G<128 192>
VStem: 128 64<128 256 320 448>
LayerCount: 2
Fore
SplineSet
128 128 m 1,0,-1
 128 256 l 1,1,-1
 0 256 l 1,2,-1
 0 320 l 1,3,-1
 128 320 l 1,4,-1
 128 448 l 1,5,-1
 192 448 l 1,6,-1
 192 320 l 1,7,-1
 320 320 l 1,8,-1
 320 256 l 1,9,-1
 192 256 l 1,10,-1
 192 128 l 1,11,-1
 128 128 l 1,0,-1
0 64 m 1,12,-1
 320 64 l 1,13,-1
 320 0 l 1,14,-1
 0 0 l 1,15,-1
 0 64 l 1,12,-1
EndSplineSet
Validated: 1
EndChar

StartChar: uni00B2
Encoding: 178 178 115
Width: 320
Flags: W
HStem: 128 64<64 256> 256 64<64 192> 384 64<0 192>
VStem: 0 64<192 256> 192 64<320 384>
CounterMasks: 1 e0
LayerCount: 2
Fore
SplineSet
64 192 m 1,0,-1
 256 192 l 1,1,-1
 256 128 l 1,2,-1
 0 128 l 1,3,-1
 0 320 l 1,4,-1
 192 320 l 1,5,-1
 192 384 l 1,6,-1
 0 384 l 1,7,-1
 0 448 l 1,8,-1
 256 448 l 1,9,-1
 256 256 l 1,10,-1
 64 256 l 1,11,-1
 64 192 l 1,0,-1
EndSplineSet
Validated: 1
EndChar

StartChar: uni00B3
Encoding: 179 179 116
Width: 320
Flags: W
HStem: 128 64<0 192> 256 64<0 192> 384 64<0 192>
VStem: 0 256<128 192 256 320 384 448> 192 64<192 256 320 384>
CounterMasks: 1 e0
LayerCount: 2
Fore
SplineSet
256 128 m 1,0,-1
 0 128 l 1,1,-1
 0 192 l 1,2,-1
 192 192 l 1,3,-1
 192 256 l 1,4,-1
 0 256 l 1,5,-1
 0 320 l 1,6,-1
 192 320 l 1,7,-1
 192 384 l 1,8,-1
 0 384 l 1,9,-1
 0 448 l 1,10,-1
 256 448 l 1,11,-1
 256 128 l 1,0,-1
EndSplineSet
Validated: 1
EndChar

StartChar: acute
Encoding: 180 180 117
Width: 192
Flags: W
HStem: 320 64<0 64> 384 64<64 128>
VStem: 0 64<320 384> 64 64<384 448>
LayerCount: 2
Fore
SplineSet
0 320 m 1,0,-1
 0 384 l 1,1,-1
 64 384 l 1,2,-1
 64 320 l 1,3,-1
 0 320 l 1,0,-1
64 384 m 1,4,-1
 64 448 l 1,5,-1
 128 448 l 1,6,-1
 128 384 l 1,7,-1
 64 384 l 1,4,-1
EndSplineSet
Validated: 5
EndChar

StartChar: uni00B5
Encoding: 181 181 118
Width: 384
Flags: W
HStem: 0 64<64 256> 300 20G<0 64 256 320>
VStem: 0 64<-64 0 64 320> 256 64<64 320>
LayerCount: 2
Fore
SplineSet
0 -64 m 1,0,-1
 0 320 l 1,1,-1
 64 320 l 1,2,-1
 64 64 l 1,3,-1
 256 64 l 1,4,-1
 256 320 l 1,5,-1
 320 320 l 1,6,-1
 320 0 l 1,7,-1
 64 0 l 1,8,-1
 64 -64 l 1,9,-1
 0 -64 l 1,0,-1
EndSplineSet
Validated: 1
EndChar

StartChar: paragraph
Encoding: 182 182 119
Width: 384
Flags: W
HStem: 0 21G<128 192 256 320> 192 64<192 256> 384 64<192 256>
VStem: 0 192<256 384> 128 64<0 192> 256 64<0 192 256 384>
LayerCount: 2
Fore
SplineSet
256 0 m 1,0,-1
 256 192 l 1,1,-1
 192 192 l 1,2,-1
 192 0 l 1,3,-1
 128 0 l 1,4,-1
 128 192 l 1,5,-1
 0 192 l 1,6,-1
 0 448 l 1,7,-1
 320 448 l 1,8,-1
 320 0 l 1,9,-1
 256 0 l 1,0,-1
256 256 m 1,10,-1
 256 384 l 1,11,-1
 192 384 l 1,12,-1
 192 256 l 1,13,-1
 256 256 l 1,10,-1
EndSplineSet
Validated: 1
EndChar

StartChar: periodcentered
Encoding: 183 183 120
Width: 128
Flags: W
HStem: 128 64<0 64>
VStem: 0 64<128 192>
LayerCount: 2
Fore
SplineSet
0 128 m 1,0,-1
 0 192 l 1,1,-1
 64 192 l 1,2,-1
 64 128 l 1,3,-1
 0 128 l 1,0,-1
EndSplineSet
Validated: 1
EndChar

StartChar: cedilla
Encoding: 184 184 121
Width: 320
Flags: W
HStem: -192 64<128 192> -128 64<192 256> -64 64<128 192>
VStem: 128 64<-192 -128 -64 0> 192 64<-128 -64>
LayerCount: 2
Fore
SplineSet
128 -192 m 1,0,-1
 128 -128 l 1,1,-1
 192 -128 l 1,2,-1
 192 -192 l 1,3,-1
 128 -192 l 1,0,-1
192 -128 m 1,4,-1
 192 -64 l 1,5,-1
 256 -64 l 1,6,-1
 256 -128 l 1,7,-1
 192 -128 l 1,4,-1
192 -64 m 1,8,-1
 128 -64 l 1,9,-1
 128 0 l 1,10,-1
 192 0 l 1,11,-1
 192 -64 l 1,8,-1
EndSplineSet
Validated: 5
EndChar

StartChar: uni00B9
Encoding: 185 185 122
Width: 192
Flags: W
HStem: 384 64<0 64>
VStem: 0 128<384 448> 64 64<128 384>
LayerCount: 2
Fore
SplineSet
64 128 m 1,0,-1
 64 384 l 1,1,-1
 0 384 l 1,2,-1
 0 448 l 1,3,-1
 128 448 l 1,4,-1
 128 128 l 1,5,-1
 64 128 l 1,0,-1
EndSplineSet
Validated: 1
EndChar

StartChar: ordmasculine
Encoding: 186 186 123
Width: 384
Flags: W
HStem: 128 64<64 256> 384 64<64 256>
VStem: 0 64<192 384> 256 64<192 384>
LayerCount: 2
Fore
SplineSet
320 128 m 1,0,-1
 0 128 l 1,1,-1
 0 448 l 1,2,-1
 320 448 l 1,3,-1
 320 128 l 1,0,-1
64 192 m 1,4,-1
 256 192 l 1,5,-1
 256 384 l 1,6,-1
 64 384 l 1,7,-1
 64 192 l 1,4,-1
EndSplineSet
Validated: 1
EndChar

StartChar: guillemotright
Encoding: 187 187 124
Width: 384
Flags: W
HStem: 0 64<0 64 128 192> 64 64<64 128 192 256> 128 64<128 192 256 320> 192 64<64 128 192 256> 256 64<0 64 128 192>
VStem: 0 64<0 64 256 320> 64 64<64 128 192 256> 128 64<0 64 128 192 256 320> 192 64<64 128 192 256> 256 64<128 192>
LayerCount: 2
Fore
SplineSet
128 0 m 1,0,-1
 128 64 l 1,1,-1
 192 64 l 1,2,-1
 192 0 l 1,3,-1
 128 0 l 1,0,-1
0 0 m 1,4,-1
 0 64 l 1,5,-1
 64 64 l 1,6,-1
 64 0 l 1,7,-1
 0 0 l 1,4,-1
192 64 m 1,8,-1
 192 128 l 1,9,-1
 256 128 l 1,10,-1
 256 64 l 1,11,-1
 192 64 l 1,8,-1
128 64 m 1,12,-1
 64 64 l 1,13,-1
 64 128 l 1,14,-1
 128 128 l 1,15,-1
 128 64 l 1,12,-1
256 128 m 1,16,-1
 256 192 l 1,17,-1
 320 192 l 1,18,-1
 320 128 l 1,19,-1
 256 128 l 1,16,-1
192 128 m 1,20,-1
 128 128 l 1,21,-1
 128 192 l 1,22,-1
 192 192 l 1,23,-1
 192 128 l 1,20,-1
256 192 m 1,24,-1
 192 192 l 1,25,-1
 192 256 l 1,26,-1
 256 256 l 1,27,-1
 256 192 l 1,24,-1
128 192 m 1,28,-1
 64 192 l 1,29,-1
 64 256 l 1,30,-1
 128 256 l 1,31,-1
 128 192 l 1,28,-1
192 256 m 1,32,-1
 128 256 l 1,33,-1
 128 320 l 1,34,-1
 192 320 l 1,35,-1
 192 256 l 1,32,-1
64 256 m 1,36,-1
 0 256 l 1,37,-1
 0 320 l 1,38,-1
 64 320 l 1,39,-1
 64 256 l 1,36,-1
EndSplineSet
Validated: 5
EndChar

StartChar: onequarter
Encoding: 188 188 125
Width: 576
Flags: W
HStem: 0 21G<64 128 192 256 448 512> 128 64<384 448> 256 64<0 64>
VStem: 0 128<256 320> 64 64<0 256> 192 64<0 320> 320 64<192 320> 448 64<0 128 192 320>
LayerCount: 2
Fore
SplineSet
448 0 m 1,0,-1
 448 128 l 1,1,-1
 320 128 l 1,2,-1
 320 320 l 1,3,-1
 384 320 l 1,4,-1
 384 192 l 1,5,-1
 448 192 l 1,6,-1
 448 320 l 1,7,-1
 512 320 l 1,8,-1
 512 0 l 1,9,-1
 448 0 l 1,0,-1
192 0 m 1,10,-1
 192 320 l 1,11,-1
 256 320 l 1,12,-1
 256 0 l 1,13,-1
 192 0 l 1,10,-1
64 0 m 1,14,-1
 64 256 l 1,15,-1
 0 256 l 1,16,-1
 0 320 l 1,17,-1
 128 320 l 1,18,-1
 128 0 l 1,19,-1
 64 0 l 1,14,-1
EndSplineSet
Validated: 1
EndChar

StartChar: onehalf
Encoding: 189 189 126
Width: 576
Flags: W
HStem: 0 64<384 512> 128 64<384 448> 256 64<0 64 320 448>
VStem: 0 128<256 320> 64 64<0 256> 192 64<0 320> 320 64<64 128> 448 64<192 256>
CounterMasks: 1 e0
LayerCount: 2
Fore
SplineSet
192 0 m 1,0,-1
 192 320 l 1,1,-1
 256 320 l 1,2,-1
 256 0 l 1,3,-1
 192 0 l 1,0,-1
64 0 m 1,4,-1
 64 256 l 1,5,-1
 0 256 l 1,6,-1
 0 320 l 1,7,-1
 128 320 l 1,8,-1
 128 0 l 1,9,-1
 64 0 l 1,4,-1
384 64 m 1,10,-1
 512 64 l 1,11,-1
 512 0 l 1,12,-1
 320 0 l 1,13,-1
 320 192 l 1,14,-1
 448 192 l 1,15,-1
 448 256 l 1,16,-1
 320 256 l 1,17,-1
 320 320 l 1,18,-1
 512 320 l 1,19,-1
 512 128 l 1,20,-1
 384 128 l 1,21,-1
 384 64 l 1,10,-1
EndSplineSet
Validated: 1
EndChar

StartChar: threequarters
Encoding: 190 190 127
Width: 640
Flags: W
HStem: 0 64<0 128> 128 64<0 128 448 512> 256 64<0 128>
VStem: 0 192<0 64 128 192 256 320> 128 64<64 128 192 256> 256 64<0 320> 384 64<192 320> 512 64<0 128 192 320>
CounterMasks: 1 e0
LayerCount: 2
Fore
SplineSet
512 0 m 1,0,-1
 512 128 l 1,1,-1
 384 128 l 1,2,-1
 384 320 l 1,3,-1
 448 320 l 1,4,-1
 448 192 l 1,5,-1
 512 192 l 1,6,-1
 512 320 l 1,7,-1
 576 320 l 1,8,-1
 576 0 l 1,9,-1
 512 0 l 1,0,-1
256 0 m 1,10,-1
 256 320 l 1,11,-1
 320 320 l 1,12,-1
 320 0 l 1,13,-1
 256 0 l 1,10,-1
192 0 m 1,14,-1
 0 0 l 1,15,-1
 0 64 l 1,16,-1
 128 64 l 1,17,-1
 128 128 l 1,18,-1
 0 128 l 1,19,-1
 0 192 l 1,20,-1
 128 192 l 1,21,-1
 128 256 l 1,22,-1
 0 256 l 1,23,-1
 0 320 l 1,24,-1
 192 320 l 1,25,-1
 192 0 l 1,14,-1
EndSplineSet
Validated: 1
EndChar

StartChar: questiondown
Encoding: 191 191 128
Width: 384
Flags: W
HStem: 0 64<64 320> 192 128<128 192> 192 64<64 128> 384 64<128 192>
VStem: 0 64<64 192> 128 64<256 320 384 448>
LayerCount: 2
Fore
SplineSet
128 384 m 1,0,-1
 128 448 l 1,1,-1
 192 448 l 1,2,-1
 192 384 l 1,3,-1
 128 384 l 1,0,-1
64 64 m 1,4,-1
 320 64 l 1,5,-1
 320 0 l 1,6,-1
 0 0 l 1,7,-1
 0 256 l 1,8,-1
 128 256 l 1,9,-1
 128 320 l 1,10,-1
 192 320 l 1,11,-1
 192 192 l 1,12,-1
 64 192 l 1,13,-1
 64 64 l 1,4,-1
EndSplineSet
Validated: 1
EndChar

StartChar: Agrave
Encoding: 192 192 129
Width: 384
Flags: W
HStem: 0 21G<0 64 256 320> 192 64<64 256> 384 64<64 256> 512 64<128 192> 576 64<64 128>
VStem: 0 64<0 192 256 384> 64 64<576 640> 128 64<512 576> 256 64<0 192 256 384>
LayerCount: 2
Fore
SplineSet
256 0 m 1,0,-1
 256 192 l 1,1,-1
 64 192 l 1,2,-1
 64 0 l 1,3,-1
 0 0 l 1,4,-1
 0 448 l 1,5,-1
 320 448 l 1,6,-1
 320 0 l 1,7,-1
 256 0 l 1,0,-1
128 512 m 1,8,-1
 128 576 l 1,9,-1
 192 576 l 1,10,-1
 192 512 l 1,11,-1
 128 512 l 1,8,-1
64 256 m 1,12,-1
 256 256 l 1,13,-1
 256 384 l 1,14,-1
 64 384 l 1,15,-1
 64 256 l 1,12,-1
128 576 m 1,16,-1
 64 576 l 1,17,-1
 64 640 l 1,18,-1
 128 640 l 1,19,-1
 128 576 l 1,16,-1
EndSplineSet
Validated: 5
EndChar

StartChar: Aacute
Encoding: 193 193 130
Width: 384
Flags: W
HStem: 0 21G<0 64 256 320> 192 64<64 256> 384 64<64 256> 512 64<128 192> 576 64<192 256>
VStem: 0 64<0 192 256 384> 128 64<512 576> 192 64<576 640> 256 64<0 192 256 384>
LayerCount: 2
Fore
SplineSet
256 0 m 1,0,-1
 256 192 l 1,1,-1
 64 192 l 1,2,-1
 64 0 l 1,3,-1
 0 0 l 1,4,-1
 0 448 l 1,5,-1
 320 448 l 1,6,-1
 320 0 l 1,7,-1
 256 0 l 1,0,-1
128 512 m 1,8,-1
 128 576 l 1,9,-1
 192 576 l 1,10,-1
 192 512 l 1,11,-1
 128 512 l 1,8,-1
64 256 m 1,12,-1
 256 256 l 1,13,-1
 256 384 l 1,14,-1
 64 384 l 1,15,-1
 64 256 l 1,12,-1
192 576 m 1,16,-1
 192 640 l 1,17,-1
 256 640 l 1,18,-1
 256 576 l 1,19,-1
 192 576 l 1,16,-1
EndSplineSet
Validated: 5
EndChar

StartChar: Acircumflex
Encoding: 194 194 131
Width: 384
Flags: W
HStem: 0 21G<0 64 256 320> 192 64<64 256> 384 64<64 256> 512 64<64 128 192 256> 576 64<128 192>
VStem: 0 64<0 192 256 384> 64 64<512 576> 128 64<576 640> 192 64<512 576> 256 64<0 192 256 384>
LayerCount: 2
Fore
SplineSet
256 0 m 1,0,-1
 256 192 l 1,1,-1
 64 192 l 1,2,-1
 64 0 l 1,3,-1
 0 0 l 1,4,-1
 0 448 l 1,5,-1
 320 448 l 1,6,-1
 320 0 l 1,7,-1
 256 0 l 1,0,-1
192 512 m 1,8,-1
 192 576 l 1,9,-1
 256 576 l 1,10,-1
 256 512 l 1,11,-1
 192 512 l 1,8,-1
64 512 m 1,12,-1
 64 576 l 1,13,-1
 128 576 l 1,14,-1
 128 512 l 1,15,-1
 64 512 l 1,12,-1
64 256 m 1,16,-1
 256 256 l 1,17,-1
 256 384 l 1,18,-1
 64 384 l 1,19,-1
 64 256 l 1,16,-1
192 576 m 1,20,-1
 128 576 l 1,21,-1
 128 640 l 1,22,-1
 192 640 l 1,23,-1
 192 576 l 1,20,-1
EndSplineSet
Validated: 5
EndChar

StartChar: Atilde
Encoding: 195 195 132
Width: 384
Flags: W
HStem: 0 21G<0 64 256 320> 192 64<64 256> 384 64<64 256> 512 64<64 128 192 256> 576 64<128 192 256 320>
VStem: 0 64<0 192 256 384> 64 64<512 576> 128 64<576 640> 192 64<512 576> 256 64<0 192 256 384 576 640>
LayerCount: 2
Fore
SplineSet
256 0 m 1,0,-1
 256 192 l 1,1,-1
 64 192 l 1,2,-1
 64 0 l 1,3,-1
 0 0 l 1,4,-1
 0 448 l 1,5,-1
 320 448 l 1,6,-1
 320 0 l 1,7,-1
 256 0 l 1,0,-1
192 512 m 1,8,-1
 192 576 l 1,9,-1
 256 576 l 1,10,-1
 256 512 l 1,11,-1
 192 512 l 1,8,-1
64 512 m 1,12,-1
 64 576 l 1,13,-1
 128 576 l 1,14,-1
 128 512 l 1,15,-1
 64 512 l 1,12,-1
64 256 m 1,16,-1
 256 256 l 1,17,-1
 256 384 l 1,18,-1
 64 384 l 1,19,-1
 64 256 l 1,16,-1
256 576 m 1,20,-1
 256 640 l 1,21,-1
 320 640 l 1,22,-1
 320 576 l 1,23,-1
 256 576 l 1,20,-1
192 576 m 1,24,-1
 128 576 l 1,25,-1
 128 640 l 1,26,-1
 192 640 l 1,27,-1
 192 576 l 1,24,-1
EndSplineSet
Validated: 5
EndChar

StartChar: Adieresis
Encoding: 196 196 133
Width: 384
Flags: W
HStem: 0 21G<0 64 256 320> 192 64<64 256> 384 64<64 256> 512 64<64 128 192 256>
VStem: 0 64<0 192 256 384> 64 64<512 576> 192 64<512 576> 256 64<0 192 256 384>
LayerCount: 2
Fore
SplineSet
256 0 m 1,0,-1
 256 192 l 1,1,-1
 64 192 l 1,2,-1
 64 0 l 1,3,-1
 0 0 l 1,4,-1
 0 448 l 1,5,-1
 320 448 l 1,6,-1
 320 0 l 1,7,-1
 256 0 l 1,0,-1
192 512 m 1,8,-1
 192 576 l 1,9,-1
 256 576 l 1,10,-1
 256 512 l 1,11,-1
 192 512 l 1,8,-1
64 512 m 1,12,-1
 64 576 l 1,13,-1
 128 576 l 1,14,-1
 128 512 l 1,15,-1
 64 512 l 1,12,-1
64 256 m 1,16,-1
 256 256 l 1,17,-1
 256 384 l 1,18,-1
 64 384 l 1,19,-1
 64 256 l 1,16,-1
EndSplineSet
Validated: 1
EndChar

StartChar: Aring
Encoding: 197 197 134
Width: 384
Flags: W
HStem: 0 21G<0 64 256 320> 192 64<64 256> 384 64<128 192> 512 64<128 192>
VStem: 0 64<0 192 256 384> 64 64<448 512> 192 64<448 512> 256 64<0 192 256 384>
LayerCount: 2
Fore
SplineSet
256 0 m 1,0,-1
 256 192 l 1,1,-1
 64 192 l 1,2,-1
 64 0 l 1,3,-1
 0 0 l 1,4,-1
 0 448 l 1,5,-1
 64 448 l 1,6,-1
 64 576 l 1,7,-1
 256 576 l 1,8,-1
 256 448 l 1,9,-1
 320 448 l 1,10,-1
 320 0 l 1,11,-1
 256 0 l 1,0,-1
64 256 m 1,12,-1
 256 256 l 1,13,-1
 256 384 l 1,14,-1
 64 384 l 1,15,-1
 64 256 l 1,12,-1
192 448 m 1,16,-1
 192 512 l 1,17,-1
 128 512 l 1,18,-1
 128 448 l 1,19,-1
 192 448 l 1,16,-1
EndSplineSet
Validated: 1
EndChar

StartChar: AE
Encoding: 198 198 135
Width: 512
Flags: W
HStem: 0 64<256 448> 192 64<64 192 256 448> 384 64<64 192 256 448>
VStem: 0 64<0 192 256 384> 192 64<64 192 256 384>
CounterMasks: 1 e0
LayerCount: 2
Fore
SplineSet
0 0 m 1,0,-1
 0 448 l 1,1,-1
 448 448 l 1,2,-1
 448 384 l 1,3,-1
 256 384 l 1,4,-1
 256 256 l 1,5,-1
 448 256 l 1,6,-1
 448 192 l 1,7,-1
 256 192 l 1,8,-1
 256 64 l 1,9,-1
 448 64 l 1,10,-1
 448 0 l 1,11,-1
 192 0 l 1,12,-1
 192 192 l 1,13,-1
 64 192 l 1,14,-1
 64 0 l 1,15,-1
 0 0 l 1,0,-1
64 256 m 1,16,-1
 192 256 l 1,17,-1
 192 384 l 1,18,-1
 64 384 l 1,19,-1
 64 256 l 1,16,-1
EndSplineSet
Validated: 1
EndChar

StartChar: Ccedilla
Encoding: 199 199 136
Width: 384
Flags: W
HStem: -128 64<64 128> -64 128<128 192> 0 64<64 128 192 320> 384 64<64 320>
VStem: 0 64<64 384> 64 64<-128 -64>
LayerCount: 2
Fore
SplineSet
64 -128 m 1,0,-1
 64 -64 l 1,1,-1
 128 -64 l 1,2,-1
 128 -128 l 1,3,-1
 64 -128 l 1,0,-1
128 -64 m 1,4,-1
 128 0 l 1,5,-1
 0 0 l 1,6,-1
 0 448 l 1,7,-1
 320 448 l 1,8,-1
 320 384 l 1,9,-1
 64 384 l 1,10,-1
 64 64 l 1,11,-1
 320 64 l 1,12,-1
 320 0 l 1,13,-1
 192 0 l 1,14,-1
 192 -64 l 1,15,-1
 128 -64 l 1,4,-1
EndSplineSet
Validated: 5
EndChar

StartChar: Egrave
Encoding: 200 200 137
Width: 384
Flags: W
HStem: 0 64<64 320> 192 64<64 256> 384 64<64 320> 512 64<128 192> 576 64<64 128>
VStem: 0 64<64 192 256 384> 64 64<576 640> 128 64<512 576>
LayerCount: 2
Fore
SplineSet
128 512 m 1,0,-1
 128 576 l 1,1,-1
 192 576 l 1,2,-1
 192 512 l 1,3,-1
 128 512 l 1,0,-1
64 64 m 1,4,-1
 320 64 l 1,5,-1
 320 0 l 1,6,-1
 0 0 l 1,7,-1
 0 448 l 1,8,-1
 320 448 l 1,9,-1
 320 384 l 1,10,-1
 64 384 l 1,11,-1
 64 256 l 1,12,-1
 256 256 l 1,13,-1
 256 192 l 1,14,-1
 64 192 l 1,15,-1
 64 64 l 1,4,-1
128 576 m 1,16,-1
 64 576 l 1,17,-1
 64 640 l 1,18,-1
 128 640 l 1,19,-1
 128 576 l 1,16,-1
EndSplineSet
Validated: 5
EndChar

StartChar: Eacute
Encoding: 201 201 138
Width: 384
Flags: W
HStem: 0 64<64 320> 192 64<64 256> 384 64<64 320> 512 64<128 192> 576 64<192 256>
VStem: 0 64<64 192 256 384> 128 64<512 576> 192 64<576 640>
LayerCount: 2
Fore
SplineSet
128 512 m 1,0,-1
 128 576 l 1,1,-1
 192 576 l 1,2,-1
 192 512 l 1,3,-1
 128 512 l 1,0,-1
64 64 m 1,4,-1
 320 64 l 1,5,-1
 320 0 l 1,6,-1
 0 0 l 1,7,-1
 0 448 l 1,8,-1
 320 448 l 1,9,-1
 320 384 l 1,10,-1
 64 384 l 1,11,-1
 64 256 l 1,12,-1
 256 256 l 1,13,-1
 256 192 l 1,14,-1
 64 192 l 1,15,-1
 64 64 l 1,4,-1
192 576 m 1,16,-1
 192 640 l 1,17,-1
 256 640 l 1,18,-1
 256 576 l 1,19,-1
 192 576 l 1,16,-1
EndSplineSet
Validated: 5
EndChar

StartChar: Ecircumflex
Encoding: 202 202 139
Width: 384
Flags: W
HStem: 0 64<64 320> 192 64<64 256> 384 64<64 320> 512 64<64 128 192 256> 576 64<128 192>
VStem: 0 64<64 192 256 384> 64 64<512 576> 128 64<576 640> 192 64<512 576>
LayerCount: 2
Fore
SplineSet
192 512 m 1,0,-1
 192 576 l 1,1,-1
 256 576 l 1,2,-1
 256 512 l 1,3,-1
 192 512 l 1,0,-1
64 512 m 1,4,-1
 64 576 l 1,5,-1
 128 576 l 1,6,-1
 128 512 l 1,7,-1
 64 512 l 1,4,-1
64 64 m 1,8,-1
 320 64 l 1,9,-1
 320 0 l 1,10,-1
 0 0 l 1,11,-1
 0 448 l 1,12,-1
 320 448 l 1,13,-1
 320 384 l 1,14,-1
 64 384 l 1,15,-1
 64 256 l 1,16,-1
 256 256 l 1,17,-1
 256 192 l 1,18,-1
 64 192 l 1,19,-1
 64 64 l 1,8,-1
192 576 m 1,20,-1
 128 576 l 1,21,-1
 128 640 l 1,22,-1
 192 640 l 1,23,-1
 192 576 l 1,20,-1
EndSplineSet
Validated: 5
EndChar

StartChar: Edieresis
Encoding: 203 203 140
Width: 384
Flags: W
HStem: 0 64<64 320> 192 64<64 256> 384 64<64 320> 512 64<64 128 192 256>
VStem: 0 64<64 192 256 384> 64 64<512 576> 192 64<512 576>
LayerCount: 2
Fore
SplineSet
192 512 m 1,0,-1
 192 576 l 1,1,-1
 256 576 l 1,2,-1
 256 512 l 1,3,-1
 192 512 l 1,0,-1
64 512 m 1,4,-1
 64 576 l 1,5,-1
 128 576 l 1,6,-1
 128 512 l 1,7,-1
 64 512 l 1,4,-1
64 64 m 1,8,-1
 320 64 l 1,9,-1
 320 0 l 1,10,-1
 0 0 l 1,11,-1
 0 448 l 1,12,-1
 320 448 l 1,13,-1
 320 384 l 1,14,-1
 64 384 l 1,15,-1
 64 256 l 1,16,-1
 256 256 l 1,17,-1
 256 192 l 1,18,-1
 64 192 l 1,19,-1
 64 64 l 1,8,-1
EndSplineSet
Validated: 1
EndChar

StartChar: Igrave
Encoding: 204 204 141
Width: 128
Flags: W
HStem: 0 21G<0 64> 428 20G<0 64> 512 64<0 64> 576 64<-64 0>
VStem: -64 64<576 640> 0 64<0 448 512 576>
LayerCount: 2
Fore
SplineSet
0 0 m 1,0,-1
 0 448 l 1,1,-1
 64 448 l 1,2,-1
 64 0 l 1,3,-1
 0 0 l 1,0,-1
0 512 m 1,4,-1
 0 576 l 1,5,-1
 64 576 l 1,6,-1
 64 512 l 1,7,-1
 0 512 l 1,4,-1
0 576 m 1,8,-1
 -64 576 l 1,9,-1
 -64 640 l 1,10,-1
 0 640 l 1,11,-1
 0 576 l 1,8,-1
EndSplineSet
Validated: 5
EndChar

StartChar: Iacute
Encoding: 205 205 142
Width: 192
Flags: W
HStem: 0 21G<0 64> 428 20G<0 64> 512 64<0 64> 576 64<64 128>
VStem: 0 64<0 448 512 576> 64 64<576 640>
LayerCount: 2
Fore
SplineSet
0 0 m 1,0,-1
 0 448 l 1,1,-1
 64 448 l 1,2,-1
 64 0 l 1,3,-1
 0 0 l 1,0,-1
0 512 m 1,4,-1
 0 576 l 1,5,-1
 64 576 l 1,6,-1
 64 512 l 1,7,-1
 0 512 l 1,4,-1
64 576 m 1,8,-1
 64 640 l 1,9,-1
 128 640 l 1,10,-1
 128 576 l 1,11,-1
 64 576 l 1,8,-1
EndSplineSet
Validated: 5
EndChar

StartChar: Icircumflex
Encoding: 206 206 143
Width: 192
Flags: W
HStem: 0 21G<0 64> 428 20G<0 64> 512 64<-64 0 64 128> 576 64<0 64>
VStem: -64 64<512 576> 0 64<0 448 576 640> 64 64<512 576>
LayerCount: 2
Fore
SplineSet
0 0 m 1,0,-1
 0 448 l 1,1,-1
 64 448 l 1,2,-1
 64 0 l 1,3,-1
 0 0 l 1,0,-1
64 512 m 1,4,-1
 64 576 l 1,5,-1
 128 576 l 1,6,-1
 128 512 l 1,7,-1
 64 512 l 1,4,-1
-64 512 m 1,8,-1
 -64 576 l 1,9,-1
 0 576 l 1,10,-1
 0 512 l 1,11,-1
 -64 512 l 1,8,-1
64 576 m 1,12,-1
 0 576 l 1,13,-1
 0 640 l 1,14,-1
 64 640 l 1,15,-1
 64 576 l 1,12,-1
EndSplineSet
Validated: 5
EndChar

StartChar: Idieresis
Encoding: 207 207 144
Width: 192
Flags: W
HStem: 0 21G<0 64> 428 20G<0 64> 512 64<-64 0 64 128>
VStem: -64 64<512 576> 0 64<0 448> 64 64<512 576>
LayerCount: 2
Fore
SplineSet
0 0 m 1,0,-1
 0 448 l 1,1,-1
 64 448 l 1,2,-1
 64 0 l 1,3,-1
 0 0 l 1,0,-1
64 512 m 1,4,-1
 64 576 l 1,5,-1
 128 576 l 1,6,-1
 128 512 l 1,7,-1
 64 512 l 1,4,-1
-64 512 m 1,8,-1
 -64 576 l 1,9,-1
 0 576 l 1,10,-1
 0 512 l 1,11,-1
 -64 512 l 1,8,-1
EndSplineSet
Validated: 1
EndChar

StartChar: Eth
Encoding: 208 208 145
Width: 448
Flags: W
HStem: 0 64<128 320> 192 64<0 64 128 192> 384 64<128 320>
VStem: 64 64<64 192 256 384> 320 64<64 384>
CounterMasks: 1 e0
LayerCount: 2
Fore
SplineSet
128 64 m 1,0,-1
 320 64 l 1,1,-1
 320 384 l 1,2,-1
 128 384 l 1,3,-1
 128 256 l 1,4,-1
 192 256 l 1,5,-1
 192 192 l 1,6,-1
 128 192 l 1,7,-1
 128 64 l 1,0,-1
320 0 m 1,8,-1
 64 0 l 1,9,-1
 64 192 l 1,10,-1
 0 192 l 1,11,-1
 0 256 l 1,12,-1
 64 256 l 1,13,-1
 64 448 l 1,14,-1
 320 448 l 1,15,-1
 320 384 l 1,16,-1
 384 384 l 1,17,-1
 384 64 l 1,18,-1
 320 64 l 1,19,-1
 320 0 l 1,8,-1
EndSplineSet
Validated: 5
EndChar

StartChar: Ntilde
Encoding: 209 209 146
Width: 384
Flags: W
HStem: 0 21G<0 64 256 320> 384 64<64 256> 512 64<64 128 192 256> 576 64<128 192 256 320>
VStem: 0 64<0 384> 64 64<512 576> 128 64<576 640> 192 64<512 576> 256 64<0 384 576 640>
LayerCount: 2
Fore
SplineSet
256 0 m 1,0,-1
 256 384 l 1,1,-1
 64 384 l 1,2,-1
 64 0 l 1,3,-1
 0 0 l 1,4,-1
 0 448 l 1,5,-1
 320 448 l 1,6,-1
 320 0 l 1,7,-1
 256 0 l 1,0,-1
192 512 m 1,8,-1
 192 576 l 1,9,-1
 256 576 l 1,10,-1
 256 512 l 1,11,-1
 192 512 l 1,8,-1
64 512 m 1,12,-1
 64 576 l 1,13,-1
 128 576 l 1,14,-1
 128 512 l 1,15,-1
 64 512 l 1,12,-1
256 576 m 1,16,-1
 256 640 l 1,17,-1
 320 640 l 1,18,-1
 320 576 l 1,19,-1
 256 576 l 1,16,-1
192 576 m 1,20,-1
 128 576 l 1,21,-1
 128 640 l 1,22,-1
 192 640 l 1,23,-1
 192 576 l 1,20,-1
EndSplineSet
Validated: 5
EndChar

StartChar: Ograve
Encoding: 210 210 147
Width: 384
Flags: W
HStem: 0 64<64 256> 384 64<64 256> 512 64<128 192> 576 64<64 128>
VStem: 0 64<64 384> 64 64<576 640> 128 64<512 576> 256 64<64 384>
LayerCount: 2
Fore
SplineSet
128 512 m 1,0,-1
 128 576 l 1,1,-1
 192 576 l 1,2,-1
 192 512 l 1,3,-1
 128 512 l 1,0,-1
320 0 m 1,4,-1
 0 0 l 1,5,-1
 0 448 l 1,6,-1
 320 448 l 1,7,-1
 320 0 l 1,4,-1
64 64 m 1,8,-1
 256 64 l 1,9,-1
 256 384 l 1,10,-1
 64 384 l 1,11,-1
 64 64 l 1,8,-1
128 576 m 1,12,-1
 64 576 l 1,13,-1
 64 640 l 1,14,-1
 128 640 l 1,15,-1
 128 576 l 1,12,-1
EndSplineSet
Validated: 5
EndChar

StartChar: Oacute
Encoding: 211 211 148
Width: 384
Flags: W
HStem: 0 64<64 256> 384 64<64 256> 512 64<128 192> 576 64<192 256>
VStem: 0 64<64 384> 128 64<512 576> 192 64<576 640> 256 64<64 384>
LayerCount: 2
Fore
SplineSet
128 512 m 1,0,-1
 128 576 l 1,1,-1
 192 576 l 1,2,-1
 192 512 l 1,3,-1
 128 512 l 1,0,-1
320 0 m 1,4,-1
 0 0 l 1,5,-1
 0 448 l 1,6,-1
 320 448 l 1,7,-1
 320 0 l 1,4,-1
64 64 m 1,8,-1
 256 64 l 1,9,-1
 256 384 l 1,10,-1
 64 384 l 1,11,-1
 64 64 l 1,8,-1
192 576 m 1,12,-1
 192 640 l 1,13,-1
 256 640 l 1,14,-1
 256 576 l 1,15,-1
 192 576 l 1,12,-1
EndSplineSet
Validated: 5
EndChar

StartChar: Ocircumflex
Encoding: 212 212 149
Width: 384
Flags: W
HStem: 0 64<64 256> 384 64<64 256> 512 64<64 128 192 256> 576 64<128 192>
VStem: 0 64<64 384> 64 64<512 576> 128 64<576 640> 192 64<512 576> 256 64<64 384>
LayerCount: 2
Fore
SplineSet
192 512 m 1,0,-1
 192 576 l 1,1,-1
 256 576 l 1,2,-1
 256 512 l 1,3,-1
 192 512 l 1,0,-1
64 512 m 1,4,-1
 64 576 l 1,5,-1
 128 576 l 1,6,-1
 128 512 l 1,7,-1
 64 512 l 1,4,-1
320 0 m 1,8,-1
 0 0 l 1,9,-1
 0 448 l 1,10,-1
 320 448 l 1,11,-1
 320 0 l 1,8,-1
64 64 m 1,12,-1
 256 64 l 1,13,-1
 256 384 l 1,14,-1
 64 384 l 1,15,-1
 64 64 l 1,12,-1
192 576 m 1,16,-1
 128 576 l 1,17,-1
 128 640 l 1,18,-1
 192 640 l 1,19,-1
 192 576 l 1,16,-1
EndSplineSet
Validated: 5
EndChar

StartChar: Otilde
Encoding: 213 213 150
Width: 384
Flags: W
HStem: 0 64<64 256> 384 64<64 256> 512 64<64 128 192 256> 576 64<128 192 256 320>
VStem: 0 64<64 384> 64 64<512 576> 128 64<576 640> 192 64<512 576> 256 64<64 384 576 640>
LayerCount: 2
Fore
SplineSet
192 512 m 1,0,-1
 192 576 l 1,1,-1
 256 576 l 1,2,-1
 256 512 l 1,3,-1
 192 512 l 1,0,-1
64 512 m 1,4,-1
 64 576 l 1,5,-1
 128 576 l 1,6,-1
 128 512 l 1,7,-1
 64 512 l 1,4,-1
320 0 m 1,8,-1
 0 0 l 1,9,-1
 0 448 l 1,10,-1
 320 448 l 1,11,-1
 320 0 l 1,8,-1
64 64 m 1,12,-1
 256 64 l 1,13,-1
 256 384 l 1,14,-1
 64 384 l 1,15,-1
 64 64 l 1,12,-1
256 576 m 1,16,-1
 256 640 l 1,17,-1
 320 640 l 1,18,-1
 320 576 l 1,19,-1
 256 576 l 1,16,-1
192 576 m 1,20,-1
 128 576 l 1,21,-1
 128 640 l 1,22,-1
 192 640 l 1,23,-1
 192 576 l 1,20,-1
EndSplineSet
Validated: 5
EndChar

StartChar: Odieresis
Encoding: 214 214 151
Width: 384
Flags: W
HStem: 0 64<64 256> 384 64<64 256> 512 64<64 128 192 256>
VStem: 0 64<64 384> 64 64<512 576> 192 64<512 576> 256 64<64 384>
LayerCount: 2
Fore
SplineSet
192 512 m 1,0,-1
 192 576 l 1,1,-1
 256 576 l 1,2,-1
 256 512 l 1,3,-1
 192 512 l 1,0,-1
64 512 m 1,4,-1
 64 576 l 1,5,-1
 128 576 l 1,6,-1
 128 512 l 1,7,-1
 64 512 l 1,4,-1
320 0 m 1,8,-1
 0 0 l 1,9,-1
 0 448 l 1,10,-1
 320 448 l 1,11,-1
 320 0 l 1,8,-1
64 64 m 1,12,-1
 256 64 l 1,13,-1
 256 384 l 1,14,-1
 64 384 l 1,15,-1
 64 64 l 1,12,-1
EndSplineSet
Validated: 1
EndChar

StartChar: multiply
Encoding: 215 215 152
Width: 384
Flags: W
HStem: 128 64<0 64 256 320> 192 64<64 128 192 256> 256 64<128 192> 320 64<64 128 192 256> 384 64<0 64 256 320>
VStem: 0 64<128 192 384 448> 64 64<192 256 320 384> 128 64<256 320> 192 64<192 256 320 384> 256 64<128 192 384 448>
LayerCount: 2
Fore
SplineSet
256 128 m 1,0,-1
 256 192 l 1,1,-1
 320 192 l 1,2,-1
 320 128 l 1,3,-1
 256 128 l 1,0,-1
0 128 m 1,4,-1
 0 192 l 1,5,-1
 64 192 l 1,6,-1
 64 128 l 1,7,-1
 0 128 l 1,4,-1
256 192 m 1,8,-1
 192 192 l 1,9,-1
 192 256 l 1,10,-1
 256 256 l 1,11,-1
 256 192 l 1,8,-1
64 192 m 1,12,-1
 64 256 l 1,13,-1
 128 256 l 1,14,-1
 128 192 l 1,15,-1
 64 192 l 1,12,-1
192 256 m 1,16,-1
 128 256 l 1,17,-1
 128 320 l 1,18,-1
 192 320 l 1,19,-1
 192 256 l 1,16,-1
192 320 m 1,20,-1
 192 384 l 1,21,-1
 256 384 l 1,22,-1
 256 320 l 1,23,-1
 192 320 l 1,20,-1
128 320 m 1,24,-1
 64 320 l 1,25,-1
 64 384 l 1,26,-1
 128 384 l 1,27,-1
 128 320 l 1,24,-1
256 384 m 1,28,-1
 256 448 l 1,29,-1
 320 448 l 1,30,-1
 320 384 l 1,31,-1
 256 384 l 1,28,-1
64 384 m 1,32,-1
 0 384 l 1,33,-1
 0 448 l 1,34,-1
 64 448 l 1,35,-1
 64 384 l 1,32,-1
EndSplineSet
Validated: 5
EndChar

StartChar: Oslash
Encoding: 216 216 153
Width: 512
Flags: W
HStem: 0 64<0 64 128 320> 192 64<192 256> 256 64<256 320> 384 64<128 320 384 448>
VStem: 64 128<128 192> 64 64<64 128 192 384> 192 64<192 256> 256 128<256 320> 320 64<64 256 320 384>
LayerCount: 2
Fore
SplineSet
384 0 m 1,0,-1
 0 0 l 1,1,-1
 0 64 l 1,2,-1
 64 64 l 1,3,-1
 64 448 l 1,4,-1
 448 448 l 1,5,-1
 448 384 l 1,6,-1
 384 384 l 1,7,-1
 384 0 l 1,0,-1
128 64 m 1,8,-1
 320 64 l 1,9,-1
 320 256 l 1,10,-1
 256 256 l 1,11,-1
 256 192 l 1,12,-1
 192 192 l 1,13,-1
 192 256 l 1,14,-1
 256 256 l 1,15,-1
 256 320 l 1,16,-1
 320 320 l 1,17,-1
 320 384 l 1,18,-1
 128 384 l 1,19,-1
 128 192 l 1,20,-1
 192 192 l 1,21,-1
 192 128 l 1,22,-1
 128 128 l 1,23,-1
 128 64 l 1,8,-1
EndSplineSet
Validated: 5
EndChar

StartChar: Ugrave
Encoding: 217 217 154
Width: 384
Flags: W
HStem: 0 64<64 256> 428 20G<0 64 256 320> 512 64<128 192> 576 64<64 128>
VStem: 0 64<64 448> 64 64<576 640> 128 64<512 576> 256 64<64 448>
LayerCount: 2
Fore
SplineSet
128 512 m 1,0,-1
 128 576 l 1,1,-1
 192 576 l 1,2,-1
 192 512 l 1,3,-1
 128 512 l 1,0,-1
320 0 m 1,4,-1
 0 0 l 1,5,-1
 0 448 l 1,6,-1
 64 448 l 1,7,-1
 64 64 l 1,8,-1
 256 64 l 1,9,-1
 256 448 l 1,10,-1
 320 448 l 1,11,-1
 320 0 l 1,4,-1
128 576 m 1,12,-1
 64 576 l 1,13,-1
 64 640 l 1,14,-1
 128 640 l 1,15,-1
 128 576 l 1,12,-1
EndSplineSet
Validated: 5
EndChar

StartChar: Uacute
Encoding: 218 218 155
Width: 384
Flags: W
HStem: 0 64<64 256> 428 20G<0 64 256 320> 512 64<128 192> 576 64<192 256>
VStem: 0 64<64 448> 128 64<512 576> 192 64<576 640> 256 64<64 448>
LayerCount: 2
Fore
SplineSet
128 512 m 1,0,-1
 128 576 l 1,1,-1
 192 576 l 1,2,-1
 192 512 l 1,3,-1
 128 512 l 1,0,-1
320 0 m 1,4,-1
 0 0 l 1,5,-1
 0 448 l 1,6,-1
 64 448 l 1,7,-1
 64 64 l 1,8,-1
 256 64 l 1,9,-1
 256 448 l 1,10,-1
 320 448 l 1,11,-1
 320 0 l 1,4,-1
192 576 m 1,12,-1
 192 640 l 1,13,-1
 256 640 l 1,14,-1
 256 576 l 1,15,-1
 192 576 l 1,12,-1
EndSplineSet
Validated: 5
EndChar

StartChar: Ucircumflex
Encoding: 219 219 156
Width: 384
Flags: W
HStem: 0 64<64 256> 428 20G<0 64 256 320> 512 64<64 128 192 256> 576 64<128 192>
VStem: 0 64<64 448> 64 64<512 576> 128 64<576 640> 192 64<512 576> 256 64<64 448>
LayerCount: 2
Fore
SplineSet
192 512 m 1,0,-1
 192 576 l 1,1,-1
 256 576 l 1,2,-1
 256 512 l 1,3,-1
 192 512 l 1,0,-1
64 512 m 1,4,-1
 64 576 l 1,5,-1
 128 576 l 1,6,-1
 128 512 l 1,7,-1
 64 512 l 1,4,-1
320 0 m 1,8,-1
 0 0 l 1,9,-1
 0 448 l 1,10,-1
 64 448 l 1,11,-1
 64 64 l 1,12,-1
 256 64 l 1,13,-1
 256 448 l 1,14,-1
 320 448 l 1,15,-1
 320 0 l 1,8,-1
192 576 m 1,16,-1
 128 576 l 1,17,-1
 128 640 l 1,18,-1
 192 640 l 1,19,-1
 192 576 l 1,16,-1
EndSplineSet
Validated: 5
EndChar

StartChar: Udieresis
Encoding: 220 220 157
Width: 384
Flags: W
HStem: 0 64<64 256> 428 20G<0 64 256 320> 512 64<64 128 192 256>
VStem: 0 64<64 448> 64 64<512 576> 192 64<512 576> 256 64<64 448>
LayerCount: 2
Fore
SplineSet
192 512 m 1,0,-1
 192 576 l 1,1,-1
 256 576 l 1,2,-1
 256 512 l 1,3,-1
 192 512 l 1,0,-1
64 512 m 1,4,-1
 64 576 l 1,5,-1
 128 576 l 1,6,-1
 128 512 l 1,7,-1
 64 512 l 1,4,-1
320 0 m 1,8,-1
 0 0 l 1,9,-1
 0 448 l 1,10,-1
 64 448 l 1,11,-1
 64 64 l 1,12,-1
 256 64 l 1,13,-1
 256 448 l 1,14,-1
 320 448 l 1,15,-1
 320 0 l 1,8,-1
EndSplineSet
Validated: 1
EndChar

StartChar: Yacute
Encoding: 221 221 158
Width: 384
Flags: W
HStem: 0 21G<128 192> 192 64<64 128 192 256> 428 20G<0 64 256 320> 512 64<128 192> 576 64<192 256>
VStem: 0 64<256 448> 128 64<0 192 512 576> 192 64<576 640> 256 64<256 448>
LayerCount: 2
Fore
SplineSet
128 0 m 1,0,-1
 128 192 l 1,1,-1
 0 192 l 1,2,-1
 0 448 l 1,3,-1
 64 448 l 1,4,-1
 64 256 l 1,5,-1
 256 256 l 1,6,-1
 256 448 l 1,7,-1
 320 448 l 1,8,-1
 320 192 l 1,9,-1
 192 192 l 1,10,-1
 192 0 l 1,11,-1
 128 0 l 1,0,-1
128 512 m 1,12,-1
 128 576 l 1,13,-1
 192 576 l 1,14,-1
 192 512 l 1,15,-1
 128 512 l 1,12,-1
192 576 m 1,16,-1
 192 640 l 1,17,-1
 256 640 l 1,18,-1
 256 576 l 1,19,-1
 192 576 l 1,16,-1
EndSplineSet
Validated: 5
EndChar

StartChar: Thorn
Encoding: 222 222 159
Width: 384
Flags: W
HStem: 0 21G<0 64> 64 64<64 256> 320 64<64 256> 428 20G<0 64>
VStem: 0 64<0 64 128 320 384 448> 256 64<128 320>
LayerCount: 2
Fore
SplineSet
0 0 m 1,0,-1
 0 448 l 1,1,-1
 64 448 l 1,2,-1
 64 384 l 1,3,-1
 256 384 l 1,4,-1
 256 320 l 1,5,-1
 320 320 l 1,6,-1
 320 128 l 1,7,-1
 256 128 l 1,8,-1
 256 320 l 1,9,-1
 64 320 l 1,10,-1
 64 128 l 1,11,-1
 256 128 l 1,12,-1
 256 64 l 1,13,-1
 64 64 l 1,14,-1
 64 0 l 1,15,-1
 0 0 l 1,0,-1
EndSplineSet
Validated: 5
EndChar

StartChar: germandbls
Encoding: 223 223 160
Width: 384
Flags: W
HStem: 0 64<128 256> 192 64<64 256> 384 64<64 256>
VStem: 0 64<-64 192 256 384> 256 64<64 192 256 384>
CounterMasks: 1 e0
LayerCount: 2
Fore
SplineSet
0 -64 m 1,0,-1
 0 448 l 1,1,-1
 320 448 l 1,2,-1
 320 256 l 1,3,-1
 256 256 l 1,4,-1
 256 384 l 1,5,-1
 64 384 l 1,6,-1
 64 256 l 1,7,-1
 256 256 l 1,8,-1
 256 192 l 1,9,-1
 320 192 l 1,10,-1
 320 0 l 1,11,-1
 128 0 l 1,12,-1
 128 64 l 1,13,-1
 256 64 l 1,14,-1
 256 192 l 1,15,-1
 64 192 l 1,16,-1
 64 -64 l 1,17,-1
 0 -64 l 1,0,-1
EndSplineSet
Validated: 5
EndChar

StartChar: agrave
Encoding: 224 224 161
Width: 384
Flags: W
HStem: 0 64<64 256> 128 64<64 256> 256 64<0 256> 384 64<128 192> 448 64<64 128>
VStem: 0 64<64 128> 64 64<448 512> 128 64<384 448> 256 64<64 128 192 256>
LayerCount: 2
Fore
SplineSet
128 384 m 1,0,-1
 128 448 l 1,1,-1
 192 448 l 1,2,-1
 192 384 l 1,3,-1
 128 384 l 1,0,-1
320 0 m 1,4,-1
 0 0 l 1,5,-1
 0 192 l 1,6,-1
 256 192 l 1,7,-1
 256 256 l 1,8,-1
 0 256 l 1,9,-1
 0 320 l 1,10,-1
 320 320 l 1,11,-1
 320 0 l 1,4,-1
64 64 m 1,12,-1
 256 64 l 1,13,-1
 256 128 l 1,14,-1
 64 128 l 1,15,-1
 64 64 l 1,12,-1
128 448 m 1,16,-1
 64 448 l 1,17,-1
 64 512 l 1,18,-1
 128 512 l 1,19,-1
 128 448 l 1,16,-1
EndSplineSet
Validated: 5
EndChar

StartChar: aacute
Encoding: 225 225 162
Width: 384
Flags: W
HStem: 0 64<64 256> 128 64<64 256> 256 64<0 256> 384 64<128 192> 448 64<192 256>
VStem: 0 64<64 128> 128 64<384 448> 192 64<448 512> 256 64<64 128 192 256>
LayerCount: 2
Fore
SplineSet
128 384 m 1,0,-1
 128 448 l 1,1,-1
 192 448 l 1,2,-1
 192 384 l 1,3,-1
 128 384 l 1,0,-1
320 0 m 1,4,-1
 0 0 l 1,5,-1
 0 192 l 1,6,-1
 256 192 l 1,7,-1
 256 256 l 1,8,-1
 0 256 l 1,9,-1
 0 320 l 1,10,-1
 320 320 l 1,11,-1
 320 0 l 1,4,-1
64 64 m 1,12,-1
 256 64 l 1,13,-1
 256 128 l 1,14,-1
 64 128 l 1,15,-1
 64 64 l 1,12,-1
192 448 m 1,16,-1
 192 512 l 1,17,-1
 256 512 l 1,18,-1
 256 448 l 1,19,-1
 192 448 l 1,16,-1
EndSplineSet
Validated: 5
EndChar

StartChar: acircumflex
Encoding: 226 226 163
Width: 384
Flags: W
HStem: 0 64<64 256> 128 64<64 256> 256 64<0 256> 384 64<64 128 192 256> 448 64<128 192>
VStem: 0 64<64 128> 64 64<384 448> 128 64<448 512> 192 64<384 448> 256 64<64 128 192 256>
LayerCount: 2
Fore
SplineSet
192 384 m 1,0,-1
 192 448 l 1,1,-1
 256 448 l 1,2,-1
 256 384 l 1,3,-1
 192 384 l 1,0,-1
64 384 m 1,4,-1
 64 448 l 1,5,-1
 128 448 l 1,6,-1
 128 384 l 1,7,-1
 64 384 l 1,4,-1
320 0 m 1,8,-1
 0 0 l 1,9,-1
 0 192 l 1,10,-1
 256 192 l 1,11,-1
 256 256 l 1,12,-1
 0 256 l 1,13,-1
 0 320 l 1,14,-1
 320 320 l 1,15,-1
 320 0 l 1,8,-1
64 64 m 1,16,-1
 256 64 l 1,17,-1
 256 128 l 1,18,-1
 64 128 l 1,19,-1
 64 64 l 1,16,-1
192 448 m 1,20,-1
 128 448 l 1,21,-1
 128 512 l 1,22,-1
 192 512 l 1,23,-1
 192 448 l 1,20,-1
EndSplineSet
Validated: 5
EndChar

StartChar: atilde
Encoding: 227 227 164
Width: 384
Flags: W
HStem: 0 64<64 256> 128 64<64 256> 256 64<0 256> 384 64<64 128 192 256> 448 64<128 192 256 320>
VStem: 0 64<64 128> 64 64<384 448> 128 64<448 512> 192 64<384 448> 256 64<64 128 192 256 448 512>
LayerCount: 2
Fore
SplineSet
192 384 m 1,0,-1
 192 448 l 1,1,-1
 256 448 l 1,2,-1
 256 384 l 1,3,-1
 192 384 l 1,0,-1
64 384 m 1,4,-1
 64 448 l 1,5,-1
 128 448 l 1,6,-1
 128 384 l 1,7,-1
 64 384 l 1,4,-1
320 0 m 1,8,-1
 0 0 l 1,9,-1
 0 192 l 1,10,-1
 256 192 l 1,11,-1
 256 256 l 1,12,-1
 0 256 l 1,13,-1
 0 320 l 1,14,-1
 320 320 l 1,15,-1
 320 0 l 1,8,-1
64 64 m 1,16,-1
 256 64 l 1,17,-1
 256 128 l 1,18,-1
 64 128 l 1,19,-1
 64 64 l 1,16,-1
256 448 m 1,20,-1
 256 512 l 1,21,-1
 320 512 l 1,22,-1
 320 448 l 1,23,-1
 256 448 l 1,20,-1
192 448 m 1,24,-1
 128 448 l 1,25,-1
 128 512 l 1,26,-1
 192 512 l 1,27,-1
 192 448 l 1,24,-1
EndSplineSet
Validated: 5
EndChar

StartChar: adieresis
Encoding: 228 228 165
Width: 384
Flags: W
HStem: 0 64<64 256> 128 64<64 256> 256 64<0 256> 384 64<64 128 192 256>
VStem: 0 64<64 128> 64 64<384 448> 192 64<384 448> 256 64<64 128 192 256>
LayerCount: 2
Fore
SplineSet
192 384 m 5,0,-1
 192 448 l 5,1,-1
 256 448 l 5,2,-1
 256 384 l 5,3,-1
 192 384 l 5,0,-1
64 384 m 5,4,-1
 64 448 l 5,5,-1
 128 448 l 5,6,-1
 128 384 l 5,7,-1
 64 384 l 5,4,-1
320 0 m 1,8,-1
 0 0 l 1,9,-1
 0 192 l 1,10,-1
 256 192 l 1,11,-1
 256 256 l 1,12,-1
 0 256 l 1,13,-1
 0 320 l 1,14,-1
 320 320 l 1,15,-1
 320 0 l 1,8,-1
64 64 m 1,16,-1
 256 64 l 1,17,-1
 256 128 l 1,18,-1
 64 128 l 1,19,-1
 64 64 l 1,16,-1
EndSplineSet
Validated: 1
EndChar

StartChar: aring
Encoding: 229 229 166
Width: 384
Flags: W
HStem: 0 64<64 256> 128 64<64 256> 256 64<0 256> 384 64<128 192> 448 64<64 128 192 256> 512 64<128 192>
VStem: 0 64<64 128> 64 64<448 512> 128 64<384 448 512 576> 192 64<448 512> 256 64<64 128 192 256>
LayerCount: 2
Fore
SplineSet
128 384 m 1,0,-1
 128 448 l 1,1,-1
 192 448 l 1,2,-1
 192 384 l 1,3,-1
 128 384 l 1,0,-1
320 0 m 1,4,-1
 0 0 l 1,5,-1
 0 192 l 1,6,-1
 256 192 l 1,7,-1
 256 256 l 1,8,-1
 0 256 l 1,9,-1
 0 320 l 1,10,-1
 320 320 l 1,11,-1
 320 0 l 1,4,-1
64 64 m 1,12,-1
 256 64 l 1,13,-1
 256 128 l 1,14,-1
 64 128 l 1,15,-1
 64 64 l 1,12,-1
192 448 m 1,16,-1
 192 512 l 1,17,-1
 256 512 l 1,18,-1
 256 448 l 1,19,-1
 192 448 l 1,16,-1
128 448 m 1,20,-1
 64 448 l 1,21,-1
 64 512 l 1,22,-1
 128 512 l 1,23,-1
 128 448 l 1,20,-1
192 512 m 1,24,-1
 128 512 l 1,25,-1
 128 576 l 1,26,-1
 192 576 l 1,27,-1
 192 512 l 1,24,-1
EndSplineSet
Validated: 5
EndChar

StartChar: ae
Encoding: 230 230 167
Width: 512
Flags: W
HStem: 0 64<64 192 256 448> 128 64<64 192 256 384> 256 64<0 192 256 384>
VStem: 0 64<64 128> 192 64<64 128 192 256> 384 64<192 256>
CounterMasks: 1 fc
LayerCount: 2
Fore
SplineSet
256 64 m 1,0,-1
 448 64 l 1,1,-1
 448 0 l 1,2,-1
 0 0 l 1,3,-1
 0 192 l 1,4,-1
 192 192 l 1,5,-1
 192 256 l 1,6,-1
 0 256 l 1,7,-1
 0 320 l 1,8,-1
 448 320 l 1,9,-1
 448 128 l 1,10,-1
 256 128 l 1,11,-1
 256 64 l 1,0,-1
64 64 m 1,12,-1
 192 64 l 1,13,-1
 192 128 l 1,14,-1
 64 128 l 1,15,-1
 64 64 l 1,12,-1
256 192 m 1,16,-1
 384 192 l 1,17,-1
 384 256 l 1,18,-1
 256 256 l 1,19,-1
 256 192 l 1,16,-1
EndSplineSet
Validated: 1
EndChar

StartChar: ccedilla
Encoding: 231 231 168
Width: 384
Flags: W
HStem: -128 64<64 128> -64 128<128 192> 0 64<64 128 192 320> 256 64<64 320>
VStem: 0 64<64 256> 64 64<-128 -64>
LayerCount: 2
Fore
SplineSet
64 -128 m 1,0,-1
 64 -64 l 1,1,-1
 128 -64 l 1,2,-1
 128 -128 l 1,3,-1
 64 -128 l 1,0,-1
128 -64 m 1,4,-1
 128 0 l 1,5,-1
 0 0 l 1,6,-1
 0 320 l 1,7,-1
 320 320 l 1,8,-1
 320 256 l 1,9,-1
 64 256 l 1,10,-1
 64 64 l 1,11,-1
 320 64 l 1,12,-1
 320 0 l 1,13,-1
 192 0 l 1,14,-1
 192 -64 l 1,15,-1
 128 -64 l 1,4,-1
EndSplineSet
Validated: 5
EndChar

StartChar: egrave
Encoding: 232 232 169
Width: 384
Flags: W
HStem: 0 64<64 320> 128 64<64 256> 256 64<64 256> 384 64<128 192> 448 64<64 128>
VStem: 0 64<64 128 192 256> 64 64<448 512> 128 64<384 448> 256 64<192 256>
LayerCount: 2
Fore
SplineSet
128 384 m 1,0,-1
 128 448 l 1,1,-1
 192 448 l 1,2,-1
 192 384 l 1,3,-1
 128 384 l 1,0,-1
64 64 m 1,4,-1
 320 64 l 1,5,-1
 320 0 l 1,6,-1
 0 0 l 1,7,-1
 0 320 l 1,8,-1
 320 320 l 1,9,-1
 320 128 l 1,10,-1
 64 128 l 1,11,-1
 64 64 l 1,4,-1
64 192 m 1,12,-1
 256 192 l 1,13,-1
 256 256 l 1,14,-1
 64 256 l 1,15,-1
 64 192 l 1,12,-1
128 448 m 1,16,-1
 64 448 l 1,17,-1
 64 512 l 1,18,-1
 128 512 l 1,19,-1
 128 448 l 1,16,-1
EndSplineSet
Validated: 5
EndChar

StartChar: eacute
Encoding: 233 233 170
Width: 384
Flags: W
HStem: 0 64<64 320> 128 64<64 256> 256 64<64 256> 384 64<128 192> 448 64<192 256>
VStem: 0 64<64 128 192 256> 128 64<384 448> 192 64<448 512> 256 64<192 256>
LayerCount: 2
Fore
SplineSet
128 384 m 1,0,-1
 128 448 l 1,1,-1
 192 448 l 1,2,-1
 192 384 l 1,3,-1
 128 384 l 1,0,-1
64 64 m 1,4,-1
 320 64 l 1,5,-1
 320 0 l 1,6,-1
 0 0 l 1,7,-1
 0 320 l 1,8,-1
 320 320 l 1,9,-1
 320 128 l 1,10,-1
 64 128 l 1,11,-1
 64 64 l 1,4,-1
64 192 m 1,12,-1
 256 192 l 1,13,-1
 256 256 l 1,14,-1
 64 256 l 1,15,-1
 64 192 l 1,12,-1
192 448 m 1,16,-1
 192 512 l 1,17,-1
 256 512 l 1,18,-1
 256 448 l 1,19,-1
 192 448 l 1,16,-1
EndSplineSet
Validated: 5
EndChar

StartChar: ecircumflex
Encoding: 234 234 171
Width: 384
Flags: W
HStem: 0 64<64 320> 128 64<64 256> 256 64<64 256> 384 64<64 128 192 256> 448 64<128 192>
VStem: 0 64<64 128 192 256> 64 64<384 448> 128 64<448 512> 192 64<384 448> 256 64<192 256>
LayerCount: 2
Fore
SplineSet
192 384 m 1,0,-1
 192 448 l 1,1,-1
 256 448 l 1,2,-1
 256 384 l 1,3,-1
 192 384 l 1,0,-1
64 384 m 1,4,-1
 64 448 l 1,5,-1
 128 448 l 1,6,-1
 128 384 l 1,7,-1
 64 384 l 1,4,-1
64 64 m 1,8,-1
 320 64 l 1,9,-1
 320 0 l 1,10,-1
 0 0 l 1,11,-1
 0 320 l 1,12,-1
 320 320 l 1,13,-1
 320 128 l 1,14,-1
 64 128 l 1,15,-1
 64 64 l 1,8,-1
64 192 m 1,16,-1
 256 192 l 1,17,-1
 256 256 l 1,18,-1
 64 256 l 1,19,-1
 64 192 l 1,16,-1
192 448 m 1,20,-1
 128 448 l 1,21,-1
 128 512 l 1,22,-1
 192 512 l 1,23,-1
 192 448 l 1,20,-1
EndSplineSet
Validated: 5
EndChar

StartChar: edieresis
Encoding: 235 235 172
Width: 384
Flags: W
HStem: 0 64<64 320> 128 64<64 256> 256 64<64 256> 384 64<64 128 192 256>
VStem: 0 64<64 128 192 256> 64 64<384 448> 192 64<384 448> 256 64<192 256>
LayerCount: 2
Fore
SplineSet
192 384 m 1,0,-1
 192 448 l 1,1,-1
 256 448 l 1,2,-1
 256 384 l 1,3,-1
 192 384 l 1,0,-1
64 384 m 1,4,-1
 64 448 l 1,5,-1
 128 448 l 1,6,-1
 128 384 l 1,7,-1
 64 384 l 1,4,-1
64 64 m 1,8,-1
 320 64 l 1,9,-1
 320 0 l 1,10,-1
 0 0 l 1,11,-1
 0 320 l 1,12,-1
 320 320 l 1,13,-1
 320 128 l 1,14,-1
 64 128 l 1,15,-1
 64 64 l 1,8,-1
64 192 m 1,16,-1
 256 192 l 1,17,-1
 256 256 l 1,18,-1
 64 256 l 1,19,-1
 64 192 l 1,16,-1
EndSplineSet
Validated: 1
EndChar

StartChar: igrave
Encoding: 236 236 173
Width: 192
Flags: W
HStem: 0 21G<64 128> 300 20G<64 128> 384 64<64 128> 448 64<0 64>
VStem: 0 64<448 512> 64 64<0 320 384 448>
LayerCount: 2
Fore
SplineSet
64 0 m 1,0,-1
 64 320 l 1,1,-1
 128 320 l 1,2,-1
 128 0 l 1,3,-1
 64 0 l 1,0,-1
64 384 m 1,4,-1
 64 448 l 1,5,-1
 128 448 l 1,6,-1
 128 384 l 1,7,-1
 64 384 l 1,4,-1
64 448 m 1,8,-1
 0 448 l 1,9,-1
 0 512 l 1,10,-1
 64 512 l 1,11,-1
 64 448 l 1,8,-1
EndSplineSet
Validated: 5
EndChar

StartChar: iacute
Encoding: 237 237 174
Width: 192
Flags: W
HStem: 0 21G<0 64> 300 20G<0 64> 384 64<0 64> 448 64<64 128>
VStem: 0 64<0 320 384 448> 64 64<448 512>
LayerCount: 2
Fore
SplineSet
0 0 m 1,0,-1
 0 320 l 1,1,-1
 64 320 l 1,2,-1
 64 0 l 1,3,-1
 0 0 l 1,0,-1
0 384 m 1,4,-1
 0 448 l 1,5,-1
 64 448 l 1,6,-1
 64 384 l 1,7,-1
 0 384 l 1,4,-1
64 448 m 1,8,-1
 64 512 l 1,9,-1
 128 512 l 1,10,-1
 128 448 l 1,11,-1
 64 448 l 1,8,-1
EndSplineSet
Validated: 5
EndChar

StartChar: icircumflex
Encoding: 238 238 175
Width: 256
Flags: W
HStem: 0 21G<64 128> 300 20G<64 128> 384 64<0 64 128 192> 448 64<64 128>
VStem: 0 64<384 448> 64 64<0 320 448 512> 128 64<384 448>
LayerCount: 2
Fore
SplineSet
64 0 m 1,0,-1
 64 320 l 1,1,-1
 128 320 l 1,2,-1
 128 0 l 1,3,-1
 64 0 l 1,0,-1
128 384 m 1,4,-1
 128 448 l 1,5,-1
 192 448 l 1,6,-1
 192 384 l 1,7,-1
 128 384 l 1,4,-1
0 384 m 1,8,-1
 0 448 l 1,9,-1
 64 448 l 1,10,-1
 64 384 l 1,11,-1
 0 384 l 1,8,-1
128 448 m 1,12,-1
 64 448 l 1,13,-1
 64 512 l 1,14,-1
 128 512 l 1,15,-1
 128 448 l 1,12,-1
EndSplineSet
Validated: 5
EndChar

StartChar: idieresis
Encoding: 239 239 176
Width: 256
Flags: W
HStem: 0 21G<64 128> 300 20G<64 128> 384 64<0 64 128 192>
VStem: 0 64<384 448> 64 64<0 320> 128 64<384 448>
LayerCount: 2
Fore
SplineSet
64 0 m 1,0,-1
 64 320 l 1,1,-1
 128 320 l 1,2,-1
 128 0 l 1,3,-1
 64 0 l 1,0,-1
128 384 m 1,4,-1
 128 448 l 1,5,-1
 192 448 l 1,6,-1
 192 384 l 1,7,-1
 128 384 l 1,4,-1
0 384 m 1,8,-1
 0 448 l 1,9,-1
 64 448 l 1,10,-1
 64 384 l 1,11,-1
 0 384 l 1,8,-1
EndSplineSet
Validated: 1
EndChar

StartChar: eth
Encoding: 240 240 177
Width: 384
Flags: W
HStem: 0 64<64 256> 256 64<64 192> 384 64<128 192 256 320>
VStem: 0 64<64 256> 192 64<320 384 448 512> 256 64<64 256>
LayerCount: 2
Fore
SplineSet
320 0 m 1,0,-1
 0 0 l 1,1,-1
 0 320 l 1,2,-1
 192 320 l 1,3,-1
 192 384 l 1,4,-1
 128 384 l 1,5,-1
 128 448 l 1,6,-1
 192 448 l 1,7,-1
 192 512 l 1,8,-1
 256 512 l 1,9,-1
 256 448 l 1,10,-1
 320 448 l 1,11,-1
 320 384 l 1,12,-1
 256 384 l 1,13,-1
 256 320 l 1,14,-1
 320 320 l 1,15,-1
 320 0 l 1,0,-1
64 64 m 1,16,-1
 256 64 l 1,17,-1
 256 256 l 1,18,-1
 64 256 l 1,19,-1
 64 64 l 1,16,-1
EndSplineSet
Validated: 1
EndChar

StartChar: ntilde
Encoding: 241 241 178
Width: 384
Flags: W
HStem: 0 21G<0 64 256 320> 256 64<64 256> 384 64<64 128 192 256> 448 64<128 192 256 320>
VStem: 0 64<0 256> 64 64<384 448> 128 64<448 512> 192 64<384 448> 256 64<0 256 448 512>
LayerCount: 2
Fore
SplineSet
256 0 m 1,0,-1
 256 256 l 1,1,-1
 64 256 l 1,2,-1
 64 0 l 1,3,-1
 0 0 l 1,4,-1
 0 320 l 1,5,-1
 320 320 l 1,6,-1
 320 0 l 1,7,-1
 256 0 l 1,0,-1
192 384 m 1,8,-1
 192 448 l 1,9,-1
 256 448 l 1,10,-1
 256 384 l 1,11,-1
 192 384 l 1,8,-1
64 384 m 1,12,-1
 64 448 l 1,13,-1
 128 448 l 1,14,-1
 128 384 l 1,15,-1
 64 384 l 1,12,-1
256 448 m 1,16,-1
 256 512 l 1,17,-1
 320 512 l 1,18,-1
 320 448 l 1,19,-1
 256 448 l 1,16,-1
192 448 m 1,20,-1
 128 448 l 1,21,-1
 128 512 l 1,22,-1
 192 512 l 1,23,-1
 192 448 l 1,20,-1
EndSplineSet
Validated: 5
EndChar

StartChar: ograve
Encoding: 242 242 179
Width: 384
Flags: W
HStem: 0 64<64 256> 256 64<64 256> 384 64<128 192> 448 64<64 128>
VStem: 0 64<64 256> 64 64<448 512> 128 64<384 448> 256 64<64 256>
LayerCount: 2
Fore
SplineSet
128 384 m 1,0,-1
 128 448 l 1,1,-1
 192 448 l 1,2,-1
 192 384 l 1,3,-1
 128 384 l 1,0,-1
320 0 m 1,4,-1
 0 0 l 1,5,-1
 0 320 l 1,6,-1
 320 320 l 1,7,-1
 320 0 l 1,4,-1
64 64 m 1,8,-1
 256 64 l 1,9,-1
 256 256 l 1,10,-1
 64 256 l 1,11,-1
 64 64 l 1,8,-1
128 448 m 1,12,-1
 64 448 l 1,13,-1
 64 512 l 1,14,-1
 128 512 l 1,15,-1
 128 448 l 1,12,-1
EndSplineSet
Validated: 5
EndChar

StartChar: oacute
Encoding: 243 243 180
Width: 384
Flags: W
HStem: 0 64<64 256> 256 64<64 256> 384 64<128 192> 448 64<192 256>
VStem: 0 64<64 256> 128 64<384 448> 192 64<448 512> 256 64<64 256>
LayerCount: 2
Fore
SplineSet
128 384 m 1,0,-1
 128 448 l 1,1,-1
 192 448 l 1,2,-1
 192 384 l 1,3,-1
 128 384 l 1,0,-1
320 0 m 1,4,-1
 0 0 l 1,5,-1
 0 320 l 1,6,-1
 320 320 l 1,7,-1
 320 0 l 1,4,-1
64 64 m 1,8,-1
 256 64 l 1,9,-1
 256 256 l 1,10,-1
 64 256 l 1,11,-1
 64 64 l 1,8,-1
192 448 m 1,12,-1
 192 512 l 1,13,-1
 256 512 l 1,14,-1
 256 448 l 1,15,-1
 192 448 l 1,12,-1
EndSplineSet
Validated: 5
EndChar

StartChar: ocircumflex
Encoding: 244 244 181
Width: 384
Flags: W
HStem: 0 64<64 256> 256 64<64 256> 384 64<64 128 192 256> 448 64<128 192>
VStem: 0 64<64 256> 64 64<384 448> 128 64<448 512> 192 64<384 448> 256 64<64 256>
LayerCount: 2
Fore
SplineSet
192 384 m 1,0,-1
 192 448 l 1,1,-1
 256 448 l 1,2,-1
 256 384 l 1,3,-1
 192 384 l 1,0,-1
64 384 m 1,4,-1
 64 448 l 1,5,-1
 128 448 l 1,6,-1
 128 384 l 1,7,-1
 64 384 l 1,4,-1
320 0 m 1,8,-1
 0 0 l 1,9,-1
 0 320 l 1,10,-1
 320 320 l 1,11,-1
 320 0 l 1,8,-1
64 64 m 1,12,-1
 256 64 l 1,13,-1
 256 256 l 1,14,-1
 64 256 l 1,15,-1
 64 64 l 1,12,-1
192 448 m 1,16,-1
 128 448 l 1,17,-1
 128 512 l 1,18,-1
 192 512 l 1,19,-1
 192 448 l 1,16,-1
EndSplineSet
Validated: 5
EndChar

StartChar: otilde
Encoding: 245 245 182
Width: 384
Flags: W
HStem: 0 64<64 256> 256 64<64 256> 384 64<64 128 192 256> 448 64<128 192 256 320>
VStem: 0 64<64 256> 64 64<384 448> 128 64<448 512> 192 64<384 448> 256 64<64 256 448 512>
LayerCount: 2
Fore
SplineSet
192 384 m 1,0,-1
 192 448 l 1,1,-1
 256 448 l 1,2,-1
 256 384 l 1,3,-1
 192 384 l 1,0,-1
64 384 m 1,4,-1
 64 448 l 1,5,-1
 128 448 l 1,6,-1
 128 384 l 1,7,-1
 64 384 l 1,4,-1
320 0 m 1,8,-1
 0 0 l 1,9,-1
 0 320 l 1,10,-1
 320 320 l 1,11,-1
 320 0 l 1,8,-1
64 64 m 1,12,-1
 256 64 l 1,13,-1
 256 256 l 1,14,-1
 64 256 l 1,15,-1
 64 64 l 1,12,-1
256 448 m 1,16,-1
 256 512 l 1,17,-1
 320 512 l 1,18,-1
 320 448 l 1,19,-1
 256 448 l 1,16,-1
192 448 m 1,20,-1
 128 448 l 1,21,-1
 128 512 l 1,22,-1
 192 512 l 1,23,-1
 192 448 l 1,20,-1
EndSplineSet
Validated: 5
EndChar

StartChar: odieresis
Encoding: 246 246 183
Width: 384
Flags: WO
HStem: 0 64<64 256> 256 64<64 256> 384 64<64 128 192 256>
VStem: 0 64<64 256> 64 64<384 448> 192 64<384 448> 256 64<64 256>
LayerCount: 2
Fore
SplineSet
192 384 m 5,0,-1
 192 448 l 5,1,-1
 256 448 l 5,2,-1
 256 384 l 5,3,-1
 192 384 l 5,0,-1
64 384 m 5,4,-1
 64 448 l 5,5,-1
 128 448 l 5,6,-1
 128 384 l 5,7,-1
 64 384 l 5,4,-1
320 0 m 1,8,-1
 0 0 l 1,9,-1
 0 320 l 1,10,-1
 320 320 l 1,11,-1
 320 0 l 1,8,-1
64 64 m 1,12,-1
 256 64 l 1,13,-1
 256 256 l 1,14,-1
 64 256 l 1,15,-1
 64 64 l 1,12,-1
EndSplineSet
EndChar

StartChar: divide
Encoding: 247 247 184
Width: 384
Flags: W
HStem: 0 64<128 192> 128 64<0 320> 256 64<128 192>
VStem: 128 64<0 64 256 320>
CounterMasks: 1 e0
LayerCount: 2
Fore
SplineSet
128 0 m 1,0,-1
 128 64 l 1,1,-1
 192 64 l 1,2,-1
 192 0 l 1,3,-1
 128 0 l 1,0,-1
128 256 m 1,4,-1
 128 320 l 1,5,-1
 192 320 l 1,6,-1
 192 256 l 1,7,-1
 128 256 l 1,4,-1
0 192 m 1,8,-1
 320 192 l 1,9,-1
 320 128 l 1,10,-1
 0 128 l 1,11,-1
 0 192 l 1,8,-1
EndSplineSet
Validated: 1
EndChar

StartChar: oslash
Encoding: 248 248 185
Width: 384
Flags: W
HStem: -64 128<64 128> 0 64<192 256> 256 128<192 256> 256 64<64 128>
VStem: 0 64<64 256> 64 64<-64 0> 128 64<64 256> 192 64<320 384> 256 64<64 256>
LayerCount: 2
Fore
SplineSet
64 -64 m 1,0,-1
 64 0 l 1,1,-1
 0 0 l 1,2,-1
 0 320 l 1,3,-1
 192 320 l 1,4,-1
 192 384 l 1,5,-1
 256 384 l 1,6,-1
 256 320 l 1,7,-1
 320 320 l 1,8,-1
 320 0 l 1,9,-1
 128 0 l 1,10,-1
 128 -64 l 1,11,-1
 64 -64 l 1,0,-1
256 64 m 1,12,-1
 256 256 l 1,13,-1
 192 256 l 1,14,-1
 192 64 l 1,15,-1
 256 64 l 1,12,-1
128 64 m 1,16,-1
 128 256 l 1,17,-1
 64 256 l 1,18,-1
 64 64 l 1,19,-1
 128 64 l 1,16,-1
EndSplineSet
Validated: 1
EndChar

StartChar: ugrave
Encoding: 249 249 186
Width: 384
Flags: W
HStem: 0 64<64 256> 300 20G<0 64 256 320> 384 64<128 192> 448 64<64 128>
VStem: 0 64<64 320> 64 64<448 512> 128 64<384 448> 256 64<64 320>
LayerCount: 2
Fore
SplineSet
128 384 m 1,0,-1
 128 448 l 1,1,-1
 192 448 l 1,2,-1
 192 384 l 1,3,-1
 128 384 l 1,0,-1
320 0 m 1,4,-1
 0 0 l 1,5,-1
 0 320 l 1,6,-1
 64 320 l 1,7,-1
 64 64 l 1,8,-1
 256 64 l 1,9,-1
 256 320 l 1,10,-1
 320 320 l 1,11,-1
 320 0 l 1,4,-1
128 448 m 1,12,-1
 64 448 l 1,13,-1
 64 512 l 1,14,-1
 128 512 l 1,15,-1
 128 448 l 1,12,-1
EndSplineSet
Validated: 5
EndChar

StartChar: uacute
Encoding: 250 250 187
Width: 384
Flags: W
HStem: 0 64<64 256> 300 20G<0 64 256 320> 384 64<128 192> 448 64<192 256>
VStem: 0 64<64 320> 128 64<384 448> 192 64<448 512> 256 64<64 320>
LayerCount: 2
Fore
SplineSet
128 384 m 1,0,-1
 128 448 l 1,1,-1
 192 448 l 1,2,-1
 192 384 l 1,3,-1
 128 384 l 1,0,-1
320 0 m 1,4,-1
 0 0 l 1,5,-1
 0 320 l 1,6,-1
 64 320 l 1,7,-1
 64 64 l 1,8,-1
 256 64 l 1,9,-1
 256 320 l 1,10,-1
 320 320 l 1,11,-1
 320 0 l 1,4,-1
192 448 m 1,12,-1
 192 512 l 1,13,-1
 256 512 l 1,14,-1
 256 448 l 1,15,-1
 192 448 l 1,12,-1
EndSplineSet
Validated: 5
EndChar

StartChar: ucircumflex
Encoding: 251 251 188
Width: 384
Flags: W
HStem: 0 64<64 256> 300 20G<0 64 256 320> 384 64<64 128 192 256> 448 64<128 192>
VStem: 0 64<64 320> 64 64<384 448> 128 64<448 512> 192 64<384 448> 256 64<64 320>
LayerCount: 2
Fore
SplineSet
192 384 m 1,0,-1
 192 448 l 1,1,-1
 256 448 l 1,2,-1
 256 384 l 1,3,-1
 192 384 l 1,0,-1
64 384 m 1,4,-1
 64 448 l 1,5,-1
 128 448 l 1,6,-1
 128 384 l 1,7,-1
 64 384 l 1,4,-1
320 0 m 1,8,-1
 0 0 l 1,9,-1
 0 320 l 1,10,-1
 64 320 l 1,11,-1
 64 64 l 1,12,-1
 256 64 l 1,13,-1
 256 320 l 1,14,-1
 320 320 l 1,15,-1
 320 0 l 1,8,-1
192 448 m 1,16,-1
 128 448 l 1,17,-1
 128 512 l 1,18,-1
 192 512 l 1,19,-1
 192 448 l 1,16,-1
EndSplineSet
Validated: 5
EndChar

StartChar: udieresis
Encoding: 252 252 189
Width: 384
Flags: W
HStem: 0 64<64 256> 300 20G<0 64 256 320> 384 64<64 128 192 256>
VStem: 0 64<64 320> 64 64<384 448> 192 64<384 448> 256 64<64 320>
LayerCount: 2
Fore
SplineSet
192 384 m 1,0,-1
 192 448 l 1,1,-1
 256 448 l 1,2,-1
 256 384 l 1,3,-1
 192 384 l 1,0,-1
64 384 m 1,4,-1
 64 448 l 1,5,-1
 128 448 l 1,6,-1
 128 384 l 1,7,-1
 64 384 l 1,4,-1
320 0 m 1,8,-1
 0 0 l 1,9,-1
 0 320 l 1,10,-1
 64 320 l 1,11,-1
 64 64 l 1,12,-1
 256 64 l 1,13,-1
 256 320 l 1,14,-1
 320 320 l 1,15,-1
 320 0 l 1,8,-1
EndSplineSet
Validated: 1
EndChar

StartChar: yacute
Encoding: 253 253 190
Width: 384
Flags: W
HStem: -128 21G<128 192> 0 64<64 128 192 256> 300 20G<0 64 256 320> 384 64<128 192> 448 64<192 256>
VStem: 0 64<64 320> 128 64<-128 0 384 448> 192 64<448 512> 256 64<64 320>
LayerCount: 2
Fore
SplineSet
128 -128 m 1,0,-1
 128 0 l 1,1,-1
 0 0 l 1,2,-1
 0 320 l 1,3,-1
 64 320 l 1,4,-1
 64 64 l 1,5,-1
 256 64 l 1,6,-1
 256 320 l 1,7,-1
 320 320 l 1,8,-1
 320 0 l 1,9,-1
 192 0 l 1,10,-1
 192 -128 l 1,11,-1
 128 -128 l 1,0,-1
128 384 m 1,12,-1
 128 448 l 1,13,-1
 192 448 l 1,14,-1
 192 384 l 1,15,-1
 128 384 l 1,12,-1
192 448 m 1,16,-1
 192 512 l 1,17,-1
 256 512 l 1,18,-1
 256 448 l 1,19,-1
 192 448 l 1,16,-1
EndSplineSet
Validated: 5
EndChar

StartChar: thorn
Encoding: 254 254 191
Width: 384
Flags: W
HStem: -128 21G<0 64> 0 64<64 256> 256 64<64 256> 428 20G<0 64>
VStem: 0 64<-128 0 64 256 320 448> 256 64<64 256>
LayerCount: 2
Fore
SplineSet
0 -128 m 1,0,-1
 0 448 l 1,1,-1
 64 448 l 1,2,-1
 64 320 l 1,3,-1
 256 320 l 1,4,-1
 256 256 l 1,5,-1
 320 256 l 1,6,-1
 320 64 l 1,7,-1
 256 64 l 1,8,-1
 256 256 l 1,9,-1
 64 256 l 1,10,-1
 64 64 l 1,11,-1
 256 64 l 1,12,-1
 256 0 l 1,13,-1
 64 0 l 1,14,-1
 64 -128 l 1,15,-1
 0 -128 l 1,0,-1
EndSplineSet
Validated: 5
EndChar

StartChar: ydieresis
Encoding: 255 255 192
Width: 384
Flags: W
HStem: -128 21G<128 192> 0 64<64 128 192 256> 300 20G<0 64 256 320> 384 64<64 128 192 256>
VStem: 0 64<64 320> 64 64<384 448> 128 64<-128 0> 192 64<384 448> 256 64<64 320>
LayerCount: 2
Fore
SplineSet
128 -128 m 1,0,-1
 128 0 l 1,1,-1
 0 0 l 1,2,-1
 0 320 l 1,3,-1
 64 320 l 1,4,-1
 64 64 l 1,5,-1
 256 64 l 1,6,-1
 256 320 l 1,7,-1
 320 320 l 1,8,-1
 320 0 l 1,9,-1
 192 0 l 1,10,-1
 192 -128 l 1,11,-1
 128 -128 l 1,0,-1
192 384 m 1,12,-1
 192 448 l 1,13,-1
 256 448 l 1,14,-1
 256 384 l 1,15,-1
 192 384 l 1,12,-1
64 384 m 1,16,-1
 64 448 l 1,17,-1
 128 448 l 1,18,-1
 128 384 l 1,19,-1
 64 384 l 1,16,-1
EndSplineSet
Validated: 1
EndChar

StartChar: Amacron
Encoding: 256 256 193
Width: 384
Flags: W
HStem: 0 21G<0 64 256 320> 192 64<64 256> 384 64<64 256> 512 64<64 256>
VStem: 0 64<0 192 256 384> 256 64<0 192 256 384>
LayerCount: 2
Fore
SplineSet
256 0 m 1,0,-1
 256 192 l 1,1,-1
 64 192 l 1,2,-1
 64 0 l 1,3,-1
 0 0 l 1,4,-1
 0 448 l 1,5,-1
 320 448 l 1,6,-1
 320 0 l 1,7,-1
 256 0 l 1,0,-1
64 256 m 1,8,-1
 256 256 l 1,9,-1
 256 384 l 1,10,-1
 64 384 l 1,11,-1
 64 256 l 1,8,-1
64 576 m 1,12,-1
 256 576 l 1,13,-1
 256 512 l 1,14,-1
 64 512 l 1,15,-1
 64 576 l 1,12,-1
EndSplineSet
Validated: 1
EndChar

StartChar: amacron
Encoding: 257 257 194
Width: 384
Flags: W
HStem: 0 64<64 256> 128 64<64 256> 256 64<0 256> 384 64<64 256>
VStem: 0 64<64 128> 256 64<64 128 192 256>
LayerCount: 2
Fore
SplineSet
320 0 m 1,0,-1
 0 0 l 1,1,-1
 0 192 l 1,2,-1
 256 192 l 1,3,-1
 256 256 l 1,4,-1
 0 256 l 1,5,-1
 0 320 l 1,6,-1
 320 320 l 1,7,-1
 320 0 l 1,0,-1
64 64 m 1,8,-1
 256 64 l 1,9,-1
 256 128 l 1,10,-1
 64 128 l 1,11,-1
 64 64 l 1,8,-1
64 448 m 1,12,-1
 256 448 l 1,13,-1
 256 384 l 1,14,-1
 64 384 l 1,15,-1
 64 448 l 1,12,-1
EndSplineSet
Validated: 1
EndChar

StartChar: Abreve
Encoding: 258 258 195
Width: 384
Flags: W
HStem: 0 21G<0 64 256 320> 192 64<64 256> 384 64<64 256> 512 128<64 128 192 256> 512 64<128 192>
VStem: 0 64<0 192 256 384> 64 64<576 640> 192 64<576 640> 256 64<0 192 256 384>
LayerCount: 2
Fore
SplineSet
256 0 m 1,0,-1
 256 192 l 1,1,-1
 64 192 l 1,2,-1
 64 0 l 1,3,-1
 0 0 l 1,4,-1
 0 448 l 1,5,-1
 320 448 l 1,6,-1
 320 0 l 1,7,-1
 256 0 l 1,0,-1
64 256 m 1,8,-1
 256 256 l 1,9,-1
 256 384 l 1,10,-1
 64 384 l 1,11,-1
 64 256 l 1,8,-1
256 512 m 1,12,-1
 64 512 l 1,13,-1
 64 640 l 1,14,-1
 128 640 l 1,15,-1
 128 576 l 1,16,-1
 192 576 l 1,17,-1
 192 640 l 1,18,-1
 256 640 l 1,19,-1
 256 512 l 1,12,-1
EndSplineSet
Validated: 1
EndChar

StartChar: abreve
Encoding: 259 259 196
Width: 384
Flags: W
HStem: 0 64<64 256> 128 64<64 256> 256 64<0 256> 384 64<128 192> 448 64<64 128 192 256>
VStem: 0 64<64 128> 64 64<448 512> 128 64<384 448> 192 64<448 512> 256 64<64 128 192 256>
LayerCount: 2
Fore
SplineSet
128 384 m 1,0,-1
 128 448 l 1,1,-1
 192 448 l 1,2,-1
 192 384 l 1,3,-1
 128 384 l 1,0,-1
320 0 m 1,4,-1
 0 0 l 1,5,-1
 0 192 l 1,6,-1
 256 192 l 1,7,-1
 256 256 l 1,8,-1
 0 256 l 1,9,-1
 0 320 l 1,10,-1
 320 320 l 1,11,-1
 320 0 l 1,4,-1
64 64 m 1,12,-1
 256 64 l 1,13,-1
 256 128 l 1,14,-1
 64 128 l 1,15,-1
 64 64 l 1,12,-1
192 448 m 1,16,-1
 192 512 l 1,17,-1
 256 512 l 1,18,-1
 256 448 l 1,19,-1
 192 448 l 1,16,-1
128 448 m 1,20,-1
 64 448 l 1,21,-1
 64 512 l 1,22,-1
 128 512 l 1,23,-1
 128 448 l 1,20,-1
EndSplineSet
Validated: 5
EndChar

StartChar: Aogonek
Encoding: 260 260 197
Width: 384
Flags: W
HStem: -128 64<256 320> -64 64<192 256> 0 21G<0 64> 192 64<64 256> 384 64<64 256>
VStem: 0 64<0 192 256 384> 192 64<-64 0> 256 64<-128 -64 0 192 256 384>
LayerCount: 2
Fore
SplineSet
256 -128 m 1,0,-1
 256 -64 l 1,1,-1
 320 -64 l 1,2,-1
 320 -128 l 1,3,-1
 256 -128 l 1,0,-1
0 0 m 1,4,-1
 0 448 l 1,5,-1
 320 448 l 1,6,-1
 320 0 l 1,7,-1
 256 0 l 1,8,-1
 256 -64 l 1,9,-1
 192 -64 l 1,10,-1
 192 0 l 1,11,-1
 256 0 l 1,12,-1
 256 192 l 1,13,-1
 64 192 l 1,14,-1
 64 0 l 1,15,-1
 0 0 l 1,4,-1
64 256 m 1,16,-1
 256 256 l 1,17,-1
 256 384 l 1,18,-1
 64 384 l 1,19,-1
 64 256 l 1,16,-1
EndSplineSet
Validated: 5
EndChar

StartChar: aogonek
Encoding: 261 261 198
Width: 384
Flags: W
HStem: -128 64<256 320> -64 128<192 256> 0 64<64 192> 128 64<64 256> 256 64<0 256>
VStem: 0 64<64 128> 256 64<-128 -64 64 128 192 256>
LayerCount: 2
Fore
SplineSet
256 -128 m 1,0,-1
 256 -64 l 1,1,-1
 320 -64 l 1,2,-1
 320 -128 l 1,3,-1
 256 -128 l 1,0,-1
256 -64 m 1,4,-1
 192 -64 l 1,5,-1
 192 0 l 1,6,-1
 0 0 l 1,7,-1
 0 192 l 1,8,-1
 256 192 l 1,9,-1
 256 256 l 1,10,-1
 0 256 l 1,11,-1
 0 320 l 1,12,-1
 320 320 l 1,13,-1
 320 0 l 1,14,-1
 256 0 l 1,15,-1
 256 -64 l 1,4,-1
64 64 m 1,16,-1
 256 64 l 1,17,-1
 256 128 l 1,18,-1
 64 128 l 1,19,-1
 64 64 l 1,16,-1
EndSplineSet
Validated: 5
EndChar

StartChar: Cacute
Encoding: 262 262 199
Width: 384
Flags: W
HStem: 0 64<64 320> 384 64<64 320> 512 64<128 192> 576 64<192 256>
VStem: 0 64<64 384> 128 64<512 576> 192 64<576 640>
LayerCount: 2
Fore
SplineSet
128 512 m 1,0,-1
 128 576 l 1,1,-1
 192 576 l 1,2,-1
 192 512 l 1,3,-1
 128 512 l 1,0,-1
64 64 m 1,4,-1
 320 64 l 1,5,-1
 320 0 l 1,6,-1
 0 0 l 1,7,-1
 0 448 l 1,8,-1
 320 448 l 1,9,-1
 320 384 l 1,10,-1
 64 384 l 1,11,-1
 64 64 l 1,4,-1
192 576 m 1,12,-1
 192 640 l 1,13,-1
 256 640 l 1,14,-1
 256 576 l 1,15,-1
 192 576 l 1,12,-1
EndSplineSet
Validated: 5
EndChar

StartChar: cacute
Encoding: 263 263 200
Width: 384
Flags: W
HStem: 0 64<64 320> 256 64<64 320> 384 64<128 192> 448 64<192 256>
VStem: 0 64<64 256> 128 64<384 448> 192 64<448 512>
LayerCount: 2
Fore
SplineSet
128 384 m 1,0,-1
 128 448 l 1,1,-1
 192 448 l 1,2,-1
 192 384 l 1,3,-1
 128 384 l 1,0,-1
64 64 m 1,4,-1
 320 64 l 1,5,-1
 320 0 l 1,6,-1
 0 0 l 1,7,-1
 0 320 l 1,8,-1
 320 320 l 1,9,-1
 320 256 l 1,10,-1
 64 256 l 1,11,-1
 64 64 l 1,4,-1
192 448 m 1,12,-1
 192 512 l 1,13,-1
 256 512 l 1,14,-1
 256 448 l 1,15,-1
 192 448 l 1,12,-1
EndSplineSet
Validated: 5
EndChar

StartChar: Ccircumflex
Encoding: 264 264 201
Width: 384
Flags: W
HStem: 0 64<64 320> 384 64<64 320> 512 64<64 128 192 256> 576 64<128 192>
VStem: 0 64<64 384> 64 64<512 576> 128 64<576 640> 192 64<512 576>
LayerCount: 2
Fore
SplineSet
192 512 m 1,0,-1
 192 576 l 1,1,-1
 256 576 l 1,2,-1
 256 512 l 1,3,-1
 192 512 l 1,0,-1
64 512 m 1,4,-1
 64 576 l 1,5,-1
 128 576 l 1,6,-1
 128 512 l 1,7,-1
 64 512 l 1,4,-1
64 64 m 1,8,-1
 320 64 l 1,9,-1
 320 0 l 1,10,-1
 0 0 l 1,11,-1
 0 448 l 1,12,-1
 320 448 l 1,13,-1
 320 384 l 1,14,-1
 64 384 l 1,15,-1
 64 64 l 1,8,-1
192 576 m 1,16,-1
 128 576 l 1,17,-1
 128 640 l 1,18,-1
 192 640 l 1,19,-1
 192 576 l 1,16,-1
EndSplineSet
Validated: 5
EndChar

StartChar: ccircumflex
Encoding: 265 265 202
Width: 384
Flags: W
HStem: 0 64<64 320> 256 64<64 320> 384 64<64 128 192 256> 448 64<128 192>
VStem: 0 64<64 256> 64 64<384 448> 128 64<448 512> 192 64<384 448>
LayerCount: 2
Fore
SplineSet
192 384 m 1,0,-1
 192 448 l 1,1,-1
 256 448 l 1,2,-1
 256 384 l 1,3,-1
 192 384 l 1,0,-1
64 384 m 1,4,-1
 64 448 l 1,5,-1
 128 448 l 1,6,-1
 128 384 l 1,7,-1
 64 384 l 1,4,-1
64 64 m 1,8,-1
 320 64 l 1,9,-1
 320 0 l 1,10,-1
 0 0 l 1,11,-1
 0 320 l 1,12,-1
 320 320 l 1,13,-1
 320 256 l 1,14,-1
 64 256 l 1,15,-1
 64 64 l 1,8,-1
192 448 m 1,16,-1
 128 448 l 1,17,-1
 128 512 l 1,18,-1
 192 512 l 1,19,-1
 192 448 l 1,16,-1
EndSplineSet
Validated: 5
EndChar

StartChar: Cdotaccent
Encoding: 266 266 203
Width: 384
Flags: W
HStem: 0 64<64 320> 384 64<64 320> 512 64<128 192>
VStem: 0 64<64 384> 128 64<512 576>
LayerCount: 2
Fore
SplineSet
128 512 m 1,0,-1
 128 576 l 1,1,-1
 192 576 l 1,2,-1
 192 512 l 1,3,-1
 128 512 l 1,0,-1
64 64 m 1,4,-1
 320 64 l 1,5,-1
 320 0 l 1,6,-1
 0 0 l 1,7,-1
 0 448 l 1,8,-1
 320 448 l 1,9,-1
 320 384 l 1,10,-1
 64 384 l 1,11,-1
 64 64 l 1,4,-1
EndSplineSet
Validated: 1
EndChar

StartChar: cdotaccent
Encoding: 267 267 204
Width: 384
Flags: W
HStem: 0 64<64 320> 256 64<64 320> 384 64<128 192>
VStem: 0 64<64 256> 128 64<384 448>
LayerCount: 2
Fore
SplineSet
128 384 m 1,0,-1
 128 448 l 1,1,-1
 192 448 l 1,2,-1
 192 384 l 1,3,-1
 128 384 l 1,0,-1
64 64 m 1,4,-1
 320 64 l 1,5,-1
 320 0 l 1,6,-1
 0 0 l 1,7,-1
 0 320 l 1,8,-1
 320 320 l 1,9,-1
 320 256 l 1,10,-1
 64 256 l 1,11,-1
 64 64 l 1,4,-1
EndSplineSet
Validated: 1
EndChar

StartChar: Ccaron
Encoding: 268 268 205
Width: 384
Flags: W
HStem: 0 64<64 320> 384 64<64 320> 512 64<128 192> 576 64<64 128 192 256>
VStem: 0 64<64 384> 64 64<576 640> 128 64<512 576> 192 64<576 640>
LayerCount: 2
Fore
SplineSet
128 512 m 1,0,-1
 128 576 l 1,1,-1
 192 576 l 1,2,-1
 192 512 l 1,3,-1
 128 512 l 1,0,-1
64 64 m 1,4,-1
 320 64 l 1,5,-1
 320 0 l 1,6,-1
 0 0 l 1,7,-1
 0 448 l 1,8,-1
 320 448 l 1,9,-1
 320 384 l 1,10,-1
 64 384 l 1,11,-1
 64 64 l 1,4,-1
192 576 m 1,12,-1
 192 640 l 1,13,-1
 256 640 l 1,14,-1
 256 576 l 1,15,-1
 192 576 l 1,12,-1
128 576 m 1,16,-1
 64 576 l 1,17,-1
 64 640 l 1,18,-1
 128 640 l 1,19,-1
 128 576 l 1,16,-1
EndSplineSet
Validated: 5
EndChar

StartChar: ccaron
Encoding: 269 269 206
Width: 384
Flags: W
HStem: 0 64<64 320> 256 64<64 320> 384 64<128 192> 448 64<64 128 192 256>
VStem: 0 64<64 256> 64 64<448 512> 128 64<384 448> 192 64<448 512>
LayerCount: 2
Fore
SplineSet
128 384 m 1,0,-1
 128 448 l 1,1,-1
 192 448 l 1,2,-1
 192 384 l 1,3,-1
 128 384 l 1,0,-1
64 64 m 1,4,-1
 320 64 l 1,5,-1
 320 0 l 1,6,-1
 0 0 l 1,7,-1
 0 320 l 1,8,-1
 320 320 l 1,9,-1
 320 256 l 1,10,-1
 64 256 l 1,11,-1
 64 64 l 1,4,-1
192 448 m 1,12,-1
 192 512 l 1,13,-1
 256 512 l 1,14,-1
 256 448 l 1,15,-1
 192 448 l 1,12,-1
128 448 m 1,16,-1
 64 448 l 1,17,-1
 64 512 l 1,18,-1
 128 512 l 1,19,-1
 128 448 l 1,16,-1
EndSplineSet
Validated: 5
EndChar

StartChar: Dcaron
Encoding: 270 270 207
Width: 384
Flags: W
HStem: 0 64<64 256> 384 64<64 256> 512 64<128 192> 576 64<64 128 192 256>
VStem: 0 64<64 384> 64 64<576 640> 128 64<512 576> 192 64<576 640> 256 64<64 384>
LayerCount: 2
Fore
SplineSet
128 512 m 1,0,-1
 128 576 l 1,1,-1
 192 576 l 1,2,-1
 192 512 l 1,3,-1
 128 512 l 1,0,-1
64 64 m 1,4,-1
 256 64 l 1,5,-1
 256 384 l 1,6,-1
 64 384 l 1,7,-1
 64 64 l 1,4,-1
256 0 m 1,8,-1
 0 0 l 1,9,-1
 0 448 l 1,10,-1
 256 448 l 1,11,-1
 256 384 l 1,12,-1
 320 384 l 1,13,-1
 320 64 l 1,14,-1
 256 64 l 1,15,-1
 256 0 l 1,8,-1
192 576 m 1,16,-1
 192 640 l 1,17,-1
 256 640 l 1,18,-1
 256 576 l 1,19,-1
 192 576 l 1,16,-1
128 576 m 1,20,-1
 64 576 l 1,21,-1
 64 640 l 1,22,-1
 128 640 l 1,23,-1
 128 576 l 1,20,-1
EndSplineSet
Validated: 5
EndChar

StartChar: dcaron
Encoding: 271 271 208
Width: 512
Flags: W
HStem: 0 64<64 256> 256 64<64 256> 448 128<384 448>
VStem: 0 64<64 256> 256 64<64 256 320 576> 384 64<448 576>
LayerCount: 2
Fore
SplineSet
384 448 m 1,0,-1
 384 576 l 1,1,-1
 448 576 l 1,2,-1
 448 448 l 1,3,-1
 384 448 l 1,0,-1
320 0 m 1,4,-1
 0 0 l 1,5,-1
 0 320 l 1,6,-1
 256 320 l 1,7,-1
 256 576 l 1,8,-1
 320 576 l 1,9,-1
 320 0 l 1,4,-1
64 64 m 1,10,-1
 256 64 l 1,11,-1
 256 256 l 1,12,-1
 64 256 l 1,13,-1
 64 64 l 1,10,-1
EndSplineSet
Validated: 1
EndChar

StartChar: Dcroat
Encoding: 272 272 209
Width: 448
Flags: W
HStem: 0 64<128 320> 192 64<0 64 128 192> 384 64<128 320>
VStem: 64 64<64 192 256 384> 320 64<64 384>
CounterMasks: 1 e0
LayerCount: 2
Fore
SplineSet
128 64 m 1,0,-1
 320 64 l 1,1,-1
 320 384 l 1,2,-1
 128 384 l 1,3,-1
 128 256 l 1,4,-1
 192 256 l 1,5,-1
 192 192 l 1,6,-1
 128 192 l 1,7,-1
 128 64 l 1,0,-1
320 0 m 1,8,-1
 64 0 l 1,9,-1
 64 192 l 1,10,-1
 0 192 l 1,11,-1
 0 256 l 1,12,-1
 64 256 l 1,13,-1
 64 448 l 1,14,-1
 320 448 l 1,15,-1
 320 384 l 1,16,-1
 384 384 l 1,17,-1
 384 64 l 1,18,-1
 320 64 l 1,19,-1
 320 0 l 1,8,-1
EndSplineSet
Validated: 5
EndChar

StartChar: dcroat
Encoding: 273 273 210
Width: 448
Flags: W
HStem: 0 64<64 256> 256 64<64 256> 384 64<192 256 320 384>
VStem: 0 64<64 256> 256 64<64 256 320 384 448 576>
LayerCount: 2
Fore
SplineSet
320 0 m 1,0,-1
 0 0 l 1,1,-1
 0 320 l 1,2,-1
 256 320 l 1,3,-1
 256 384 l 1,4,-1
 192 384 l 1,5,-1
 192 448 l 1,6,-1
 256 448 l 1,7,-1
 256 576 l 1,8,-1
 320 576 l 1,9,-1
 320 448 l 1,10,-1
 384 448 l 1,11,-1
 384 384 l 1,12,-1
 320 384 l 1,13,-1
 320 0 l 1,0,-1
64 64 m 1,14,-1
 256 64 l 1,15,-1
 256 256 l 1,16,-1
 64 256 l 1,17,-1
 64 64 l 1,14,-1
EndSplineSet
Validated: 1
EndChar

StartChar: Emacron
Encoding: 274 274 211
Width: 384
Flags: W
HStem: 0 64<64 320> 192 64<64 256> 384 64<64 320> 512 64<64 256>
VStem: 0 64<64 192 256 384>
LayerCount: 2
Fore
SplineSet
64 64 m 1,0,-1
 320 64 l 1,1,-1
 320 0 l 1,2,-1
 0 0 l 1,3,-1
 0 448 l 1,4,-1
 320 448 l 1,5,-1
 320 384 l 1,6,-1
 64 384 l 1,7,-1
 64 256 l 1,8,-1
 256 256 l 1,9,-1
 256 192 l 1,10,-1
 64 192 l 1,11,-1
 64 64 l 1,0,-1
64 576 m 1,12,-1
 256 576 l 1,13,-1
 256 512 l 1,14,-1
 64 512 l 1,15,-1
 64 576 l 1,12,-1
EndSplineSet
Validated: 1
EndChar

StartChar: emacron
Encoding: 275 275 212
Width: 384
Flags: W
HStem: 0 64<64 320> 128 64<64 256> 256 64<64 256> 384 64<64 256>
VStem: 0 64<64 128 192 256> 256 64<192 256>
LayerCount: 2
Fore
SplineSet
64 64 m 1,0,-1
 320 64 l 1,1,-1
 320 0 l 1,2,-1
 0 0 l 1,3,-1
 0 320 l 1,4,-1
 320 320 l 1,5,-1
 320 128 l 1,6,-1
 64 128 l 1,7,-1
 64 64 l 1,0,-1
64 192 m 1,8,-1
 256 192 l 1,9,-1
 256 256 l 1,10,-1
 64 256 l 1,11,-1
 64 192 l 1,8,-1
64 448 m 1,12,-1
 256 448 l 1,13,-1
 256 384 l 1,14,-1
 64 384 l 1,15,-1
 64 448 l 1,12,-1
EndSplineSet
Validated: 1
EndChar

StartChar: Ebreve
Encoding: 276 276 213
Width: 384
Flags: W
HStem: 0 64<64 320> 192 64<64 256> 384 64<64 320> 512 128<64 128 192 256> 512 64<128 192>
VStem: 0 64<64 192 256 384> 64 64<576 640> 192 64<576 640>
LayerCount: 2
Fore
SplineSet
64 64 m 1,0,-1
 320 64 l 1,1,-1
 320 0 l 1,2,-1
 0 0 l 1,3,-1
 0 448 l 1,4,-1
 320 448 l 1,5,-1
 320 384 l 1,6,-1
 64 384 l 1,7,-1
 64 256 l 1,8,-1
 256 256 l 1,9,-1
 256 192 l 1,10,-1
 64 192 l 1,11,-1
 64 64 l 1,0,-1
256 512 m 1,12,-1
 64 512 l 1,13,-1
 64 640 l 1,14,-1
 128 640 l 1,15,-1
 128 576 l 1,16,-1
 192 576 l 1,17,-1
 192 640 l 1,18,-1
 256 640 l 1,19,-1
 256 512 l 1,12,-1
EndSplineSet
Validated: 1
EndChar

StartChar: ebreve
Encoding: 277 277 214
Width: 384
Flags: W
HStem: 0 64<64 320> 128 64<64 256> 256 64<64 256> 384 128<64 128 192 256> 384 64<128 192>
VStem: 0 64<64 128 192 256> 64 64<448 512> 192 64<448 512> 256 64<192 256>
LayerCount: 2
Fore
SplineSet
64 64 m 1,0,-1
 320 64 l 1,1,-1
 320 0 l 1,2,-1
 0 0 l 1,3,-1
 0 320 l 1,4,-1
 320 320 l 1,5,-1
 320 128 l 1,6,-1
 64 128 l 1,7,-1
 64 64 l 1,0,-1
64 192 m 1,8,-1
 256 192 l 1,9,-1
 256 256 l 1,10,-1
 64 256 l 1,11,-1
 64 192 l 1,8,-1
256 384 m 1,12,-1
 64 384 l 1,13,-1
 64 512 l 1,14,-1
 128 512 l 1,15,-1
 128 448 l 1,16,-1
 192 448 l 1,17,-1
 192 512 l 1,18,-1
 256 512 l 1,19,-1
 256 384 l 1,12,-1
EndSplineSet
Validated: 1
EndChar

StartChar: Edotaccent
Encoding: 278 278 215
Width: 384
Flags: W
HStem: 0 64<64 320> 192 64<64 256> 384 64<64 320> 512 64<128 192>
VStem: 0 64<64 192 256 384> 128 64<512 576>
LayerCount: 2
Fore
SplineSet
128 512 m 1,0,-1
 128 576 l 1,1,-1
 192 576 l 1,2,-1
 192 512 l 1,3,-1
 128 512 l 1,0,-1
64 64 m 1,4,-1
 320 64 l 1,5,-1
 320 0 l 1,6,-1
 0 0 l 1,7,-1
 0 448 l 1,8,-1
 320 448 l 1,9,-1
 320 384 l 1,10,-1
 64 384 l 1,11,-1
 64 256 l 1,12,-1
 256 256 l 1,13,-1
 256 192 l 1,14,-1
 64 192 l 1,15,-1
 64 64 l 1,4,-1
EndSplineSet
Validated: 1
EndChar

StartChar: edotaccent
Encoding: 279 279 216
Width: 384
Flags: W
HStem: 0 64<64 320> 128 64<64 256> 256 64<64 256> 384 64<128 192>
VStem: 0 64<64 128 192 256> 128 64<384 448> 256 64<192 256>
CounterMasks: 1 0e
LayerCount: 2
Fore
SplineSet
128 384 m 1,0,-1
 128 448 l 1,1,-1
 192 448 l 1,2,-1
 192 384 l 1,3,-1
 128 384 l 1,0,-1
64 64 m 1,4,-1
 320 64 l 1,5,-1
 320 0 l 1,6,-1
 0 0 l 1,7,-1
 0 320 l 1,8,-1
 320 320 l 1,9,-1
 320 128 l 1,10,-1
 64 128 l 1,11,-1
 64 64 l 1,4,-1
64 192 m 1,12,-1
 256 192 l 1,13,-1
 256 256 l 1,14,-1
 64 256 l 1,15,-1
 64 192 l 1,12,-1
EndSplineSet
Validated: 1
EndChar

StartChar: Eogonek
Encoding: 280 280 217
Width: 384
Flags: W
HStem: -128 64<192 256> -64 128<128 192> 0 64<64 128 192 320> 192 64<64 256> 384 64<64 320>
VStem: 0 64<64 192 256 384> 192 64<-128 -64>
LayerCount: 2
Fore
SplineSet
192 -128 m 1,0,-1
 192 -64 l 1,1,-1
 256 -64 l 1,2,-1
 256 -128 l 1,3,-1
 192 -128 l 1,0,-1
192 -64 m 1,4,-1
 128 -64 l 1,5,-1
 128 0 l 1,6,-1
 0 0 l 1,7,-1
 0 448 l 1,8,-1
 320 448 l 1,9,-1
 320 384 l 1,10,-1
 64 384 l 1,11,-1
 64 256 l 1,12,-1
 256 256 l 1,13,-1
 256 192 l 1,14,-1
 64 192 l 1,15,-1
 64 64 l 1,16,-1
 320 64 l 1,17,-1
 320 0 l 1,18,-1
 192 0 l 1,19,-1
 192 -64 l 1,4,-1
EndSplineSet
Validated: 5
EndChar

StartChar: eogonek
Encoding: 281 281 218
Width: 384
Flags: W
HStem: -128 64<128 192> -64 128<64 128> 0 64<128 320> 128 64<64 256> 256 64<64 256>
VStem: 0 64<64 128 192 256> 128 64<-128 -64> 256 64<192 256>
CounterMasks: 1 07
LayerCount: 2
Fore
SplineSet
128 -128 m 1,0,-1
 128 -64 l 1,1,-1
 192 -64 l 1,2,-1
 192 -128 l 1,3,-1
 128 -128 l 1,0,-1
128 -64 m 1,4,-1
 64 -64 l 1,5,-1
 64 0 l 1,6,-1
 0 0 l 1,7,-1
 0 320 l 1,8,-1
 320 320 l 1,9,-1
 320 128 l 1,10,-1
 64 128 l 1,11,-1
 64 64 l 1,12,-1
 320 64 l 1,13,-1
 320 0 l 1,14,-1
 128 0 l 1,15,-1
 128 -64 l 1,4,-1
64 192 m 1,16,-1
 256 192 l 1,17,-1
 256 256 l 1,18,-1
 64 256 l 1,19,-1
 64 192 l 1,16,-1
EndSplineSet
Validated: 5
EndChar

StartChar: Ecaron
Encoding: 282 282 219
Width: 384
Flags: W
HStem: 0 64<64 320> 192 64<64 256> 384 64<64 320> 512 64<128 192> 576 64<64 128 192 256>
VStem: 0 64<64 192 256 384> 64 64<576 640> 128 64<512 576> 192 64<576 640>
LayerCount: 2
Fore
SplineSet
128 512 m 1,0,-1
 128 576 l 1,1,-1
 192 576 l 1,2,-1
 192 512 l 1,3,-1
 128 512 l 1,0,-1
64 64 m 1,4,-1
 320 64 l 1,5,-1
 320 0 l 1,6,-1
 0 0 l 1,7,-1
 0 448 l 1,8,-1
 320 448 l 1,9,-1
 320 384 l 1,10,-1
 64 384 l 1,11,-1
 64 256 l 1,12,-1
 256 256 l 1,13,-1
 256 192 l 1,14,-1
 64 192 l 1,15,-1
 64 64 l 1,4,-1
192 576 m 1,16,-1
 192 640 l 1,17,-1
 256 640 l 1,18,-1
 256 576 l 1,19,-1
 192 576 l 1,16,-1
128 576 m 1,20,-1
 64 576 l 1,21,-1
 64 640 l 1,22,-1
 128 640 l 1,23,-1
 128 576 l 1,20,-1
EndSplineSet
Validated: 5
EndChar

StartChar: ecaron
Encoding: 283 283 220
Width: 384
Flags: W
HStem: 0 64<64 320> 128 64<64 256> 256 64<64 256> 384 64<128 192> 448 64<64 128 192 256>
VStem: 0 64<64 128 192 256> 64 64<448 512> 128 64<384 448> 192 64<448 512> 256 64<192 256>
LayerCount: 2
Fore
SplineSet
128 384 m 1,0,-1
 128 448 l 1,1,-1
 192 448 l 1,2,-1
 192 384 l 1,3,-1
 128 384 l 1,0,-1
64 64 m 1,4,-1
 320 64 l 1,5,-1
 320 0 l 1,6,-1
 0 0 l 1,7,-1
 0 320 l 1,8,-1
 320 320 l 1,9,-1
 320 128 l 1,10,-1
 64 128 l 1,11,-1
 64 64 l 1,4,-1
64 192 m 1,12,-1
 256 192 l 1,13,-1
 256 256 l 1,14,-1
 64 256 l 1,15,-1
 64 192 l 1,12,-1
192 448 m 1,16,-1
 192 512 l 1,17,-1
 256 512 l 1,18,-1
 256 448 l 1,19,-1
 192 448 l 1,16,-1
128 448 m 1,20,-1
 64 448 l 1,21,-1
 64 512 l 1,22,-1
 128 512 l 1,23,-1
 128 448 l 1,20,-1
EndSplineSet
Validated: 5
EndChar

StartChar: Gcircumflex
Encoding: 284 284 221
Width: 384
Flags: W
HStem: 0 64<64 256> 192 64<192 256> 384 64<64 320> 512 64<64 128 192 256> 576 64<128 192>
VStem: 0 64<64 384> 64 64<512 576> 128 64<576 640> 192 64<512 576> 256 64<64 192>
LayerCount: 2
Fore
SplineSet
192 512 m 1,0,-1
 192 576 l 1,1,-1
 256 576 l 1,2,-1
 256 512 l 1,3,-1
 192 512 l 1,0,-1
64 512 m 1,4,-1
 64 576 l 1,5,-1
 128 576 l 1,6,-1
 128 512 l 1,7,-1
 64 512 l 1,4,-1
320 0 m 1,8,-1
 0 0 l 1,9,-1
 0 448 l 1,10,-1
 320 448 l 1,11,-1
 320 384 l 1,12,-1
 64 384 l 1,13,-1
 64 64 l 1,14,-1
 256 64 l 1,15,-1
 256 192 l 1,16,-1
 192 192 l 1,17,-1
 192 256 l 1,18,-1
 320 256 l 1,19,-1
 320 0 l 1,8,-1
192 576 m 1,20,-1
 128 576 l 1,21,-1
 128 640 l 1,22,-1
 192 640 l 1,23,-1
 192 576 l 1,20,-1
EndSplineSet
Validated: 5
EndChar

StartChar: gcircumflex
Encoding: 285 285 222
Width: 384
Flags: W
HStem: -128 64<0 256> 0 64<64 256> 256 64<64 256> 384 64<64 128 192 256> 448 64<128 192>
VStem: 0 64<64 256> 64 64<384 448> 128 64<448 512> 192 64<384 448> 256 64<-64 0 64 256>
LayerCount: 2
Fore
SplineSet
192 384 m 1,0,-1
 192 448 l 1,1,-1
 256 448 l 1,2,-1
 256 384 l 1,3,-1
 192 384 l 1,0,-1
64 384 m 1,4,-1
 64 448 l 1,5,-1
 128 448 l 1,6,-1
 128 384 l 1,7,-1
 64 384 l 1,4,-1
320 -128 m 1,8,-1
 0 -128 l 1,9,-1
 0 -64 l 1,10,-1
 256 -64 l 1,11,-1
 256 0 l 1,12,-1
 0 0 l 1,13,-1
 0 320 l 1,14,-1
 320 320 l 1,15,-1
 320 -128 l 1,8,-1
64 64 m 1,16,-1
 256 64 l 1,17,-1
 256 256 l 1,18,-1
 64 256 l 1,19,-1
 64 64 l 1,16,-1
192 448 m 1,20,-1
 128 448 l 1,21,-1
 128 512 l 1,22,-1
 192 512 l 1,23,-1
 192 448 l 1,20,-1
EndSplineSet
Validated: 5
EndChar

StartChar: Gbreve
Encoding: 286 286 223
Width: 384
Flags: W
HStem: 0 64<64 256> 192 64<192 256> 384 64<64 320> 512 128<64 128 192 256> 512 64<128 192>
VStem: 0 64<64 384> 64 64<576 640> 192 64<576 640> 256 64<64 192>
LayerCount: 2
Fore
SplineSet
320 0 m 1,0,-1
 0 0 l 1,1,-1
 0 448 l 1,2,-1
 320 448 l 1,3,-1
 320 384 l 1,4,-1
 64 384 l 1,5,-1
 64 64 l 1,6,-1
 256 64 l 1,7,-1
 256 192 l 1,8,-1
 192 192 l 1,9,-1
 192 256 l 1,10,-1
 320 256 l 1,11,-1
 320 0 l 1,0,-1
256 512 m 1,12,-1
 64 512 l 1,13,-1
 64 640 l 1,14,-1
 128 640 l 1,15,-1
 128 576 l 1,16,-1
 192 576 l 1,17,-1
 192 640 l 1,18,-1
 256 640 l 1,19,-1
 256 512 l 1,12,-1
EndSplineSet
Validated: 1
EndChar

StartChar: gbreve
Encoding: 287 287 224
Width: 384
Flags: W
HStem: -128 64<0 256> 0 64<64 256> 256 64<64 256> 384 128<64 128 192 256> 384 64<128 192>
VStem: 0 64<64 256> 64 64<448 512> 192 64<448 512> 256 64<-64 0 64 256>
LayerCount: 2
Fore
SplineSet
320 -128 m 1,0,-1
 0 -128 l 1,1,-1
 0 -64 l 1,2,-1
 256 -64 l 1,3,-1
 256 0 l 1,4,-1
 0 0 l 1,5,-1
 0 320 l 1,6,-1
 320 320 l 1,7,-1
 320 -128 l 1,0,-1
64 64 m 1,8,-1
 256 64 l 1,9,-1
 256 256 l 1,10,-1
 64 256 l 1,11,-1
 64 64 l 1,8,-1
256 384 m 1,12,-1
 64 384 l 1,13,-1
 64 512 l 1,14,-1
 128 512 l 1,15,-1
 128 448 l 1,16,-1
 192 448 l 1,17,-1
 192 512 l 1,18,-1
 256 512 l 1,19,-1
 256 384 l 1,12,-1
EndSplineSet
Validated: 1
EndChar

StartChar: Gdotaccent
Encoding: 288 288 225
Width: 384
Flags: W
HStem: 0 64<64 256> 192 64<192 256> 384 64<64 320> 512 64<128 192>
VStem: 0 64<64 384> 128 64<512 576> 192 128<192 256> 256 64<64 192>
LayerCount: 2
Fore
SplineSet
128 512 m 1,0,-1
 128 576 l 1,1,-1
 192 576 l 1,2,-1
 192 512 l 1,3,-1
 128 512 l 1,0,-1
320 0 m 1,4,-1
 0 0 l 1,5,-1
 0 448 l 1,6,-1
 320 448 l 1,7,-1
 320 384 l 1,8,-1
 64 384 l 1,9,-1
 64 64 l 1,10,-1
 256 64 l 1,11,-1
 256 192 l 1,12,-1
 192 192 l 1,13,-1
 192 256 l 1,14,-1
 320 256 l 1,15,-1
 320 0 l 1,4,-1
EndSplineSet
Validated: 1
EndChar

StartChar: gdotaccent
Encoding: 289 289 226
Width: 384
Flags: W
HStem: -128 64<0 256> 0 64<64 256> 256 64<64 256> 384 64<128 192>
VStem: 0 64<64 256> 128 64<384 448> 256 64<-64 0 64 256>
CounterMasks: 1 0e
LayerCount: 2
Fore
SplineSet
128 384 m 1,0,-1
 128 448 l 1,1,-1
 192 448 l 1,2,-1
 192 384 l 1,3,-1
 128 384 l 1,0,-1
320 -128 m 1,4,-1
 0 -128 l 1,5,-1
 0 -64 l 1,6,-1
 256 -64 l 1,7,-1
 256 0 l 1,8,-1
 0 0 l 1,9,-1
 0 320 l 1,10,-1
 320 320 l 1,11,-1
 320 -128 l 1,4,-1
64 64 m 1,12,-1
 256 64 l 1,13,-1
 256 256 l 1,14,-1
 64 256 l 1,15,-1
 64 64 l 1,12,-1
EndSplineSet
Validated: 1
EndChar

StartChar: Gcommaaccent
Encoding: 290 290 227
Width: 384
Flags: W
HStem: -128 64<64 128> -64 128<128 192> 0 64<64 128 192 256> 192 64<192 256> 384 64<64 320>
VStem: 0 64<64 384> 64 64<-128 -64> 192 128<192 256> 256 64<64 192>
LayerCount: 2
Fore
SplineSet
64 -128 m 1,0,-1
 64 -64 l 1,1,-1
 128 -64 l 1,2,-1
 128 -128 l 1,3,-1
 64 -128 l 1,0,-1
128 -64 m 1,4,-1
 128 0 l 1,5,-1
 0 0 l 1,6,-1
 0 448 l 1,7,-1
 320 448 l 1,8,-1
 320 384 l 1,9,-1
 64 384 l 1,10,-1
 64 64 l 1,11,-1
 256 64 l 1,12,-1
 256 192 l 1,13,-1
 192 192 l 1,14,-1
 192 256 l 1,15,-1
 320 256 l 1,16,-1
 320 0 l 1,17,-1
 192 0 l 1,18,-1
 192 -64 l 1,19,-1
 128 -64 l 1,4,-1
EndSplineSet
Validated: 5
EndChar

StartChar: gcommaaccent
Encoding: 291 291 228
Width: 384
Flags: W
HStem: -128 64<0 256> 0 64<64 256> 256 64<64 256> 384 64<128 192> 448 64<192 256>
VStem: 0 64<64 256> 128 64<384 448> 192 64<448 512> 256 64<-64 0 64 256>
LayerCount: 2
Fore
SplineSet
128 384 m 1,0,-1
 128 448 l 1,1,-1
 192 448 l 1,2,-1
 192 384 l 1,3,-1
 128 384 l 1,0,-1
320 -128 m 1,4,-1
 0 -128 l 1,5,-1
 0 -64 l 1,6,-1
 256 -64 l 1,7,-1
 256 0 l 1,8,-1
 0 0 l 1,9,-1
 0 320 l 1,10,-1
 320 320 l 1,11,-1
 320 -128 l 1,4,-1
64 64 m 1,12,-1
 256 64 l 1,13,-1
 256 256 l 1,14,-1
 64 256 l 1,15,-1
 64 64 l 1,12,-1
192 448 m 1,16,-1
 192 512 l 1,17,-1
 256 512 l 1,18,-1
 256 448 l 1,19,-1
 192 448 l 1,16,-1
EndSplineSet
Validated: 5
EndChar

StartChar: Hcircumflex
Encoding: 292 292 229
Width: 384
Flags: W
HStem: 0 21G<0 64 256 320> 192 64<64 256> 428 20G<0 64 256 320> 512 64<64 128 192 256> 576 64<128 192>
VStem: 0 64<0 192 256 448> 64 64<512 576> 128 64<576 640> 192 64<512 576> 256 64<0 192 256 448>
LayerCount: 2
Fore
SplineSet
256 0 m 1,0,-1
 256 192 l 1,1,-1
 64 192 l 1,2,-1
 64 0 l 1,3,-1
 0 0 l 1,4,-1
 0 448 l 1,5,-1
 64 448 l 1,6,-1
 64 256 l 1,7,-1
 256 256 l 1,8,-1
 256 448 l 1,9,-1
 320 448 l 1,10,-1
 320 0 l 1,11,-1
 256 0 l 1,0,-1
192 512 m 1,12,-1
 192 576 l 1,13,-1
 256 576 l 1,14,-1
 256 512 l 1,15,-1
 192 512 l 1,12,-1
64 512 m 1,16,-1
 64 576 l 1,17,-1
 128 576 l 1,18,-1
 128 512 l 1,19,-1
 64 512 l 1,16,-1
192 576 m 1,20,-1
 128 576 l 1,21,-1
 128 640 l 1,22,-1
 192 640 l 1,23,-1
 192 576 l 1,20,-1
EndSplineSet
Validated: 5
EndChar

StartChar: hcircumflex
Encoding: 293 293 230
Width: 384
Flags: W
HStem: 0 21G<0 64 256 320> 256 64<64 256> 428 20G<0 64> 512 64<64 128 192 256> 576 64<128 192>
VStem: 0 64<0 256 320 448> 64 64<512 576> 128 64<576 640> 192 64<512 576> 256 64<0 256>
LayerCount: 2
Fore
SplineSet
256 0 m 1,0,-1
 256 256 l 1,1,-1
 64 256 l 1,2,-1
 64 0 l 1,3,-1
 0 0 l 1,4,-1
 0 448 l 1,5,-1
 64 448 l 1,6,-1
 64 320 l 1,7,-1
 320 320 l 1,8,-1
 320 0 l 1,9,-1
 256 0 l 1,0,-1
192 512 m 1,10,-1
 192 576 l 1,11,-1
 256 576 l 1,12,-1
 256 512 l 1,13,-1
 192 512 l 1,10,-1
64 512 m 1,14,-1
 64 576 l 1,15,-1
 128 576 l 1,16,-1
 128 512 l 1,17,-1
 64 512 l 1,14,-1
192 576 m 1,18,-1
 128 576 l 1,19,-1
 128 640 l 1,20,-1
 192 640 l 1,21,-1
 192 576 l 1,18,-1
EndSplineSet
Validated: 5
EndChar

StartChar: Hbar
Encoding: 294 294 231
Width: 384
Flags: W
HStem: 0 21G<64 128 192 256> 192 64<128 192> 320 64<0 64 128 192 256 320> 428 20G<64 128 192 256>
VStem: 64 64<0 192 256 320 384 448> 192 64<0 192 256 320 384 448>
LayerCount: 2
Fore
SplineSet
192 0 m 1,0,-1
 192 192 l 1,1,-1
 128 192 l 1,2,-1
 128 0 l 1,3,-1
 64 0 l 1,4,-1
 64 320 l 1,5,-1
 0 320 l 1,6,-1
 0 384 l 1,7,-1
 64 384 l 1,8,-1
 64 448 l 1,9,-1
 128 448 l 1,10,-1
 128 384 l 1,11,-1
 192 384 l 1,12,-1
 192 448 l 1,13,-1
 256 448 l 1,14,-1
 256 384 l 1,15,-1
 320 384 l 1,16,-1
 320 320 l 1,17,-1
 256 320 l 1,18,-1
 256 0 l 1,19,-1
 192 0 l 1,0,-1
192 256 m 1,20,-1
 192 320 l 1,21,-1
 128 320 l 1,22,-1
 128 256 l 1,23,-1
 192 256 l 1,20,-1
EndSplineSet
Validated: 1
EndChar

StartChar: hbar
Encoding: 295 295 232
Width: 448
Flags: W
HStem: 0 21G<64 128 320 384> 256 64<128 320> 384 64<0 64 128 192>
VStem: 64 64<0 256 320 384 448 512> 320 64<0 256>
LayerCount: 2
Fore
SplineSet
320 0 m 1,0,-1
 320 256 l 1,1,-1
 128 256 l 1,2,-1
 128 0 l 1,3,-1
 64 0 l 1,4,-1
 64 384 l 1,5,-1
 0 384 l 1,6,-1
 0 448 l 1,7,-1
 64 448 l 1,8,-1
 64 512 l 1,9,-1
 128 512 l 1,10,-1
 128 448 l 1,11,-1
 192 448 l 1,12,-1
 192 384 l 1,13,-1
 128 384 l 1,14,-1
 128 320 l 1,15,-1
 384 320 l 1,16,-1
 384 0 l 1,17,-1
 320 0 l 1,0,-1
EndSplineSet
Validated: 1
EndChar

StartChar: Itilde
Encoding: 296 296 233
Width: 256
Flags: W
HStem: 0 21G<0 64> 428 20G<0 64> 512 64<-64 0 64 128> 576 64<0 64 128 192>
VStem: -64 64<512 576> 0 64<0 448 576 640> 64 64<512 576> 128 64<576 640>
LayerCount: 2
Fore
SplineSet
0 0 m 1,0,-1
 0 448 l 1,1,-1
 64 448 l 1,2,-1
 64 0 l 1,3,-1
 0 0 l 1,0,-1
64 512 m 1,4,-1
 64 576 l 1,5,-1
 128 576 l 1,6,-1
 128 512 l 1,7,-1
 64 512 l 1,4,-1
-64 512 m 1,8,-1
 -64 576 l 1,9,-1
 0 576 l 1,10,-1
 0 512 l 1,11,-1
 -64 512 l 1,8,-1
128 576 m 1,12,-1
 128 640 l 1,13,-1
 192 640 l 1,14,-1
 192 576 l 1,15,-1
 128 576 l 1,12,-1
64 576 m 1,16,-1
 0 576 l 1,17,-1
 0 640 l 1,18,-1
 64 640 l 1,19,-1
 64 576 l 1,16,-1
EndSplineSet
Validated: 5
EndChar

StartChar: itilde
Encoding: 297 297 234
Width: 320
Flags: W
HStem: 0 21G<64 128> 300 20G<64 128> 384 64<0 64 128 192> 448 64<64 128 192 256>
VStem: 0 64<384 448> 64 64<0 320 448 512> 128 64<384 448> 192 64<448 512>
LayerCount: 2
Fore
SplineSet
64 0 m 1,0,-1
 64 320 l 1,1,-1
 128 320 l 1,2,-1
 128 0 l 1,3,-1
 64 0 l 1,0,-1
128 384 m 1,4,-1
 128 448 l 1,5,-1
 192 448 l 1,6,-1
 192 384 l 1,7,-1
 128 384 l 1,4,-1
0 384 m 1,8,-1
 0 448 l 1,9,-1
 64 448 l 1,10,-1
 64 384 l 1,11,-1
 0 384 l 1,8,-1
192 448 m 1,12,-1
 192 512 l 1,13,-1
 256 512 l 1,14,-1
 256 448 l 1,15,-1
 192 448 l 1,12,-1
128 448 m 1,16,-1
 64 448 l 1,17,-1
 64 512 l 1,18,-1
 128 512 l 1,19,-1
 128 448 l 1,16,-1
EndSplineSet
Validated: 5
EndChar

StartChar: Imacron
Encoding: 298 298 235
Width: 192
Flags: W
HStem: 0 21G<0 64> 428 20G<0 64> 512 64<-64 128>
VStem: 0 64<0 448>
LayerCount: 2
Fore
SplineSet
0 0 m 1,0,-1
 0 448 l 1,1,-1
 64 448 l 1,2,-1
 64 0 l 1,3,-1
 0 0 l 1,0,-1
-64 576 m 1,4,-1
 128 576 l 1,5,-1
 128 512 l 1,6,-1
 -64 512 l 1,7,-1
 -64 576 l 1,4,-1
EndSplineSet
Validated: 1
EndChar

StartChar: imacron
Encoding: 299 299 236
Width: 256
Flags: W
HStem: 0 21G<64 128> 300 20G<64 128> 384 64<0 192>
VStem: 64 64<0 320>
LayerCount: 2
Fore
SplineSet
64 0 m 1,0,-1
 64 320 l 1,1,-1
 128 320 l 1,2,-1
 128 0 l 1,3,-1
 64 0 l 1,0,-1
0 448 m 1,4,-1
 192 448 l 1,5,-1
 192 384 l 1,6,-1
 0 384 l 1,7,-1
 0 448 l 1,4,-1
EndSplineSet
Validated: 1
EndChar

StartChar: Ibreve
Encoding: 300 300 237
Width: 192
Flags: W
HStem: 0 21G<0 64> 428 20G<0 64> 512 128<-64 0 64 128> 512 64<0 64>
VStem: -64 64<576 640> 0 64<0 448> 64 64<576 640>
LayerCount: 2
Fore
SplineSet
0 0 m 1,0,-1
 0 448 l 1,1,-1
 64 448 l 1,2,-1
 64 0 l 1,3,-1
 0 0 l 1,0,-1
128 512 m 1,4,-1
 -64 512 l 1,5,-1
 -64 640 l 1,6,-1
 0 640 l 1,7,-1
 0 576 l 1,8,-1
 64 576 l 1,9,-1
 64 640 l 1,10,-1
 128 640 l 1,11,-1
 128 512 l 1,4,-1
EndSplineSet
Validated: 1
EndChar

StartChar: ibreve
Encoding: 301 301 238
Width: 256
Flags: W
HStem: 0 21G<64 128> 428 20G<64 128> 512 128<0 64 128 192> 512 64<64 128>
VStem: 0 64<576 640> 64 64<0 448> 128 64<576 640>
LayerCount: 2
Fore
SplineSet
64 0 m 1,0,-1
 64 448 l 1,1,-1
 128 448 l 1,2,-1
 128 0 l 1,3,-1
 64 0 l 1,0,-1
192 512 m 1,4,-1
 0 512 l 1,5,-1
 0 640 l 1,6,-1
 64 640 l 1,7,-1
 64 576 l 1,8,-1
 128 576 l 1,9,-1
 128 640 l 1,10,-1
 192 640 l 1,11,-1
 192 512 l 1,4,-1
EndSplineSet
Validated: 1
EndChar

StartChar: Iogonek
Encoding: 302 302 239
Width: 128
Flags: W
HStem: -128 64<0 64> -64 64<-64 0> 0 21G<0 64> 428 20G<0 64>
VStem: -64 64<-64 0> 0 64<-128 -64 0 448>
LayerCount: 2
Fore
SplineSet
0 -128 m 1,0,-1
 0 -64 l 1,1,-1
 64 -64 l 1,2,-1
 64 -128 l 1,3,-1
 0 -128 l 1,0,-1
0 -64 m 1,4,-1
 -64 -64 l 1,5,-1
 -64 0 l 1,6,-1
 0 0 l 1,7,-1
 0 -64 l 1,4,-1
0 0 m 1,8,-1
 0 448 l 1,9,-1
 64 448 l 1,10,-1
 64 0 l 1,11,-1
 0 0 l 1,8,-1
EndSplineSet
Validated: 5
EndChar

StartChar: iogonek
Encoding: 303 303 240
Width: 192
Flags: W
HStem: -128 64<64 128> -64 64<0 64> 0 21G<64 128> 300 20G<64 128> 384 64<64 128>
VStem: 0 64<-64 0> 64 64<-128 -64 0 320 384 448>
LayerCount: 2
Fore
SplineSet
64 -128 m 1,0,-1
 64 -64 l 1,1,-1
 128 -64 l 1,2,-1
 128 -128 l 1,3,-1
 64 -128 l 1,0,-1
64 384 m 1,4,-1
 64 448 l 1,5,-1
 128 448 l 1,6,-1
 128 384 l 1,7,-1
 64 384 l 1,4,-1
64 -64 m 1,8,-1
 0 -64 l 1,9,-1
 0 0 l 1,10,-1
 64 0 l 1,11,-1
 64 -64 l 1,8,-1
64 0 m 1,12,-1
 64 320 l 1,13,-1
 128 320 l 1,14,-1
 128 0 l 1,15,-1
 64 0 l 1,12,-1
EndSplineSet
Validated: 5
EndChar

StartChar: Idotaccent
Encoding: 304 304 241
Width: 128
Flags: W
HStem: 0 21G<0 64> 428 20G<0 64> 512 64<0 64>
VStem: 0 64<0 448 512 576>
LayerCount: 2
Fore
SplineSet
0 0 m 1,0,-1
 0 448 l 1,1,-1
 64 448 l 1,2,-1
 64 0 l 1,3,-1
 0 0 l 1,0,-1
0 512 m 1,4,-1
 0 576 l 1,5,-1
 64 576 l 1,6,-1
 64 512 l 1,7,-1
 0 512 l 1,4,-1
EndSplineSet
Validated: 1
EndChar

StartChar: dotlessi
Encoding: 305 305 242
Width: 128
Flags: W
HStem: 0 21G<0 64> 428 20G<0 64>
VStem: 0 64<0 448>
LayerCount: 2
Fore
SplineSet
0 0 m 1,0,-1
 0 448 l 1,1,-1
 64 448 l 1,2,-1
 64 0 l 1,3,-1
 0 0 l 1,0,-1
EndSplineSet
Validated: 1
EndChar

StartChar: IJ
Encoding: 306 306 243
Width: 384
Flags: W
HStem: 0 64<128 256> 428 20G<0 64 256 320>
VStem: 0 64<0 448> 256 64<64 448>
LayerCount: 2
Fore
SplineSet
0 0 m 1,0,-1
 0 448 l 1,1,-1
 64 448 l 1,2,-1
 64 0 l 1,3,-1
 0 0 l 1,0,-1
320 0 m 1,4,-1
 128 0 l 1,5,-1
 128 64 l 1,6,-1
 256 64 l 1,7,-1
 256 448 l 1,8,-1
 320 448 l 1,9,-1
 320 0 l 1,4,-1
EndSplineSet
Validated: 1
EndChar

StartChar: ij
Encoding: 307 307 244
Width: 256
Flags: W
HStem: -128 21G<128 192> 0 21G<0 64> 300 20G<0 64 128 192> 384 64<0 64 128 192>
VStem: 0 64<0 320 384 448> 128 64<-128 320 384 448>
LayerCount: 2
Fore
SplineSet
128 -128 m 1,0,-1
 128 320 l 1,1,-1
 192 320 l 1,2,-1
 192 -128 l 1,3,-1
 128 -128 l 1,0,-1
0 0 m 1,4,-1
 0 320 l 1,5,-1
 64 320 l 1,6,-1
 64 0 l 1,7,-1
 0 0 l 1,4,-1
128 384 m 1,8,-1
 128 448 l 1,9,-1
 192 448 l 1,10,-1
 192 384 l 1,11,-1
 128 384 l 1,8,-1
0 384 m 1,12,-1
 0 448 l 1,13,-1
 64 448 l 1,14,-1
 64 384 l 1,15,-1
 0 384 l 1,12,-1
EndSplineSet
Validated: 1
EndChar

StartChar: Jcircumflex
Encoding: 308 308 245
Width: 320
Flags: W
HStem: 0 64<0 128> 428 20G<128 192> 448 64<64 128 192 256> 512 64<128 192>
VStem: 64 64<448 512> 128 64<64 448 512 576> 192 64<448 512>
LayerCount: 2
Fore
SplineSet
192 0 m 1,0,-1
 0 0 l 1,1,-1
 0 64 l 1,2,-1
 128 64 l 1,3,-1
 128 448 l 1,4,-1
 192 448 l 1,5,-1
 192 0 l 1,0,-1
192 448 m 1,6,-1
 192 512 l 1,7,-1
 256 512 l 1,8,-1
 256 448 l 1,9,-1
 192 448 l 1,6,-1
128 448 m 1,10,-1
 64 448 l 1,11,-1
 64 512 l 1,12,-1
 128 512 l 1,13,-1
 128 448 l 1,10,-1
192 512 m 1,14,-1
 128 512 l 1,15,-1
 128 576 l 1,16,-1
 192 576 l 1,17,-1
 192 512 l 1,14,-1
EndSplineSet
Validated: 5
EndChar

StartChar: jcircumflex
Encoding: 309 309 246
Width: 128
Flags: W
HStem: -128 21G<0 64> 300 20G<0 64> 384 64<0 64>
VStem: 0 64<-128 320 384 448>
LayerCount: 2
Fore
SplineSet
0 -128 m 1,0,-1
 0 320 l 1,1,-1
 64 320 l 1,2,-1
 64 -128 l 1,3,-1
 0 -128 l 1,0,-1
0 384 m 1,4,-1
 0 448 l 1,5,-1
 64 448 l 1,6,-1
 64 384 l 1,7,-1
 0 384 l 1,4,-1
EndSplineSet
Validated: 1
EndChar

StartChar: Kcommaaccent
Encoding: 310 310 247
Width: 384
Flags: W
HStem: -128 64<64 128> -64 64<128 192> 0 21G<0 64 256 320> 192 64<64 256> 428 20G<0 64 256 320>
VStem: 0 64<0 192 256 448> 64 64<-128 -64> 128 64<-64 0> 256 64<0 192 256 448>
LayerCount: 2
Fore
SplineSet
64 -128 m 1,0,-1
 64 -64 l 1,1,-1
 128 -64 l 1,2,-1
 128 -128 l 1,3,-1
 64 -128 l 1,0,-1
256 0 m 1,4,-1
 256 192 l 1,5,-1
 320 192 l 1,6,-1
 320 0 l 1,7,-1
 256 0 l 1,4,-1
0 0 m 1,8,-1
 0 448 l 1,9,-1
 64 448 l 1,10,-1
 64 256 l 1,11,-1
 256 256 l 1,12,-1
 256 192 l 1,13,-1
 64 192 l 1,14,-1
 64 0 l 1,15,-1
 0 0 l 1,8,-1
128 -64 m 1,16,-1
 128 0 l 1,17,-1
 192 0 l 1,18,-1
 192 -64 l 1,19,-1
 128 -64 l 1,16,-1
256 256 m 1,20,-1
 256 448 l 1,21,-1
 320 448 l 1,22,-1
 320 256 l 1,23,-1
 256 256 l 1,20,-1
EndSplineSet
Validated: 5
EndChar

StartChar: kcommaaccent
Encoding: 311 311 248
Width: 384
Flags: W
HStem: -128 64<64 128> -64 64<128 192> 0 128<256 320> 128 64<64 256> 192 128<256 320> 428 20G<0 64>
VStem: 0 64<0 128 192 448> 64 64<-128 -64> 128 64<-64 0> 256 64<0 128 192 320>
LayerCount: 2
Fore
SplineSet
64 -128 m 1,0,-1
 64 -64 l 1,1,-1
 128 -64 l 1,2,-1
 128 -128 l 1,3,-1
 64 -128 l 1,0,-1
256 0 m 1,4,-1
 256 128 l 1,5,-1
 320 128 l 1,6,-1
 320 0 l 1,7,-1
 256 0 l 1,4,-1
0 0 m 1,8,-1
 0 448 l 1,9,-1
 64 448 l 1,10,-1
 64 192 l 1,11,-1
 256 192 l 1,12,-1
 256 128 l 1,13,-1
 64 128 l 1,14,-1
 64 0 l 1,15,-1
 0 0 l 1,8,-1
128 -64 m 1,16,-1
 128 0 l 1,17,-1
 192 0 l 1,18,-1
 192 -64 l 1,19,-1
 128 -64 l 1,16,-1
256 192 m 1,20,-1
 256 320 l 1,21,-1
 320 320 l 1,22,-1
 320 192 l 1,23,-1
 256 192 l 1,20,-1
EndSplineSet
Validated: 5
EndChar

StartChar: kgreenlandic
Encoding: 312 312 249
Width: 384
Flags: W
HStem: 0 128<256 320> 128 64<64 256> 192 128<256 320>
VStem: 0 64<0 128 192 320> 256 64<0 128 192 320>
LayerCount: 2
Fore
SplineSet
256 0 m 1,0,-1
 256 128 l 1,1,-1
 320 128 l 1,2,-1
 320 0 l 1,3,-1
 256 0 l 1,0,-1
0 0 m 1,4,-1
 0 320 l 1,5,-1
 64 320 l 1,6,-1
 64 192 l 1,7,-1
 256 192 l 1,8,-1
 256 128 l 1,9,-1
 64 128 l 1,10,-1
 64 0 l 1,11,-1
 0 0 l 1,4,-1
256 192 m 1,12,-1
 256 320 l 1,13,-1
 320 320 l 1,14,-1
 320 192 l 1,15,-1
 256 192 l 1,12,-1
EndSplineSet
Validated: 5
EndChar

StartChar: Lacute
Encoding: 313 313 250
Width: 384
Flags: W
HStem: 0 64<64 320> 428 20G<0 64> 512 64<0 64> 576 64<64 128>
VStem: 0 64<64 448 512 576> 64 64<576 640>
LayerCount: 2
Fore
SplineSet
0 512 m 1,0,-1
 0 576 l 1,1,-1
 64 576 l 1,2,-1
 64 512 l 1,3,-1
 0 512 l 1,0,-1
64 64 m 1,4,-1
 320 64 l 1,5,-1
 320 0 l 1,6,-1
 0 0 l 1,7,-1
 0 448 l 1,8,-1
 64 448 l 1,9,-1
 64 64 l 1,4,-1
64 576 m 1,10,-1
 64 640 l 1,11,-1
 128 640 l 1,12,-1
 128 576 l 1,13,-1
 64 576 l 1,10,-1
EndSplineSet
Validated: 5
EndChar

StartChar: lacute
Encoding: 314 314 251
Width: 192
Flags: W
HStem: 0 21G<0 64> 428 20G<0 64> 512 64<0 64> 576 64<64 128>
VStem: 0 64<0 448 512 576> 64 64<576 640>
LayerCount: 2
Fore
SplineSet
0 0 m 1,0,-1
 0 448 l 1,1,-1
 64 448 l 1,2,-1
 64 0 l 1,3,-1
 0 0 l 1,0,-1
0 512 m 1,4,-1
 0 576 l 1,5,-1
 64 576 l 1,6,-1
 64 512 l 1,7,-1
 0 512 l 1,4,-1
64 576 m 1,8,-1
 64 640 l 1,9,-1
 128 640 l 1,10,-1
 128 576 l 1,11,-1
 64 576 l 1,8,-1
EndSplineSet
Validated: 5
EndChar

StartChar: Lcommaaccent
Encoding: 315 315 252
Width: 384
Flags: W
HStem: -128 64<64 128> -64 128<128 192> 0 64<64 128 192 320> 428 20G<0 64>
VStem: 0 64<64 448> 64 64<-128 -64>
LayerCount: 2
Fore
SplineSet
64 -128 m 1,0,-1
 64 -64 l 1,1,-1
 128 -64 l 1,2,-1
 128 -128 l 1,3,-1
 64 -128 l 1,0,-1
128 -64 m 1,4,-1
 128 0 l 1,5,-1
 0 0 l 1,6,-1
 0 448 l 1,7,-1
 64 448 l 1,8,-1
 64 64 l 1,9,-1
 320 64 l 1,10,-1
 320 0 l 1,11,-1
 192 0 l 1,12,-1
 192 -64 l 1,13,-1
 128 -64 l 1,4,-1
EndSplineSet
Validated: 5
EndChar

StartChar: lcommaaccent
Encoding: 316 316 253
Width: 128
Flags: W
HStem: -192 64<-64 0> -128 64<0 64> 0 21G<0 64> 428 20G<0 64>
VStem: -64 64<-192 -128> 0 64<-128 -64 0 448>
LayerCount: 2
Fore
SplineSet
-64 -192 m 1,0,-1
 -64 -128 l 1,1,-1
 0 -128 l 1,2,-1
 0 -192 l 1,3,-1
 -64 -192 l 1,0,-1
0 0 m 1,4,-1
 0 448 l 1,5,-1
 64 448 l 1,6,-1
 64 0 l 1,7,-1
 0 0 l 1,4,-1
0 -128 m 1,8,-1
 0 -64 l 1,9,-1
 64 -64 l 1,10,-1
 64 -128 l 1,11,-1
 0 -128 l 1,8,-1
EndSplineSet
Validated: 5
EndChar

StartChar: Lcaron
Encoding: 317 317 254
Width: 384
Flags: W
HStem: 0 64<64 320> 428 20G<0 64> 512 64<128 192> 576 64<192 256>
VStem: 0 64<64 448> 128 64<512 576> 192 64<576 640>
LayerCount: 2
Fore
SplineSet
128 512 m 1,0,-1
 128 576 l 1,1,-1
 192 576 l 1,2,-1
 192 512 l 1,3,-1
 128 512 l 1,0,-1
64 64 m 1,4,-1
 320 64 l 1,5,-1
 320 0 l 1,6,-1
 0 0 l 1,7,-1
 0 448 l 1,8,-1
 64 448 l 1,9,-1
 64 64 l 1,4,-1
192 576 m 1,10,-1
 192 640 l 1,11,-1
 256 640 l 1,12,-1
 256 576 l 1,13,-1
 192 576 l 1,10,-1
EndSplineSet
Validated: 5
EndChar

StartChar: lcaron
Encoding: 318 318 255
Width: 320
Flags: W
HStem: 0 21G<0 64> 448 64<128 192> 512 64<192 256>
VStem: 0 64<0 576> 128 64<448 512> 192 64<512 576>
LayerCount: 2
Fore
SplineSet
0 0 m 1,0,-1
 0 576 l 1,1,-1
 64 576 l 1,2,-1
 64 0 l 1,3,-1
 0 0 l 1,0,-1
128 448 m 1,4,-1
 128 512 l 1,5,-1
 192 512 l 1,6,-1
 192 448 l 1,7,-1
 128 448 l 1,4,-1
192 512 m 1,8,-1
 192 576 l 1,9,-1
 256 576 l 1,10,-1
 256 512 l 1,11,-1
 192 512 l 1,8,-1
EndSplineSet
Validated: 5
EndChar

StartChar: Ldot
Encoding: 319 319 256
Width: 384
Flags: W
HStem: 0 64<64 320> 192 64<128 192> 428 20G<0 64>
VStem: 0 64<64 448> 128 64<192 256>
LayerCount: 2
Fore
SplineSet
128 192 m 1,0,-1
 128 256 l 1,1,-1
 192 256 l 1,2,-1
 192 192 l 1,3,-1
 128 192 l 1,0,-1
64 64 m 1,4,-1
 320 64 l 1,5,-1
 320 0 l 1,6,-1
 0 0 l 1,7,-1
 0 448 l 1,8,-1
 64 448 l 1,9,-1
 64 64 l 1,4,-1
EndSplineSet
Validated: 1
EndChar

StartChar: ldot
Encoding: 320 320 257
Width: 256
Flags: W
HStem: 0 21G<0 64> 192 64<128 192> 428 20G<0 64>
VStem: 0 64<0 448> 128 64<192 256>
LayerCount: 2
Fore
SplineSet
0 0 m 1,0,-1
 0 448 l 1,1,-1
 64 448 l 1,2,-1
 64 0 l 1,3,-1
 0 0 l 1,0,-1
128 192 m 1,4,-1
 128 256 l 1,5,-1
 192 256 l 1,6,-1
 192 192 l 1,7,-1
 128 192 l 1,4,-1
EndSplineSet
Validated: 1
EndChar

StartChar: Lslash
Encoding: 321 321 258
Width: 384
Flags: W
HStem: 0 64<128 320> 128 64<0 64> 320 64<192 256> 428 20G<64 128>
VStem: 0 128<128 192> 64 128<256 320> 64 64<64 128 192 256 320 448> 192 64<320 384>
LayerCount: 2
Fore
SplineSet
128 64 m 1,0,-1
 320 64 l 1,1,-1
 320 0 l 1,2,-1
 64 0 l 1,3,-1
 64 128 l 1,4,-1
 0 128 l 1,5,-1
 0 192 l 1,6,-1
 64 192 l 1,7,-1
 64 448 l 1,8,-1
 128 448 l 1,9,-1
 128 320 l 1,10,-1
 192 320 l 1,11,-1
 192 256 l 1,12,-1
 128 256 l 1,13,-1
 128 64 l 1,0,-1
192 320 m 1,14,-1
 192 384 l 1,15,-1
 256 384 l 1,16,-1
 256 320 l 1,17,-1
 192 320 l 1,14,-1
EndSplineSet
Validated: 5
EndChar

StartChar: lslash
Encoding: 322 322 259
Width: 256
Flags: W
HStem: 0 21G<64 128> 128 64<0 64> 256 64<128 192> 428 20G<64 128>
VStem: 0 128<128 192> 64 128<256 320> 64 64<0 128 192 256 320 448>
LayerCount: 2
Fore
SplineSet
64 0 m 1,0,-1
 64 128 l 1,1,-1
 0 128 l 1,2,-1
 0 192 l 1,3,-1
 64 192 l 1,4,-1
 64 448 l 1,5,-1
 128 448 l 1,6,-1
 128 320 l 1,7,-1
 192 320 l 1,8,-1
 192 256 l 1,9,-1
 128 256 l 1,10,-1
 128 0 l 1,11,-1
 64 0 l 1,0,-1
EndSplineSet
Validated: 1
EndChar

StartChar: Nacute
Encoding: 323 323 260
Width: 384
Flags: W
HStem: 0 21G<0 64 256 320> 384 64<64 256> 512 64<128 192> 576 64<192 256>
VStem: 0 64<0 384> 128 64<512 576> 192 64<576 640> 256 64<0 384>
LayerCount: 2
Fore
SplineSet
256 0 m 1,0,-1
 256 384 l 1,1,-1
 64 384 l 1,2,-1
 64 0 l 1,3,-1
 0 0 l 1,4,-1
 0 448 l 1,5,-1
 320 448 l 1,6,-1
 320 0 l 1,7,-1
 256 0 l 1,0,-1
128 512 m 1,8,-1
 128 576 l 1,9,-1
 192 576 l 1,10,-1
 192 512 l 1,11,-1
 128 512 l 1,8,-1
192 576 m 1,12,-1
 192 640 l 1,13,-1
 256 640 l 1,14,-1
 256 576 l 1,15,-1
 192 576 l 1,12,-1
EndSplineSet
Validated: 5
EndChar

StartChar: nacute
Encoding: 324 324 261
Width: 384
Flags: W
HStem: 0 21G<0 64 256 320> 256 64<64 256> 384 64<128 192> 448 64<192 256>
VStem: 0 64<0 256> 128 64<384 448> 192 64<448 512> 256 64<0 256>
LayerCount: 2
Fore
SplineSet
256 0 m 1,0,-1
 256 256 l 1,1,-1
 64 256 l 1,2,-1
 64 0 l 1,3,-1
 0 0 l 1,4,-1
 0 320 l 1,5,-1
 320 320 l 1,6,-1
 320 0 l 1,7,-1
 256 0 l 1,0,-1
128 384 m 1,8,-1
 128 448 l 1,9,-1
 192 448 l 1,10,-1
 192 384 l 1,11,-1
 128 384 l 1,8,-1
192 448 m 1,12,-1
 192 512 l 1,13,-1
 256 512 l 1,14,-1
 256 448 l 1,15,-1
 192 448 l 1,12,-1
EndSplineSet
Validated: 5
EndChar

StartChar: Ncommaaccent
Encoding: 325 325 262
Width: 384
Flags: W
HStem: -128 64<64 128> -64 64<128 192> 0 21G<0 64 256 320> 384 64<64 256>
VStem: 0 64<0 384> 64 64<-128 -64> 128 64<-64 0> 256 64<0 384>
LayerCount: 2
Fore
SplineSet
64 -128 m 1,0,-1
 64 -64 l 1,1,-1
 128 -64 l 1,2,-1
 128 -128 l 1,3,-1
 64 -128 l 1,0,-1
256 0 m 1,4,-1
 256 384 l 1,5,-1
 64 384 l 1,6,-1
 64 0 l 1,7,-1
 0 0 l 1,8,-1
 0 448 l 1,9,-1
 320 448 l 1,10,-1
 320 0 l 1,11,-1
 256 0 l 1,4,-1
128 -64 m 1,12,-1
 128 0 l 1,13,-1
 192 0 l 1,14,-1
 192 -64 l 1,15,-1
 128 -64 l 1,12,-1
EndSplineSet
Validated: 5
EndChar

StartChar: ncommaaccent
Encoding: 326 326 263
Width: 384
Flags: W
HStem: -128 64<64 128> -64 64<128 192> 0 21G<0 64 256 320> 256 64<64 256>
VStem: 0 64<0 256> 64 64<-128 -64> 128 64<-64 0> 256 64<0 256>
LayerCount: 2
Fore
SplineSet
64 -128 m 1,0,-1
 64 -64 l 1,1,-1
 128 -64 l 1,2,-1
 128 -128 l 1,3,-1
 64 -128 l 1,0,-1
256 0 m 1,4,-1
 256 256 l 1,5,-1
 64 256 l 1,6,-1
 64 0 l 1,7,-1
 0 0 l 1,8,-1
 0 320 l 1,9,-1
 320 320 l 1,10,-1
 320 0 l 1,11,-1
 256 0 l 1,4,-1
128 -64 m 1,12,-1
 128 0 l 1,13,-1
 192 0 l 1,14,-1
 192 -64 l 1,15,-1
 128 -64 l 1,12,-1
EndSplineSet
Validated: 5
EndChar

StartChar: Ncaron
Encoding: 327 327 264
Width: 384
Flags: W
HStem: 0 21G<0 64 256 320> 384 64<64 256> 512 64<128 192> 576 64<64 128 192 256>
VStem: 0 64<0 384> 64 64<576 640> 128 64<512 576> 192 64<576 640> 256 64<0 384>
LayerCount: 2
Fore
SplineSet
256 0 m 1,0,-1
 256 384 l 1,1,-1
 64 384 l 1,2,-1
 64 0 l 1,3,-1
 0 0 l 1,4,-1
 0 448 l 1,5,-1
 320 448 l 1,6,-1
 320 0 l 1,7,-1
 256 0 l 1,0,-1
128 512 m 1,8,-1
 128 576 l 1,9,-1
 192 576 l 1,10,-1
 192 512 l 1,11,-1
 128 512 l 1,8,-1
192 576 m 1,12,-1
 192 640 l 1,13,-1
 256 640 l 1,14,-1
 256 576 l 1,15,-1
 192 576 l 1,12,-1
128 576 m 1,16,-1
 64 576 l 1,17,-1
 64 640 l 1,18,-1
 128 640 l 1,19,-1
 128 576 l 1,16,-1
EndSplineSet
Validated: 5
EndChar

StartChar: ncaron
Encoding: 328 328 265
Width: 384
Flags: W
HStem: 0 21G<0 64 256 320> 256 64<64 256> 384 64<128 192> 448 64<64 128 192 256>
VStem: 0 64<0 256> 64 64<448 512> 128 64<384 448> 192 64<448 512> 256 64<0 256>
LayerCount: 2
Fore
SplineSet
256 0 m 1,0,-1
 256 256 l 1,1,-1
 64 256 l 1,2,-1
 64 0 l 1,3,-1
 0 0 l 1,4,-1
 0 320 l 1,5,-1
 320 320 l 1,6,-1
 320 0 l 1,7,-1
 256 0 l 1,0,-1
128 384 m 1,8,-1
 128 448 l 1,9,-1
 192 448 l 1,10,-1
 192 384 l 1,11,-1
 128 384 l 1,8,-1
192 448 m 1,12,-1
 192 512 l 1,13,-1
 256 512 l 1,14,-1
 256 448 l 1,15,-1
 192 448 l 1,12,-1
128 448 m 1,16,-1
 64 448 l 1,17,-1
 64 512 l 1,18,-1
 128 512 l 1,19,-1
 128 448 l 1,16,-1
EndSplineSet
Validated: 5
EndChar

StartChar: napostrophe
Encoding: 329 329 266
Width: 448
Flags: W
HStem: 0 21G<64 128 320 384> 256 64<128 320> 384 64<0 64> 448 64<64 128>
VStem: 0 64<384 448> 64 64<0 256 448 512> 320 64<0 256>
LayerCount: 2
Fore
SplineSet
320 0 m 1,0,-1
 320 256 l 1,1,-1
 128 256 l 1,2,-1
 128 0 l 1,3,-1
 64 0 l 1,4,-1
 64 320 l 1,5,-1
 384 320 l 1,6,-1
 384 0 l 1,7,-1
 320 0 l 1,0,-1
0 384 m 1,8,-1
 0 448 l 1,9,-1
 64 448 l 1,10,-1
 64 384 l 1,11,-1
 0 384 l 1,8,-1
64 448 m 1,12,-1
 64 512 l 1,13,-1
 128 512 l 1,14,-1
 128 448 l 1,15,-1
 64 448 l 1,12,-1
EndSplineSet
Validated: 5
EndChar

StartChar: Eng
Encoding: 330 330 267
Width: 384
Flags: W
HStem: -64 64<192 256> 0 21G<0 64 256 320> 384 64<64 256>
VStem: 0 64<0 384> 192 64<-64 0> 256 64<0 384>
LayerCount: 2
Fore
SplineSet
192 -64 m 1,0,-1
 192 0 l 1,1,-1
 256 0 l 1,2,-1
 256 -64 l 1,3,-1
 192 -64 l 1,0,-1
0 0 m 1,4,-1
 0 448 l 1,5,-1
 320 448 l 1,6,-1
 320 0 l 1,7,-1
 256 0 l 1,8,-1
 256 384 l 1,9,-1
 64 384 l 1,10,-1
 64 0 l 1,11,-1
 0 0 l 1,4,-1
EndSplineSet
Validated: 5
EndChar

StartChar: eng
Encoding: 331 331 268
Width: 384
Flags: W
HStem: -128 64<192 256> 0 21G<0 64> 256 64<64 256>
VStem: 0 64<0 256> 192 64<-128 -64> 256 64<-64 256>
LayerCount: 2
Fore
SplineSet
192 -128 m 1,0,-1
 192 -64 l 1,1,-1
 256 -64 l 1,2,-1
 256 -128 l 1,3,-1
 192 -128 l 1,0,-1
0 0 m 1,4,-1
 0 320 l 1,5,-1
 320 320 l 1,6,-1
 320 -64 l 1,7,-1
 256 -64 l 1,8,-1
 256 256 l 1,9,-1
 64 256 l 1,10,-1
 64 0 l 1,11,-1
 0 0 l 1,4,-1
EndSplineSet
Validated: 5
EndChar

StartChar: Omacron
Encoding: 332 332 269
Width: 384
Flags: W
HStem: 0 64<64 256> 384 64<64 256> 512 64<64 256>
VStem: 0 64<64 384> 256 64<64 384>
LayerCount: 2
Fore
SplineSet
320 0 m 1,0,-1
 0 0 l 1,1,-1
 0 448 l 1,2,-1
 320 448 l 1,3,-1
 320 0 l 1,0,-1
64 64 m 1,4,-1
 256 64 l 1,5,-1
 256 384 l 1,6,-1
 64 384 l 1,7,-1
 64 64 l 1,4,-1
64 576 m 1,8,-1
 256 576 l 1,9,-1
 256 512 l 1,10,-1
 64 512 l 1,11,-1
 64 576 l 1,8,-1
EndSplineSet
Validated: 1
EndChar

StartChar: omacron
Encoding: 333 333 270
Width: 384
Flags: W
HStem: 0 64<64 256> 256 64<64 256> 384 64<64 256>
VStem: 0 64<64 256> 256 64<64 256>
LayerCount: 2
Fore
SplineSet
320 0 m 1,0,-1
 0 0 l 1,1,-1
 0 320 l 1,2,-1
 320 320 l 1,3,-1
 320 0 l 1,0,-1
64 64 m 1,4,-1
 256 64 l 1,5,-1
 256 256 l 1,6,-1
 64 256 l 1,7,-1
 64 64 l 1,4,-1
64 448 m 1,8,-1
 256 448 l 1,9,-1
 256 384 l 1,10,-1
 64 384 l 1,11,-1
 64 448 l 1,8,-1
EndSplineSet
Validated: 1
EndChar

StartChar: Obreve
Encoding: 334 334 271
Width: 384
Flags: W
HStem: 0 64<64 256> 384 64<64 256> 512 128<64 128 192 256> 512 64<128 192>
VStem: 0 64<64 384> 64 64<576 640> 192 64<576 640> 256 64<64 384>
LayerCount: 2
Fore
SplineSet
320 0 m 1,0,-1
 0 0 l 1,1,-1
 0 448 l 1,2,-1
 320 448 l 1,3,-1
 320 0 l 1,0,-1
64 64 m 1,4,-1
 256 64 l 1,5,-1
 256 384 l 1,6,-1
 64 384 l 1,7,-1
 64 64 l 1,4,-1
256 512 m 1,8,-1
 64 512 l 1,9,-1
 64 640 l 1,10,-1
 128 640 l 1,11,-1
 128 576 l 1,12,-1
 192 576 l 1,13,-1
 192 640 l 1,14,-1
 256 640 l 1,15,-1
 256 512 l 1,8,-1
EndSplineSet
Validated: 1
EndChar

StartChar: obreve
Encoding: 335 335 272
Width: 384
Flags: W
HStem: 0 64<64 256> 256 64<64 256> 384 128<64 128 192 256> 384 64<128 192>
VStem: 0 64<64 256> 64 64<448 512> 192 64<448 512> 256 64<64 256>
LayerCount: 2
Fore
SplineSet
320 0 m 1,0,-1
 0 0 l 1,1,-1
 0 320 l 1,2,-1
 320 320 l 1,3,-1
 320 0 l 1,0,-1
64 64 m 1,4,-1
 256 64 l 1,5,-1
 256 256 l 1,6,-1
 64 256 l 1,7,-1
 64 64 l 1,4,-1
256 384 m 1,8,-1
 64 384 l 1,9,-1
 64 512 l 1,10,-1
 128 512 l 1,11,-1
 128 448 l 1,12,-1
 192 448 l 1,13,-1
 192 512 l 1,14,-1
 256 512 l 1,15,-1
 256 384 l 1,8,-1
EndSplineSet
Validated: 1
EndChar

StartChar: Ohungarumlaut
Encoding: 336 336 273
Width: 384
Flags: W
HStem: 0 64<64 256> 384 64<64 256> 512 64<0 64 192 256> 576 64<64 128 256 320>
VStem: 0 64<64 384 512 576> 64 64<576 640> 192 64<512 576> 256 64<64 384 576 640>
LayerCount: 2
Fore
SplineSet
192 512 m 1,0,-1
 192 576 l 1,1,-1
 256 576 l 1,2,-1
 256 512 l 1,3,-1
 192 512 l 1,0,-1
0 512 m 1,4,-1
 0 576 l 1,5,-1
 64 576 l 1,6,-1
 64 512 l 1,7,-1
 0 512 l 1,4,-1
320 0 m 1,8,-1
 0 0 l 1,9,-1
 0 448 l 1,10,-1
 320 448 l 1,11,-1
 320 0 l 1,8,-1
64 64 m 1,12,-1
 256 64 l 1,13,-1
 256 384 l 1,14,-1
 64 384 l 1,15,-1
 64 64 l 1,12,-1
256 576 m 1,16,-1
 256 640 l 1,17,-1
 320 640 l 1,18,-1
 320 576 l 1,19,-1
 256 576 l 1,16,-1
64 576 m 1,20,-1
 64 640 l 1,21,-1
 128 640 l 1,22,-1
 128 576 l 1,23,-1
 64 576 l 1,20,-1
EndSplineSet
Validated: 5
EndChar

StartChar: ohungarumlaut
Encoding: 337 337 274
Width: 384
Flags: W
HStem: 0 64<64 256> 256 64<64 256> 384 64<0 64 192 256> 448 64<64 128 256 320>
VStem: 0 64<64 256 384 448> 64 64<448 512> 192 64<384 448> 256 64<64 256 448 512>
LayerCount: 2
Fore
SplineSet
192 384 m 1,0,-1
 192 448 l 1,1,-1
 256 448 l 1,2,-1
 256 384 l 1,3,-1
 192 384 l 1,0,-1
0 384 m 1,4,-1
 0 448 l 1,5,-1
 64 448 l 1,6,-1
 64 384 l 1,7,-1
 0 384 l 1,4,-1
320 0 m 1,8,-1
 0 0 l 1,9,-1
 0 320 l 1,10,-1
 320 320 l 1,11,-1
 320 0 l 1,8,-1
64 64 m 1,12,-1
 256 64 l 1,13,-1
 256 256 l 1,14,-1
 64 256 l 1,15,-1
 64 64 l 1,12,-1
256 448 m 1,16,-1
 256 512 l 1,17,-1
 320 512 l 1,18,-1
 320 448 l 1,19,-1
 256 448 l 1,16,-1
64 448 m 1,20,-1
 64 512 l 1,21,-1
 128 512 l 1,22,-1
 128 448 l 1,23,-1
 64 448 l 1,20,-1
EndSplineSet
Validated: 5
EndChar

StartChar: OE
Encoding: 338 338 275
Width: 512
Flags: W
HStem: 0 64<64 192 256 448> 192 64<256 448> 384 64<64 192 256 448>
VStem: 0 64<64 384> 192 64<64 192 256 384>
CounterMasks: 1 e0
LayerCount: 2
Fore
SplineSet
256 64 m 1,0,-1
 448 64 l 1,1,-1
 448 0 l 1,2,-1
 0 0 l 1,3,-1
 0 448 l 1,4,-1
 448 448 l 1,5,-1
 448 384 l 1,6,-1
 256 384 l 1,7,-1
 256 256 l 1,8,-1
 448 256 l 1,9,-1
 448 192 l 1,10,-1
 256 192 l 1,11,-1
 256 64 l 1,0,-1
64 64 m 1,12,-1
 192 64 l 1,13,-1
 192 384 l 1,14,-1
 64 384 l 1,15,-1
 64 64 l 1,12,-1
EndSplineSet
Validated: 1
EndChar

StartChar: oe
Encoding: 339 339 276
Width: 512
Flags: W
HStem: 0 64<64 192 256 448> 128 64<256 384> 256 64<64 192 256 384>
VStem: 0 64<64 256> 192 64<64 128 192 256> 384 64<192 256>
CounterMasks: 1 fc
LayerCount: 2
Fore
SplineSet
256 64 m 1,0,-1
 448 64 l 1,1,-1
 448 0 l 1,2,-1
 0 0 l 1,3,-1
 0 320 l 1,4,-1
 448 320 l 1,5,-1
 448 128 l 1,6,-1
 256 128 l 1,7,-1
 256 64 l 1,0,-1
64 64 m 1,8,-1
 192 64 l 1,9,-1
 192 256 l 1,10,-1
 64 256 l 1,11,-1
 64 64 l 1,8,-1
256 192 m 1,12,-1
 384 192 l 1,13,-1
 384 256 l 1,14,-1
 256 256 l 1,15,-1
 256 192 l 1,12,-1
EndSplineSet
Validated: 1
EndChar

StartChar: Racute
Encoding: 340 340 277
Width: 384
Flags: W
HStem: 0 21G<0 64 256 320> 192 64<64 256> 384 64<64 256> 512 64<128 192> 576 64<192 256>
VStem: 0 64<0 192 256 384> 128 64<512 576> 192 64<576 640> 256 64<0 192 256 384>
LayerCount: 2
Fore
SplineSet
256 0 m 1,0,-1
 256 192 l 1,1,-1
 320 192 l 1,2,-1
 320 0 l 1,3,-1
 256 0 l 1,0,-1
0 0 m 1,4,-1
 0 448 l 1,5,-1
 320 448 l 1,6,-1
 320 256 l 1,7,-1
 256 256 l 1,8,-1
 256 384 l 1,9,-1
 64 384 l 1,10,-1
 64 256 l 1,11,-1
 256 256 l 1,12,-1
 256 192 l 1,13,-1
 64 192 l 1,14,-1
 64 0 l 1,15,-1
 0 0 l 1,4,-1
128 512 m 1,16,-1
 128 576 l 1,17,-1
 192 576 l 1,18,-1
 192 512 l 1,19,-1
 128 512 l 1,16,-1
192 576 m 1,20,-1
 192 640 l 1,21,-1
 256 640 l 1,22,-1
 256 576 l 1,23,-1
 192 576 l 1,20,-1
EndSplineSet
Validated: 5
EndChar

StartChar: racute
Encoding: 341 341 278
Width: 256
Flags: W
HStem: 0 21G<0 64> 256 64<64 192> 384 64<64 128> 448 64<128 192>
VStem: 0 64<0 256> 64 64<384 448> 128 64<448 512>
LayerCount: 2
Fore
SplineSet
0 0 m 1,0,-1
 0 320 l 1,1,-1
 192 320 l 1,2,-1
 192 256 l 1,3,-1
 64 256 l 1,4,-1
 64 0 l 1,5,-1
 0 0 l 1,0,-1
64 384 m 1,6,-1
 64 448 l 1,7,-1
 128 448 l 1,8,-1
 128 384 l 1,9,-1
 64 384 l 1,6,-1
128 448 m 1,10,-1
 128 512 l 1,11,-1
 192 512 l 1,12,-1
 192 448 l 1,13,-1
 128 448 l 1,10,-1
EndSplineSet
Validated: 5
EndChar

StartChar: Rcommaaccent
Encoding: 342 342 279
Width: 384
Flags: W
HStem: -128 64<64 128> -64 64<128 192> 0 21G<0 64 256 320> 192 64<64 256> 384 64<64 256>
VStem: 0 64<0 192 256 384> 64 64<-128 -64> 128 64<-64 0> 256 64<0 192 256 384>
LayerCount: 2
Fore
SplineSet
64 -128 m 1,0,-1
 64 -64 l 1,1,-1
 128 -64 l 1,2,-1
 128 -128 l 1,3,-1
 64 -128 l 1,0,-1
256 0 m 1,4,-1
 256 192 l 1,5,-1
 320 192 l 1,6,-1
 320 0 l 1,7,-1
 256 0 l 1,4,-1
0 0 m 1,8,-1
 0 448 l 1,9,-1
 320 448 l 1,10,-1
 320 256 l 1,11,-1
 256 256 l 1,12,-1
 256 384 l 1,13,-1
 64 384 l 1,14,-1
 64 256 l 1,15,-1
 256 256 l 1,16,-1
 256 192 l 1,17,-1
 64 192 l 1,18,-1
 64 0 l 1,19,-1
 0 0 l 1,8,-1
128 -64 m 1,20,-1
 128 0 l 1,21,-1
 192 0 l 1,22,-1
 192 -64 l 1,23,-1
 128 -64 l 1,20,-1
EndSplineSet
Validated: 5
EndChar

StartChar: rcommaaccent
Encoding: 343 343 280
Width: 256
Flags: W
HStem: -128 64<0 64> -64 64<64 128> 0 21G<0 64> 256 64<64 192>
VStem: 0 64<-128 -64 0 256> 64 64<-64 0>
LayerCount: 2
Fore
SplineSet
0 -128 m 1,0,-1
 0 -64 l 1,1,-1
 64 -64 l 1,2,-1
 64 -128 l 1,3,-1
 0 -128 l 1,0,-1
64 -64 m 1,4,-1
 64 0 l 1,5,-1
 128 0 l 1,6,-1
 128 -64 l 1,7,-1
 64 -64 l 1,4,-1
64 0 m 1,8,-1
 0 0 l 1,9,-1
 0 320 l 1,10,-1
 192 320 l 1,11,-1
 192 256 l 1,12,-1
 64 256 l 1,13,-1
 64 0 l 1,8,-1
EndSplineSet
Validated: 5
EndChar

StartChar: Rcaron
Encoding: 344 344 281
Width: 384
Flags: W
HStem: 0 21G<0 64 256 320> 192 64<64 256> 384 64<64 256> 512 64<128 192> 576 64<64 128 192 256>
VStem: 0 64<0 192 256 384> 64 64<576 640> 128 64<512 576> 192 64<576 640> 256 64<0 192 256 384>
LayerCount: 2
Fore
SplineSet
256 0 m 1,0,-1
 256 192 l 1,1,-1
 320 192 l 1,2,-1
 320 0 l 1,3,-1
 256 0 l 1,0,-1
0 0 m 1,4,-1
 0 448 l 1,5,-1
 320 448 l 1,6,-1
 320 256 l 1,7,-1
 256 256 l 1,8,-1
 256 384 l 1,9,-1
 64 384 l 1,10,-1
 64 256 l 1,11,-1
 256 256 l 1,12,-1
 256 192 l 1,13,-1
 64 192 l 1,14,-1
 64 0 l 1,15,-1
 0 0 l 1,4,-1
128 512 m 1,16,-1
 128 576 l 1,17,-1
 192 576 l 1,18,-1
 192 512 l 1,19,-1
 128 512 l 1,16,-1
192 576 m 1,20,-1
 192 640 l 1,21,-1
 256 640 l 1,22,-1
 256 576 l 1,23,-1
 192 576 l 1,20,-1
128 576 m 1,24,-1
 64 576 l 1,25,-1
 64 640 l 1,26,-1
 128 640 l 1,27,-1
 128 576 l 1,24,-1
EndSplineSet
Validated: 5
EndChar

StartChar: rcaron
Encoding: 345 345 282
Width: 256
Flags: W
HStem: 0 21G<0 64> 256 64<64 192> 384 64<64 128> 448 64<0 64 128 192>
VStem: 0 64<0 256 448 512> 64 64<384 448> 128 64<448 512>
LayerCount: 2
Fore
SplineSet
0 0 m 1,0,-1
 0 320 l 1,1,-1
 192 320 l 1,2,-1
 192 256 l 1,3,-1
 64 256 l 1,4,-1
 64 0 l 1,5,-1
 0 0 l 1,0,-1
64 384 m 1,6,-1
 64 448 l 1,7,-1
 128 448 l 1,8,-1
 128 384 l 1,9,-1
 64 384 l 1,6,-1
128 448 m 1,10,-1
 128 512 l 1,11,-1
 192 512 l 1,12,-1
 192 448 l 1,13,-1
 128 448 l 1,10,-1
64 448 m 1,14,-1
 0 448 l 1,15,-1
 0 512 l 1,16,-1
 64 512 l 1,17,-1
 64 448 l 1,14,-1
EndSplineSet
Validated: 5
EndChar

StartChar: Sacute
Encoding: 346 346 283
Width: 384
Flags: W
HStem: 0 64<0 256> 192 64<64 256> 384 64<64 320> 512 64<128 192> 576 64<192 256>
VStem: 0 64<256 384> 128 64<512 576> 192 64<576 640> 256 64<64 192>
LayerCount: 2
Fore
SplineSet
128 512 m 1,0,-1
 128 576 l 1,1,-1
 192 576 l 1,2,-1
 192 512 l 1,3,-1
 128 512 l 1,0,-1
320 0 m 1,4,-1
 0 0 l 1,5,-1
 0 64 l 1,6,-1
 256 64 l 1,7,-1
 256 192 l 1,8,-1
 0 192 l 1,9,-1
 0 448 l 1,10,-1
 320 448 l 1,11,-1
 320 384 l 1,12,-1
 64 384 l 1,13,-1
 64 256 l 1,14,-1
 320 256 l 1,15,-1
 320 0 l 1,4,-1
192 576 m 1,16,-1
 192 640 l 1,17,-1
 256 640 l 1,18,-1
 256 576 l 1,19,-1
 192 576 l 1,16,-1
EndSplineSet
Validated: 5
EndChar

StartChar: sacute
Encoding: 347 347 284
Width: 384
Flags: W
HStem: 0 64<0 256> 128 64<64 256> 256 64<64 320> 384 64<128 192> 448 64<192 256>
VStem: 0 64<192 256> 128 64<384 448> 192 64<448 512> 256 64<64 128>
LayerCount: 2
Fore
SplineSet
128 384 m 1,0,-1
 128 448 l 1,1,-1
 192 448 l 1,2,-1
 192 384 l 1,3,-1
 128 384 l 1,0,-1
320 0 m 1,4,-1
 0 0 l 1,5,-1
 0 64 l 1,6,-1
 256 64 l 1,7,-1
 256 128 l 1,8,-1
 0 128 l 1,9,-1
 0 320 l 1,10,-1
 320 320 l 1,11,-1
 320 256 l 1,12,-1
 64 256 l 1,13,-1
 64 192 l 1,14,-1
 320 192 l 1,15,-1
 320 0 l 1,4,-1
192 448 m 1,16,-1
 192 512 l 1,17,-1
 256 512 l 1,18,-1
 256 448 l 1,19,-1
 192 448 l 1,16,-1
EndSplineSet
Validated: 5
EndChar

StartChar: Scircumflex
Encoding: 348 348 285
Width: 384
Flags: W
HStem: 0 64<0 256> 192 64<64 256> 384 64<64 320> 512 64<64 128 192 256> 576 64<128 192>
VStem: 0 64<256 384> 64 64<512 576> 128 64<576 640> 192 64<512 576> 256 64<64 192>
LayerCount: 2
Fore
SplineSet
192 512 m 1,0,-1
 192 576 l 1,1,-1
 256 576 l 1,2,-1
 256 512 l 1,3,-1
 192 512 l 1,0,-1
64 512 m 1,4,-1
 64 576 l 1,5,-1
 128 576 l 1,6,-1
 128 512 l 1,7,-1
 64 512 l 1,4,-1
320 0 m 1,8,-1
 0 0 l 1,9,-1
 0 64 l 1,10,-1
 256 64 l 1,11,-1
 256 192 l 1,12,-1
 0 192 l 1,13,-1
 0 448 l 1,14,-1
 320 448 l 1,15,-1
 320 384 l 1,16,-1
 64 384 l 1,17,-1
 64 256 l 1,18,-1
 320 256 l 1,19,-1
 320 0 l 1,8,-1
192 576 m 1,20,-1
 128 576 l 1,21,-1
 128 640 l 1,22,-1
 192 640 l 1,23,-1
 192 576 l 1,20,-1
EndSplineSet
Validated: 5
EndChar

StartChar: scircumflex
Encoding: 349 349 286
Width: 384
Flags: W
HStem: 0 64<0 256> 128 64<64 256> 256 64<64 320> 384 64<64 128 192 256> 448 64<128 192>
VStem: 0 64<192 256> 64 64<384 448> 128 64<448 512> 192 64<384 448> 256 64<64 128>
LayerCount: 2
Fore
SplineSet
192 384 m 1,0,-1
 192 448 l 1,1,-1
 256 448 l 1,2,-1
 256 384 l 1,3,-1
 192 384 l 1,0,-1
64 384 m 1,4,-1
 64 448 l 1,5,-1
 128 448 l 1,6,-1
 128 384 l 1,7,-1
 64 384 l 1,4,-1
320 0 m 1,8,-1
 0 0 l 1,9,-1
 0 64 l 1,10,-1
 256 64 l 1,11,-1
 256 128 l 1,12,-1
 0 128 l 1,13,-1
 0 320 l 1,14,-1
 320 320 l 1,15,-1
 320 256 l 1,16,-1
 64 256 l 1,17,-1
 64 192 l 1,18,-1
 320 192 l 1,19,-1
 320 0 l 1,8,-1
192 448 m 1,20,-1
 128 448 l 1,21,-1
 128 512 l 1,22,-1
 192 512 l 1,23,-1
 192 448 l 1,20,-1
EndSplineSet
Validated: 5
EndChar

StartChar: Scedilla
Encoding: 350 350 287
Width: 384
Flags: W
HStem: -128 64<64 128> -64 128<128 192> 0 64<0 128 192 256> 192 64<64 256> 384 64<64 320>
VStem: 0 64<256 384> 64 64<-128 -64> 256 64<64 192>
LayerCount: 2
Fore
SplineSet
64 -128 m 1,0,-1
 64 -64 l 1,1,-1
 128 -64 l 1,2,-1
 128 -128 l 1,3,-1
 64 -128 l 1,0,-1
128 -64 m 1,4,-1
 128 0 l 1,5,-1
 0 0 l 1,6,-1
 0 64 l 1,7,-1
 256 64 l 1,8,-1
 256 192 l 1,9,-1
 0 192 l 1,10,-1
 0 448 l 1,11,-1
 320 448 l 1,12,-1
 320 384 l 1,13,-1
 64 384 l 1,14,-1
 64 256 l 1,15,-1
 320 256 l 1,16,-1
 320 0 l 1,17,-1
 192 0 l 1,18,-1
 192 -64 l 1,19,-1
 128 -64 l 1,4,-1
EndSplineSet
Validated: 5
EndChar

StartChar: scedilla
Encoding: 351 351 288
Width: 384
Flags: W
HStem: -128 64<64 128> -64 128<128 192> 0 64<0 128 192 256> 128 64<64 256> 256 64<64 320>
VStem: 0 64<192 256> 64 64<-128 -64> 256 64<64 128>
LayerCount: 2
Fore
SplineSet
64 -128 m 1,0,-1
 64 -64 l 1,1,-1
 128 -64 l 1,2,-1
 128 -128 l 1,3,-1
 64 -128 l 1,0,-1
128 -64 m 1,4,-1
 128 0 l 1,5,-1
 0 0 l 1,6,-1
 0 64 l 1,7,-1
 256 64 l 1,8,-1
 256 128 l 1,9,-1
 0 128 l 1,10,-1
 0 320 l 1,11,-1
 320 320 l 1,12,-1
 320 256 l 1,13,-1
 64 256 l 1,14,-1
 64 192 l 1,15,-1
 320 192 l 1,16,-1
 320 0 l 1,17,-1
 192 0 l 1,18,-1
 192 -64 l 1,19,-1
 128 -64 l 1,4,-1
EndSplineSet
Validated: 5
EndChar

StartChar: Scaron
Encoding: 352 352 289
Width: 384
Flags: W
HStem: 0 64<0 256> 192 64<64 256> 384 64<64 320> 512 64<128 192> 576 64<64 128 192 256>
VStem: 0 64<256 384> 64 64<576 640> 128 64<512 576> 192 64<576 640> 256 64<64 192>
LayerCount: 2
Fore
SplineSet
128 512 m 1,0,-1
 128 576 l 1,1,-1
 192 576 l 1,2,-1
 192 512 l 1,3,-1
 128 512 l 1,0,-1
320 0 m 1,4,-1
 0 0 l 1,5,-1
 0 64 l 1,6,-1
 256 64 l 1,7,-1
 256 192 l 1,8,-1
 0 192 l 1,9,-1
 0 448 l 1,10,-1
 320 448 l 1,11,-1
 320 384 l 1,12,-1
 64 384 l 1,13,-1
 64 256 l 1,14,-1
 320 256 l 1,15,-1
 320 0 l 1,4,-1
192 576 m 1,16,-1
 192 640 l 1,17,-1
 256 640 l 1,18,-1
 256 576 l 1,19,-1
 192 576 l 1,16,-1
128 576 m 1,20,-1
 64 576 l 1,21,-1
 64 640 l 1,22,-1
 128 640 l 1,23,-1
 128 576 l 1,20,-1
EndSplineSet
Validated: 5
EndChar

StartChar: scaron
Encoding: 353 353 290
Width: 384
Flags: W
HStem: 0 64<0 256> 128 64<64 256> 256 64<64 320> 384 64<128 192> 448 64<64 128 192 256>
VStem: 0 64<192 256> 64 64<448 512> 128 64<384 448> 192 64<448 512> 256 64<64 128>
LayerCount: 2
Fore
SplineSet
128 384 m 1,0,-1
 128 448 l 1,1,-1
 192 448 l 1,2,-1
 192 384 l 1,3,-1
 128 384 l 1,0,-1
320 0 m 1,4,-1
 0 0 l 1,5,-1
 0 64 l 1,6,-1
 256 64 l 1,7,-1
 256 128 l 1,8,-1
 0 128 l 1,9,-1
 0 320 l 1,10,-1
 320 320 l 1,11,-1
 320 256 l 1,12,-1
 64 256 l 1,13,-1
 64 192 l 1,14,-1
 320 192 l 1,15,-1
 320 0 l 1,4,-1
192 448 m 1,16,-1
 192 512 l 1,17,-1
 256 512 l 1,18,-1
 256 448 l 1,19,-1
 192 448 l 1,16,-1
128 448 m 1,20,-1
 64 448 l 1,21,-1
 64 512 l 1,22,-1
 128 512 l 1,23,-1
 128 448 l 1,20,-1
EndSplineSet
Validated: 5
EndChar

StartChar: Tcommaaccent
Encoding: 354 354 291
Width: 384
Flags: W
HStem: -128 64<128 192> -64 64<192 256> 0 21G<128 192> 384 64<0 128 192 320>
VStem: 128 64<-128 -64 0 384> 192 64<-64 0>
LayerCount: 2
Fore
SplineSet
128 -128 m 1,0,-1
 128 -64 l 1,1,-1
 192 -64 l 1,2,-1
 192 -128 l 1,3,-1
 128 -128 l 1,0,-1
192 -64 m 1,4,-1
 192 0 l 1,5,-1
 256 0 l 1,6,-1
 256 -64 l 1,7,-1
 192 -64 l 1,4,-1
192 0 m 1,8,-1
 128 0 l 1,9,-1
 128 384 l 1,10,-1
 0 384 l 1,11,-1
 0 448 l 1,12,-1
 320 448 l 1,13,-1
 320 384 l 1,14,-1
 192 384 l 1,15,-1
 192 0 l 1,8,-1
EndSplineSet
Validated: 5
EndChar

StartChar: tcommaaccent
Encoding: 355 355 292
Width: 320
Flags: W
HStem: -128 64<128 192> -64 64<192 256> 0 64<64 192> 256 64<64 192> 428 20G<0 64>
VStem: 0 64<64 256 320 448> 128 64<-128 -64> 192 64<-64 0>
LayerCount: 2
Fore
SplineSet
128 -128 m 1,0,-1
 128 -64 l 1,1,-1
 192 -64 l 1,2,-1
 192 -128 l 1,3,-1
 128 -128 l 1,0,-1
192 -64 m 1,4,-1
 192 0 l 1,5,-1
 256 0 l 1,6,-1
 256 -64 l 1,7,-1
 192 -64 l 1,4,-1
192 0 m 1,8,-1
 0 0 l 1,9,-1
 0 448 l 1,10,-1
 64 448 l 1,11,-1
 64 320 l 1,12,-1
 192 320 l 1,13,-1
 192 256 l 1,14,-1
 64 256 l 1,15,-1
 64 64 l 1,16,-1
 192 64 l 1,17,-1
 192 0 l 1,8,-1
EndSplineSet
Validated: 5
EndChar

StartChar: Tcaron
Encoding: 356 356 293
Width: 384
Flags: W
HStem: 0 21G<128 192> 384 64<0 128 192 320> 512 64<128 192> 576 64<64 128 192 256>
VStem: 64 64<576 640> 128 64<0 384 512 576> 192 64<576 640>
LayerCount: 2
Fore
SplineSet
128 0 m 1,0,-1
 128 384 l 1,1,-1
 0 384 l 1,2,-1
 0 448 l 1,3,-1
 320 448 l 1,4,-1
 320 384 l 1,5,-1
 192 384 l 1,6,-1
 192 0 l 1,7,-1
 128 0 l 1,0,-1
128 512 m 1,8,-1
 128 576 l 1,9,-1
 192 576 l 1,10,-1
 192 512 l 1,11,-1
 128 512 l 1,8,-1
192 576 m 1,12,-1
 192 640 l 1,13,-1
 256 640 l 1,14,-1
 256 576 l 1,15,-1
 192 576 l 1,12,-1
128 576 m 1,16,-1
 64 576 l 1,17,-1
 64 640 l 1,18,-1
 128 640 l 1,19,-1
 128 576 l 1,16,-1
EndSplineSet
Validated: 5
EndChar

StartChar: tcaron
Encoding: 357 357 294
Width: 256
Flags: W
HStem: 0 64<64 192> 256 64<64 192> 428 20G<0 64> 512 64<64 128> 576 64<128 192>
VStem: 0 64<64 256 320 448> 64 64<512 576> 128 64<576 640>
LayerCount: 2
Fore
SplineSet
64 512 m 1,0,-1
 64 576 l 1,1,-1
 128 576 l 1,2,-1
 128 512 l 1,3,-1
 64 512 l 1,0,-1
64 64 m 1,4,-1
 192 64 l 1,5,-1
 192 0 l 1,6,-1
 0 0 l 1,7,-1
 0 448 l 1,8,-1
 64 448 l 1,9,-1
 64 320 l 1,10,-1
 192 320 l 1,11,-1
 192 256 l 1,12,-1
 64 256 l 1,13,-1
 64 64 l 1,4,-1
128 576 m 1,14,-1
 128 640 l 1,15,-1
 192 640 l 1,16,-1
 192 576 l 1,17,-1
 128 576 l 1,14,-1
EndSplineSet
Validated: 5
EndChar

StartChar: Tbar
Encoding: 358 358 295
Width: 384
Flags: W
HStem: 0 21G<128 192> 192 64<64 128 192 256> 384 64<0 128 192 320>
VStem: 128 64<0 192 256 384>
LayerCount: 2
Fore
SplineSet
128 0 m 1,0,-1
 128 192 l 1,1,-1
 64 192 l 1,2,-1
 64 256 l 1,3,-1
 128 256 l 1,4,-1
 128 384 l 1,5,-1
 0 384 l 1,6,-1
 0 448 l 1,7,-1
 320 448 l 1,8,-1
 320 384 l 1,9,-1
 192 384 l 1,10,-1
 192 256 l 1,11,-1
 256 256 l 1,12,-1
 256 192 l 1,13,-1
 192 192 l 1,14,-1
 192 0 l 1,15,-1
 128 0 l 1,0,-1
EndSplineSet
Validated: 1
EndChar

StartChar: tbar
Encoding: 359 359 296
Width: 256
Flags: W
HStem: 0 64<64 192> 128 64<64 192> 256 64<64 192> 428 20G<0 64>
VStem: 0 192<0 64 128 192 256 320> 0 64<64 128 192 256 320 448>
LayerCount: 2
Fore
SplineSet
64 64 m 1,0,-1
 192 64 l 1,1,-1
 192 0 l 1,2,-1
 0 0 l 1,3,-1
 0 448 l 1,4,-1
 64 448 l 1,5,-1
 64 320 l 1,6,-1
 192 320 l 1,7,-1
 192 256 l 1,8,-1
 64 256 l 1,9,-1
 64 192 l 1,10,-1
 192 192 l 1,11,-1
 192 128 l 1,12,-1
 64 128 l 1,13,-1
 64 64 l 1,0,-1
EndSplineSet
Validated: 1
EndChar

StartChar: Utilde
Encoding: 360 360 297
Width: 384
Flags: W
HStem: 0 64<64 256> 428 20G<0 64 256 320> 512 64<64 128 192 256> 576 64<128 192 256 320>
VStem: 0 64<64 448> 64 64<512 576> 128 64<576 640> 192 64<512 576> 256 64<64 448 576 640>
LayerCount: 2
Fore
SplineSet
192 512 m 1,0,-1
 192 576 l 1,1,-1
 256 576 l 1,2,-1
 256 512 l 1,3,-1
 192 512 l 1,0,-1
64 512 m 1,4,-1
 64 576 l 1,5,-1
 128 576 l 1,6,-1
 128 512 l 1,7,-1
 64 512 l 1,4,-1
320 0 m 1,8,-1
 0 0 l 1,9,-1
 0 448 l 1,10,-1
 64 448 l 1,11,-1
 64 64 l 1,12,-1
 256 64 l 1,13,-1
 256 448 l 1,14,-1
 320 448 l 1,15,-1
 320 0 l 1,8,-1
256 576 m 1,16,-1
 256 640 l 1,17,-1
 320 640 l 1,18,-1
 320 576 l 1,19,-1
 256 576 l 1,16,-1
192 576 m 1,20,-1
 128 576 l 1,21,-1
 128 640 l 1,22,-1
 192 640 l 1,23,-1
 192 576 l 1,20,-1
EndSplineSet
Validated: 5
EndChar

StartChar: utilde
Encoding: 361 361 298
Width: 384
Flags: W
HStem: 0 64<64 256> 300 20G<0 64 256 320> 384 64<64 128 192 256> 448 64<128 192 256 320>
VStem: 0 64<64 320> 64 64<384 448> 128 64<448 512> 192 64<384 448> 256 64<64 320 448 512>
LayerCount: 2
Fore
SplineSet
192 384 m 1,0,-1
 192 448 l 1,1,-1
 256 448 l 1,2,-1
 256 384 l 1,3,-1
 192 384 l 1,0,-1
64 384 m 1,4,-1
 64 448 l 1,5,-1
 128 448 l 1,6,-1
 128 384 l 1,7,-1
 64 384 l 1,4,-1
320 0 m 1,8,-1
 0 0 l 1,9,-1
 0 320 l 1,10,-1
 64 320 l 1,11,-1
 64 64 l 1,12,-1
 256 64 l 1,13,-1
 256 320 l 1,14,-1
 320 320 l 1,15,-1
 320 0 l 1,8,-1
256 448 m 1,16,-1
 256 512 l 1,17,-1
 320 512 l 1,18,-1
 320 448 l 1,19,-1
 256 448 l 1,16,-1
192 448 m 1,20,-1
 128 448 l 1,21,-1
 128 512 l 1,22,-1
 192 512 l 1,23,-1
 192 448 l 1,20,-1
EndSplineSet
Validated: 5
EndChar

StartChar: Umacron
Encoding: 362 362 299
Width: 384
Flags: W
HStem: 0 64<64 256> 428 20G<0 64 256 320> 512 64<64 256>
VStem: 0 64<64 448> 256 64<64 448>
LayerCount: 2
Fore
SplineSet
320 0 m 1,0,-1
 0 0 l 1,1,-1
 0 448 l 1,2,-1
 64 448 l 1,3,-1
 64 64 l 1,4,-1
 256 64 l 1,5,-1
 256 448 l 1,6,-1
 320 448 l 1,7,-1
 320 0 l 1,0,-1
64 576 m 1,8,-1
 256 576 l 1,9,-1
 256 512 l 1,10,-1
 64 512 l 1,11,-1
 64 576 l 1,8,-1
EndSplineSet
Validated: 1
EndChar

StartChar: umacron
Encoding: 363 363 300
Width: 384
Flags: W
HStem: 0 64<64 256> 300 20G<0 64 256 320> 384 64<64 256>
VStem: 0 64<64 320> 256 64<64 320>
LayerCount: 2
Fore
SplineSet
320 0 m 1,0,-1
 0 0 l 1,1,-1
 0 320 l 1,2,-1
 64 320 l 1,3,-1
 64 64 l 1,4,-1
 256 64 l 1,5,-1
 256 320 l 1,6,-1
 320 320 l 1,7,-1
 320 0 l 1,0,-1
64 448 m 1,8,-1
 256 448 l 1,9,-1
 256 384 l 1,10,-1
 64 384 l 1,11,-1
 64 448 l 1,8,-1
EndSplineSet
Validated: 1
EndChar

StartChar: Ubreve
Encoding: 364 364 301
Width: 384
Flags: W
HStem: 0 64<64 256> 428 20G<0 64 256 320> 512 128<64 128 192 256> 512 64<128 192>
VStem: 0 64<64 448> 64 64<576 640> 192 64<576 640> 256 64<64 448>
LayerCount: 2
Fore
SplineSet
320 0 m 1,0,-1
 0 0 l 1,1,-1
 0 448 l 1,2,-1
 64 448 l 1,3,-1
 64 64 l 1,4,-1
 256 64 l 1,5,-1
 256 448 l 1,6,-1
 320 448 l 1,7,-1
 320 0 l 1,0,-1
256 512 m 1,8,-1
 64 512 l 1,9,-1
 64 640 l 1,10,-1
 128 640 l 1,11,-1
 128 576 l 1,12,-1
 192 576 l 1,13,-1
 192 640 l 1,14,-1
 256 640 l 1,15,-1
 256 512 l 1,8,-1
EndSplineSet
Validated: 1
EndChar

StartChar: ubreve
Encoding: 365 365 302
Width: 384
Flags: W
HStem: 0 64<64 256> 300 20G<0 64 256 320> 384 128<64 128 192 256> 384 64<128 192>
VStem: 0 64<64 320> 64 64<448 512> 192 64<448 512> 256 64<64 320>
LayerCount: 2
Fore
SplineSet
320 0 m 1,0,-1
 0 0 l 1,1,-1
 0 320 l 1,2,-1
 64 320 l 1,3,-1
 64 64 l 1,4,-1
 256 64 l 1,5,-1
 256 320 l 1,6,-1
 320 320 l 1,7,-1
 320 0 l 1,0,-1
256 384 m 1,8,-1
 64 384 l 1,9,-1
 64 512 l 1,10,-1
 128 512 l 1,11,-1
 128 448 l 1,12,-1
 192 448 l 1,13,-1
 192 512 l 1,14,-1
 256 512 l 1,15,-1
 256 384 l 1,8,-1
EndSplineSet
Validated: 1
EndChar

StartChar: Uring
Encoding: 366 366 303
Width: 384
Flags: W
HStem: 0 64<64 256> 384 64<128 192> 448 64<64 128 192 256> 512 64<128 192>
VStem: 0 64<64 448> 64 64<448 512> 128 64<384 448 512 576> 192 64<448 512> 256 64<64 448>
LayerCount: 2
Fore
SplineSet
128 384 m 1,0,-1
 128 448 l 1,1,-1
 192 448 l 1,2,-1
 192 384 l 1,3,-1
 128 384 l 1,0,-1
320 0 m 1,4,-1
 0 0 l 1,5,-1
 0 448 l 1,6,-1
 64 448 l 1,7,-1
 64 64 l 1,8,-1
 256 64 l 1,9,-1
 256 448 l 1,10,-1
 320 448 l 1,11,-1
 320 0 l 1,4,-1
256 448 m 1,12,-1
 192 448 l 1,13,-1
 192 512 l 1,14,-1
 256 512 l 1,15,-1
 256 448 l 1,12,-1
128 448 m 1,16,-1
 64 448 l 1,17,-1
 64 512 l 1,18,-1
 128 512 l 1,19,-1
 128 448 l 1,16,-1
192 512 m 1,20,-1
 128 512 l 1,21,-1
 128 576 l 1,22,-1
 192 576 l 1,23,-1
 192 512 l 1,20,-1
EndSplineSet
Validated: 5
EndChar

StartChar: uring
Encoding: 367 367 304
Width: 384
Flags: W
HStem: 0 64<64 256> 300 20G<0 64 256 320> 320 64<128 192> 384 64<64 128 192 256> 448 64<128 192>
VStem: 0 64<64 320> 64 64<384 448> 128 64<320 384 448 512> 192 64<384 448> 256 64<64 320>
LayerCount: 2
Fore
SplineSet
128 320 m 1,0,-1
 128 384 l 1,1,-1
 192 384 l 1,2,-1
 192 320 l 1,3,-1
 128 320 l 1,0,-1
320 0 m 1,4,-1
 0 0 l 1,5,-1
 0 320 l 1,6,-1
 64 320 l 1,7,-1
 64 64 l 1,8,-1
 256 64 l 1,9,-1
 256 320 l 1,10,-1
 320 320 l 1,11,-1
 320 0 l 1,4,-1
192 384 m 1,12,-1
 192 448 l 1,13,-1
 256 448 l 1,14,-1
 256 384 l 1,15,-1
 192 384 l 1,12,-1
128 384 m 1,16,-1
 64 384 l 1,17,-1
 64 448 l 1,18,-1
 128 448 l 1,19,-1
 128 384 l 1,16,-1
192 448 m 1,20,-1
 128 448 l 1,21,-1
 128 512 l 1,22,-1
 192 512 l 1,23,-1
 192 448 l 1,20,-1
EndSplineSet
Validated: 5
EndChar

StartChar: Uhungarumlaut
Encoding: 368 368 305
Width: 384
Flags: W
HStem: 0 64<64 256> 428 20G<0 64 256 320> 512 64<0 64 192 256> 576 64<64 128 256 320>
VStem: 0 64<64 448 512 576> 64 64<576 640> 192 64<512 576> 256 64<64 448 576 640>
LayerCount: 2
Fore
SplineSet
192 512 m 1,0,-1
 192 576 l 1,1,-1
 256 576 l 1,2,-1
 256 512 l 1,3,-1
 192 512 l 1,0,-1
0 512 m 1,4,-1
 0 576 l 1,5,-1
 64 576 l 1,6,-1
 64 512 l 1,7,-1
 0 512 l 1,4,-1
320 0 m 1,8,-1
 0 0 l 1,9,-1
 0 448 l 1,10,-1
 64 448 l 1,11,-1
 64 64 l 1,12,-1
 256 64 l 1,13,-1
 256 448 l 1,14,-1
 320 448 l 1,15,-1
 320 0 l 1,8,-1
256 576 m 1,16,-1
 256 640 l 1,17,-1
 320 640 l 1,18,-1
 320 576 l 1,19,-1
 256 576 l 1,16,-1
64 576 m 1,20,-1
 64 640 l 1,21,-1
 128 640 l 1,22,-1
 128 576 l 1,23,-1
 64 576 l 1,20,-1
EndSplineSet
Validated: 5
EndChar

StartChar: uhungarumlaut
Encoding: 369 369 306
Width: 384
Flags: W
HStem: 0 64<64 256> 300 20G<0 64 256 320> 384 64<0 64 192 256> 448 64<64 128 256 320>
VStem: 0 64<64 320 384 448> 64 64<448 512> 192 64<384 448> 256 64<64 320 448 512>
LayerCount: 2
Fore
SplineSet
192 384 m 1,0,-1
 192 448 l 1,1,-1
 256 448 l 1,2,-1
 256 384 l 1,3,-1
 192 384 l 1,0,-1
0 384 m 1,4,-1
 0 448 l 1,5,-1
 64 448 l 1,6,-1
 64 384 l 1,7,-1
 0 384 l 1,4,-1
320 0 m 1,8,-1
 0 0 l 1,9,-1
 0 320 l 1,10,-1
 64 320 l 1,11,-1
 64 64 l 1,12,-1
 256 64 l 1,13,-1
 256 320 l 1,14,-1
 320 320 l 1,15,-1
 320 0 l 1,8,-1
256 448 m 1,16,-1
 256 512 l 1,17,-1
 320 512 l 1,18,-1
 320 448 l 1,19,-1
 256 448 l 1,16,-1
64 448 m 1,20,-1
 64 512 l 1,21,-1
 128 512 l 1,22,-1
 128 448 l 1,23,-1
 64 448 l 1,20,-1
EndSplineSet
Validated: 5
EndChar

StartChar: Uogonek
Encoding: 370 370 307
Width: 384
Flags: W
HStem: -128 64<192 256> -64 128<128 192> 0 64<64 128 192 256> 428 20G<0 64 256 320>
VStem: 0 64<64 448> 192 64<-128 -64> 256 64<64 448>
LayerCount: 2
Fore
SplineSet
192 -128 m 1,0,-1
 192 -64 l 1,1,-1
 256 -64 l 1,2,-1
 256 -128 l 1,3,-1
 192 -128 l 1,0,-1
192 -64 m 1,4,-1
 128 -64 l 1,5,-1
 128 0 l 1,6,-1
 0 0 l 1,7,-1
 0 448 l 1,8,-1
 64 448 l 1,9,-1
 64 64 l 1,10,-1
 256 64 l 1,11,-1
 256 448 l 1,12,-1
 320 448 l 1,13,-1
 320 0 l 1,14,-1
 192 0 l 1,15,-1
 192 -64 l 1,4,-1
EndSplineSet
Validated: 5
EndChar

StartChar: uogonek
Encoding: 371 371 308
Width: 448
Flags: W
HStem: -128 64<320 384> 0 64<64 256> 300 20G<0 64 256 320>
VStem: 0 64<64 320> 256 64<-64 0 64 320> 320 64<-128 -64>
LayerCount: 2
Fore
SplineSet
320 -128 m 1,0,-1
 320 -64 l 1,1,-1
 384 -64 l 1,2,-1
 384 -128 l 1,3,-1
 320 -128 l 1,0,-1
320 -64 m 1,4,-1
 256 -64 l 1,5,-1
 256 0 l 1,6,-1
 0 0 l 1,7,-1
 0 320 l 1,8,-1
 64 320 l 1,9,-1
 64 64 l 1,10,-1
 256 64 l 1,11,-1
 256 320 l 1,12,-1
 320 320 l 1,13,-1
 320 -64 l 1,4,-1
EndSplineSet
Validated: 5
EndChar

StartChar: Wcircumflex
Encoding: 372 372 309
Width: 512
Flags: W
HStem: 0 64<64 192 256 384> 428 20G<0 64 192 256 384 448> 512 64<128 192 256 320> 576 64<192 256>
VStem: 0 64<64 448> 128 64<512 576> 192 64<64 448 576 640> 256 64<512 576> 384 64<64 448>
LayerCount: 2
Fore
SplineSet
256 512 m 1,0,-1
 256 576 l 1,1,-1
 320 576 l 1,2,-1
 320 512 l 1,3,-1
 256 512 l 1,0,-1
128 512 m 1,4,-1
 128 576 l 1,5,-1
 192 576 l 1,6,-1
 192 512 l 1,7,-1
 128 512 l 1,4,-1
448 0 m 1,8,-1
 0 0 l 1,9,-1
 0 448 l 1,10,-1
 64 448 l 1,11,-1
 64 64 l 1,12,-1
 192 64 l 1,13,-1
 192 448 l 1,14,-1
 256 448 l 1,15,-1
 256 64 l 1,16,-1
 384 64 l 1,17,-1
 384 448 l 1,18,-1
 448 448 l 1,19,-1
 448 0 l 1,8,-1
256 576 m 1,20,-1
 192 576 l 1,21,-1
 192 640 l 1,22,-1
 256 640 l 1,23,-1
 256 576 l 1,20,-1
EndSplineSet
Validated: 5
EndChar

StartChar: wcircumflex
Encoding: 373 373 310
Width: 512
Flags: W
HStem: 0 64<64 192 256 384> 300 20G<0 64 192 256 384 448> 384 64<128 192 256 320> 448 64<192 256>
VStem: 0 64<64 320> 128 64<384 448> 192 64<64 320 448 512> 256 64<384 448> 384 64<64 320>
LayerCount: 2
Fore
SplineSet
256 384 m 1,0,-1
 256 448 l 1,1,-1
 320 448 l 1,2,-1
 320 384 l 1,3,-1
 256 384 l 1,0,-1
128 384 m 1,4,-1
 128 448 l 1,5,-1
 192 448 l 1,6,-1
 192 384 l 1,7,-1
 128 384 l 1,4,-1
448 0 m 1,8,-1
 0 0 l 1,9,-1
 0 320 l 1,10,-1
 64 320 l 1,11,-1
 64 64 l 1,12,-1
 192 64 l 1,13,-1
 192 320 l 1,14,-1
 256 320 l 1,15,-1
 256 64 l 1,16,-1
 384 64 l 1,17,-1
 384 320 l 1,18,-1
 448 320 l 1,19,-1
 448 0 l 1,8,-1
256 448 m 1,20,-1
 192 448 l 1,21,-1
 192 512 l 1,22,-1
 256 512 l 1,23,-1
 256 448 l 1,20,-1
EndSplineSet
Validated: 5
EndChar

StartChar: Ycircumflex
Encoding: 374 374 311
Width: 384
Flags: W
HStem: 0 21G<128 192> 192 64<64 128 192 256> 428 20G<0 64 256 320> 512 64<64 128 192 256> 576 64<128 192>
VStem: 0 64<256 448> 64 64<512 576> 128 64<0 192 576 640> 192 64<512 576> 256 64<256 448>
LayerCount: 2
Fore
SplineSet
128 0 m 1,0,-1
 128 192 l 1,1,-1
 0 192 l 1,2,-1
 0 448 l 1,3,-1
 64 448 l 1,4,-1
 64 256 l 1,5,-1
 256 256 l 1,6,-1
 256 448 l 1,7,-1
 320 448 l 1,8,-1
 320 192 l 1,9,-1
 192 192 l 1,10,-1
 192 0 l 1,11,-1
 128 0 l 1,0,-1
192 512 m 1,12,-1
 192 576 l 1,13,-1
 256 576 l 1,14,-1
 256 512 l 1,15,-1
 192 512 l 1,12,-1
64 512 m 1,16,-1
 64 576 l 1,17,-1
 128 576 l 1,18,-1
 128 512 l 1,19,-1
 64 512 l 1,16,-1
192 576 m 1,20,-1
 128 576 l 1,21,-1
 128 640 l 1,22,-1
 192 640 l 1,23,-1
 192 576 l 1,20,-1
EndSplineSet
Validated: 5
EndChar

StartChar: ycircumflex
Encoding: 375 375 312
Width: 384
Flags: W
HStem: -128 21G<128 192> 0 64<64 128 192 256> 300 20G<0 64 256 320> 384 64<64 128 192 256> 448 64<128 192>
VStem: 0 64<64 320> 64 64<384 448> 128 64<-128 0 448 512> 192 64<384 448> 256 64<64 320>
LayerCount: 2
Fore
SplineSet
128 -128 m 1,0,-1
 128 0 l 1,1,-1
 0 0 l 1,2,-1
 0 320 l 1,3,-1
 64 320 l 1,4,-1
 64 64 l 1,5,-1
 256 64 l 1,6,-1
 256 320 l 1,7,-1
 320 320 l 1,8,-1
 320 0 l 1,9,-1
 192 0 l 1,10,-1
 192 -128 l 1,11,-1
 128 -128 l 1,0,-1
192 384 m 1,12,-1
 192 448 l 1,13,-1
 256 448 l 1,14,-1
 256 384 l 1,15,-1
 192 384 l 1,12,-1
64 384 m 1,16,-1
 64 448 l 1,17,-1
 128 448 l 1,18,-1
 128 384 l 1,19,-1
 64 384 l 1,16,-1
192 448 m 1,20,-1
 128 448 l 1,21,-1
 128 512 l 1,22,-1
 192 512 l 1,23,-1
 192 448 l 1,20,-1
EndSplineSet
Validated: 5
EndChar

StartChar: Ydieresis
Encoding: 376 376 313
Width: 384
Flags: W
HStem: 0 21G<128 192> 192 64<64 128 192 256> 428 20G<0 64 256 320> 512 64<64 256>
VStem: 0 64<256 448> 128 64<0 192> 256 64<256 448>
CounterMasks: 1 0e
LayerCount: 2
Fore
SplineSet
128 0 m 1,0,-1
 128 192 l 1,1,-1
 0 192 l 1,2,-1
 0 448 l 1,3,-1
 64 448 l 1,4,-1
 64 256 l 1,5,-1
 256 256 l 1,6,-1
 256 448 l 1,7,-1
 320 448 l 1,8,-1
 320 192 l 1,9,-1
 192 192 l 1,10,-1
 192 0 l 1,11,-1
 128 0 l 1,0,-1
64 576 m 1,12,-1
 256 576 l 1,13,-1
 256 512 l 1,14,-1
 64 512 l 1,15,-1
 64 576 l 1,12,-1
EndSplineSet
Validated: 1
EndChar

StartChar: Zacute
Encoding: 377 377 314
Width: 384
Flags: W
HStem: 0 64<64 320> 192 64<64 256> 384 64<0 256> 512 64<128 192> 576 64<192 256>
VStem: 0 64<64 192> 128 64<512 576> 192 64<576 640> 256 64<256 384>
LayerCount: 2
Fore
SplineSet
128 512 m 1,0,-1
 128 576 l 1,1,-1
 192 576 l 1,2,-1
 192 512 l 1,3,-1
 128 512 l 1,0,-1
64 64 m 1,4,-1
 320 64 l 1,5,-1
 320 0 l 1,6,-1
 0 0 l 1,7,-1
 0 192 l 1,8,-1
 64 192 l 1,9,-1
 64 64 l 1,4,-1
64 256 m 1,10,-1
 256 256 l 1,11,-1
 256 192 l 1,12,-1
 64 192 l 1,13,-1
 64 256 l 1,10,-1
256 256 m 1,14,-1
 256 384 l 1,15,-1
 0 384 l 1,16,-1
 0 448 l 1,17,-1
 320 448 l 1,18,-1
 320 256 l 1,19,-1
 256 256 l 1,14,-1
192 576 m 1,20,-1
 192 640 l 1,21,-1
 256 640 l 1,22,-1
 256 576 l 1,23,-1
 192 576 l 1,20,-1
EndSplineSet
Validated: 5
EndChar

StartChar: zacute
Encoding: 378 378 315
Width: 384
Flags: W
HStem: 0 128<0 64> 0 64<64 320> 128 64<64 256> 192 128<256 320> 256 64<0 256> 384 64<128 192> 448 64<192 256>
VStem: 0 64<64 128> 128 64<384 448> 192 64<448 512> 256 64<192 256>
LayerCount: 2
Fore
SplineSet
128 384 m 1,0,-1
 128 448 l 1,1,-1
 192 448 l 1,2,-1
 192 384 l 1,3,-1
 128 384 l 1,0,-1
64 64 m 1,4,-1
 320 64 l 1,5,-1
 320 0 l 1,6,-1
 0 0 l 1,7,-1
 0 128 l 1,8,-1
 64 128 l 1,9,-1
 64 64 l 1,4,-1
64 192 m 1,10,-1
 256 192 l 1,11,-1
 256 128 l 1,12,-1
 64 128 l 1,13,-1
 64 192 l 1,10,-1
256 192 m 1,14,-1
 256 256 l 1,15,-1
 0 256 l 1,16,-1
 0 320 l 1,17,-1
 320 320 l 1,18,-1
 320 192 l 1,19,-1
 256 192 l 1,14,-1
192 448 m 1,20,-1
 192 512 l 1,21,-1
 256 512 l 1,22,-1
 256 448 l 1,23,-1
 192 448 l 1,20,-1
EndSplineSet
Validated: 5
EndChar

StartChar: Zdotaccent
Encoding: 379 379 316
Width: 384
Flags: W
HStem: 0 64<64 320> 192 64<64 256> 384 64<0 256> 512 64<128 192>
VStem: 0 64<64 192> 128 64<512 576> 256 64<256 384>
CounterMasks: 1 0e
LayerCount: 2
Fore
SplineSet
128 512 m 1,0,-1
 128 576 l 1,1,-1
 192 576 l 1,2,-1
 192 512 l 1,3,-1
 128 512 l 1,0,-1
64 64 m 1,4,-1
 320 64 l 1,5,-1
 320 0 l 1,6,-1
 0 0 l 1,7,-1
 0 192 l 1,8,-1
 64 192 l 1,9,-1
 64 64 l 1,4,-1
64 256 m 1,10,-1
 256 256 l 1,11,-1
 256 192 l 1,12,-1
 64 192 l 1,13,-1
 64 256 l 1,10,-1
256 256 m 1,14,-1
 256 384 l 1,15,-1
 0 384 l 1,16,-1
 0 448 l 1,17,-1
 320 448 l 1,18,-1
 320 256 l 1,19,-1
 256 256 l 1,14,-1
EndSplineSet
Validated: 5
EndChar

StartChar: zdotaccent
Encoding: 380 380 317
Width: 384
Flags: W
HStem: 0 128<0 64> 0 64<64 320> 128 64<64 256> 192 128<256 320> 256 64<0 256> 384 64<128 192>
VStem: 0 64<64 128> 128 64<384 448> 256 64<192 256>
CounterMasks: 1 0380
LayerCount: 2
Fore
SplineSet
128 384 m 1,0,-1
 128 448 l 1,1,-1
 192 448 l 1,2,-1
 192 384 l 1,3,-1
 128 384 l 1,0,-1
64 64 m 1,4,-1
 320 64 l 1,5,-1
 320 0 l 1,6,-1
 0 0 l 1,7,-1
 0 128 l 1,8,-1
 64 128 l 1,9,-1
 64 64 l 1,4,-1
64 192 m 1,10,-1
 256 192 l 1,11,-1
 256 128 l 1,12,-1
 64 128 l 1,13,-1
 64 192 l 1,10,-1
256 192 m 1,14,-1
 256 256 l 1,15,-1
 0 256 l 1,16,-1
 0 320 l 1,17,-1
 320 320 l 1,18,-1
 320 192 l 1,19,-1
 256 192 l 1,14,-1
EndSplineSet
Validated: 5
EndChar

StartChar: Zcaron
Encoding: 381 381 318
Width: 384
Flags: W
HStem: 0 64<64 320> 192 64<64 256> 384 64<0 256> 512 64<128 192> 576 64<64 128 192 256>
VStem: 0 64<64 192> 64 64<576 640> 128 64<512 576> 192 64<576 640> 256 64<256 384>
LayerCount: 2
Fore
SplineSet
128 512 m 1,0,-1
 128 576 l 1,1,-1
 192 576 l 1,2,-1
 192 512 l 1,3,-1
 128 512 l 1,0,-1
64 64 m 1,4,-1
 320 64 l 1,5,-1
 320 0 l 1,6,-1
 0 0 l 1,7,-1
 0 192 l 1,8,-1
 64 192 l 1,9,-1
 64 64 l 1,4,-1
64 256 m 1,10,-1
 256 256 l 1,11,-1
 256 192 l 1,12,-1
 64 192 l 1,13,-1
 64 256 l 1,10,-1
256 256 m 1,14,-1
 256 384 l 1,15,-1
 0 384 l 1,16,-1
 0 448 l 1,17,-1
 320 448 l 1,18,-1
 320 256 l 1,19,-1
 256 256 l 1,14,-1
192 576 m 1,20,-1
 192 640 l 1,21,-1
 256 640 l 1,22,-1
 256 576 l 1,23,-1
 192 576 l 1,20,-1
128 576 m 1,24,-1
 64 576 l 1,25,-1
 64 640 l 1,26,-1
 128 640 l 1,27,-1
 128 576 l 1,24,-1
EndSplineSet
Validated: 5
EndChar

StartChar: zcaron
Encoding: 382 382 319
Width: 384
Flags: W
HStem: 0 128<0 64> 0 64<64 320> 128 64<64 256> 192 128<256 320> 256 64<0 256> 384 64<128 192> 448 64<64 128 192 256>
VStem: 0 64<64 128> 64 64<448 512> 128 64<384 448> 192 64<448 512> 256 64<192 256>
LayerCount: 2
Fore
SplineSet
128 384 m 1,0,-1
 128 448 l 1,1,-1
 192 448 l 1,2,-1
 192 384 l 1,3,-1
 128 384 l 1,0,-1
64 64 m 1,4,-1
 320 64 l 1,5,-1
 320 0 l 1,6,-1
 0 0 l 1,7,-1
 0 128 l 1,8,-1
 64 128 l 1,9,-1
 64 64 l 1,4,-1
64 192 m 1,10,-1
 256 192 l 1,11,-1
 256 128 l 1,12,-1
 64 128 l 1,13,-1
 64 192 l 1,10,-1
256 192 m 1,14,-1
 256 256 l 1,15,-1
 0 256 l 1,16,-1
 0 320 l 1,17,-1
 320 320 l 1,18,-1
 320 192 l 1,19,-1
 256 192 l 1,14,-1
192 448 m 1,20,-1
 192 512 l 1,21,-1
 256 512 l 1,22,-1
 256 448 l 1,23,-1
 192 448 l 1,20,-1
128 448 m 1,24,-1
 64 448 l 1,25,-1
 64 512 l 1,26,-1
 128 512 l 1,27,-1
 128 448 l 1,24,-1
EndSplineSet
Validated: 5
EndChar

StartChar: uni02BB
Encoding: 699 699 320
Width: 128
Flags: W
HStem: 320 128<0 64>
VStem: 0 64<320 448>
LayerCount: 2
Fore
SplineSet
0 320 m 1,0,-1
 0 448 l 1,1,-1
 64 448 l 1,2,-1
 64 320 l 1,3,-1
 0 320 l 1,0,-1
EndSplineSet
Validated: 1
EndChar

StartChar: afii57929
Encoding: 700 700 321
Width: 128
Flags: W
HStem: 320 128<0 64>
VStem: 0 64<320 448>
LayerCount: 2
Fore
SplineSet
0 320 m 1,0,-1
 0 448 l 1,1,-1
 64 448 l 1,2,-1
 64 320 l 1,3,-1
 0 320 l 1,0,-1
EndSplineSet
Validated: 1
EndChar

StartChar: circumflex
Encoding: 710 710 322
Width: 256
Flags: W
HStem: 384 64<0 64 128 192> 448 64<64 128>
VStem: 0 64<384 448> 64 64<448 512> 128 64<384 448>
LayerCount: 2
Fore
SplineSet
128 384 m 1,0,-1
 128 448 l 1,1,-1
 192 448 l 1,2,-1
 192 384 l 1,3,-1
 128 384 l 1,0,-1
0 384 m 1,4,-1
 0 448 l 1,5,-1
 64 448 l 1,6,-1
 64 384 l 1,7,-1
 0 384 l 1,4,-1
128 448 m 1,8,-1
 64 448 l 1,9,-1
 64 512 l 1,10,-1
 128 512 l 1,11,-1
 128 448 l 1,8,-1
EndSplineSet
Validated: 5
EndChar

StartChar: ring
Encoding: 730 730 323
Width: 256
Flags: W
HStem: 448 64<64 128> 576 64<64 128>
VStem: 0 64<512 576> 128 64<512 576>
LayerCount: 2
Fore
SplineSet
192 448 m 1,0,-1
 0 448 l 1,1,-1
 0 640 l 1,2,-1
 192 640 l 1,3,-1
 192 448 l 1,0,-1
128 512 m 1,4,-1
 128 576 l 1,5,-1
 64 576 l 1,6,-1
 64 512 l 1,7,-1
 128 512 l 1,4,-1
EndSplineSet
Validated: 1
EndChar

StartChar: tilde
Encoding: 732 732 324
Width: 320
Flags: W
HStem: 512 64<0 64 128 192> 576 64<64 128 192 256>
VStem: 0 64<512 576> 64 64<576 640> 128 64<512 576> 192 64<576 640>
LayerCount: 2
Fore
SplineSet
128 512 m 1,0,-1
 128 576 l 1,1,-1
 192 576 l 1,2,-1
 192 512 l 1,3,-1
 128 512 l 1,0,-1
0 512 m 1,4,-1
 0 576 l 1,5,-1
 64 576 l 1,6,-1
 64 512 l 1,7,-1
 0 512 l 1,4,-1
192 576 m 1,8,-1
 192 640 l 1,9,-1
 256 640 l 1,10,-1
 256 576 l 1,11,-1
 192 576 l 1,8,-1
128 576 m 1,12,-1
 64 576 l 1,13,-1
 64 640 l 1,14,-1
 128 640 l 1,15,-1
 128 576 l 1,12,-1
EndSplineSet
Validated: 5
EndChar

StartChar: endash
Encoding: 8211 8211 325
Width: 512
Flags: W
HStem: 256 64<0 448>
LayerCount: 2
Fore
SplineSet
0 320 m 1,0,-1
 448 320 l 1,1,-1
 448 256 l 1,2,-1
 0 256 l 1,3,-1
 0 320 l 1,0,-1
EndSplineSet
Validated: 1
EndChar

StartChar: emdash
Encoding: 8212 8212 326
Width: 640
Flags: W
HStem: 256 64<0 576>
LayerCount: 2
Fore
SplineSet
0 320 m 1,0,-1
 576 320 l 1,1,-1
 576 256 l 1,2,-1
 0 256 l 1,3,-1
 0 320 l 1,0,-1
EndSplineSet
Validated: 1
EndChar

StartChar: quoteleft
Encoding: 8216 8216 327
Width: 128
Flags: W
HStem: 320 128<0 64>
VStem: 0 64<320 448>
LayerCount: 2
Fore
SplineSet
0 320 m 1,0,-1
 0 448 l 1,1,-1
 64 448 l 1,2,-1
 64 320 l 1,3,-1
 0 320 l 1,0,-1
EndSplineSet
Validated: 1
EndChar

StartChar: quoteright
Encoding: 8217 8217 328
Width: 128
Flags: W
HStem: 320 128<0 64>
VStem: 0 64<320 448>
LayerCount: 2
Fore
SplineSet
0 320 m 1,0,-1
 0 448 l 1,1,-1
 64 448 l 1,2,-1
 64 320 l 1,3,-1
 0 320 l 1,0,-1
EndSplineSet
Validated: 1
EndChar

StartChar: quotesinglbase
Encoding: 8218 8218 329
Width: 128
Flags: W
HStem: -64 128<0 64>
VStem: 0 64<-64 64>
LayerCount: 2
Fore
SplineSet
0 -64 m 1,0,-1
 0 64 l 1,1,-1
 64 64 l 1,2,-1
 64 -64 l 1,3,-1
 0 -64 l 1,0,-1
EndSplineSet
Validated: 1
EndChar

StartChar: quotedblleft
Encoding: 8220 8220 330
Width: 256
Flags: W
HStem: 320 128<0 64 128 192>
VStem: 0 64<320 448> 128 64<320 448>
LayerCount: 2
Fore
SplineSet
128 320 m 1,0,-1
 128 448 l 1,1,-1
 192 448 l 1,2,-1
 192 320 l 1,3,-1
 128 320 l 1,0,-1
0 320 m 1,4,-1
 0 448 l 1,5,-1
 64 448 l 1,6,-1
 64 320 l 1,7,-1
 0 320 l 1,4,-1
EndSplineSet
Validated: 1
EndChar

StartChar: quotedblright
Encoding: 8221 8221 331
Width: 256
Flags: W
HStem: 320 128<0 64 128 192>
VStem: 0 64<320 448> 128 64<320 448>
LayerCount: 2
Fore
SplineSet
128 320 m 1,0,-1
 128 448 l 1,1,-1
 192 448 l 1,2,-1
 192 320 l 1,3,-1
 128 320 l 1,0,-1
0 320 m 1,4,-1
 0 448 l 1,5,-1
 64 448 l 1,6,-1
 64 320 l 1,7,-1
 0 320 l 1,4,-1
EndSplineSet
Validated: 1
EndChar

StartChar: quotedblbase
Encoding: 8222 8222 332
Width: 256
Flags: W
HStem: -64 128<0 64 128 192>
VStem: 0 64<-64 64> 128 64<-64 64>
LayerCount: 2
Fore
SplineSet
128 -64 m 1,0,-1
 128 64 l 1,1,-1
 192 64 l 1,2,-1
 192 -64 l 1,3,-1
 128 -64 l 1,0,-1
0 -64 m 1,4,-1
 0 64 l 1,5,-1
 64 64 l 1,6,-1
 64 -64 l 1,7,-1
 0 -64 l 1,4,-1
EndSplineSet
Validated: 1
EndChar

StartChar: bullet
Encoding: 8226 8226 333
Width: 256
Flags: W
HStem: 64 192<0 192>
VStem: 0 192<64 256>
LayerCount: 2
Fore
SplineSet
192 64 m 1,0,-1
 0 64 l 1,1,-1
 0 256 l 1,2,-1
 192 256 l 1,3,-1
 192 64 l 1,0,-1
EndSplineSet
Validated: 1
EndChar

StartChar: ellipsis
Encoding: 8230 8230 334
Width: 384
Flags: W
HStem: 0 64<0 64 128 192 256 320>
VStem: 0 64<0 64> 128 64<0 64> 256 64<0 64>
CounterMasks: 1 70
LayerCount: 2
Fore
SplineSet
256 0 m 1,0,-1
 256 64 l 1,1,-1
 320 64 l 1,2,-1
 320 0 l 1,3,-1
 256 0 l 1,0,-1
128 0 m 1,4,-1
 128 64 l 1,5,-1
 192 64 l 1,6,-1
 192 0 l 1,7,-1
 128 0 l 1,4,-1
0 0 m 1,8,-1
 0 64 l 1,9,-1
 64 64 l 1,10,-1
 64 0 l 1,11,-1
 0 0 l 1,8,-1
EndSplineSet
Validated: 1
EndChar

StartChar: perthousand
Encoding: 8240 8240 335
Width: 512
Flags: W
HStem: 0 64<64 128 320 384> 128 64<64 128 320 384> 256 64<0 448> 384 64<64 128> 512 64<64 128>
VStem: 0 64<64 128 448 512> 128 64<64 128 448 512> 256 64<64 128> 384 64<64 128>
LayerCount: 2
Fore
SplineSet
448 0 m 1,0,-1
 256 0 l 1,1,-1
 256 192 l 1,2,-1
 448 192 l 1,3,-1
 448 0 l 1,0,-1
192 0 m 1,4,-1
 0 0 l 1,5,-1
 0 192 l 1,6,-1
 192 192 l 1,7,-1
 192 0 l 1,4,-1
384 64 m 1,8,-1
 384 128 l 1,9,-1
 320 128 l 1,10,-1
 320 64 l 1,11,-1
 384 64 l 1,8,-1
128 64 m 1,12,-1
 128 128 l 1,13,-1
 64 128 l 1,14,-1
 64 64 l 1,15,-1
 128 64 l 1,12,-1
0 320 m 1,16,-1
 448 320 l 1,17,-1
 448 256 l 1,18,-1
 0 256 l 1,19,-1
 0 320 l 1,16,-1
192 384 m 1,20,-1
 0 384 l 1,21,-1
 0 576 l 1,22,-1
 192 576 l 1,23,-1
 192 384 l 1,20,-1
128 448 m 1,24,-1
 128 512 l 1,25,-1
 64 512 l 1,26,-1
 64 448 l 1,27,-1
 128 448 l 1,24,-1
EndSplineSet
Validated: 1
EndChar

StartChar: minute
Encoding: 8242 8242 336
Width: 128
Flags: W
HStem: 320 128<0 64>
VStem: 0 64<320 448>
LayerCount: 2
Fore
SplineSet
0 320 m 1,0,-1
 0 448 l 1,1,-1
 64 448 l 1,2,-1
 64 320 l 1,3,-1
 0 320 l 1,0,-1
EndSplineSet
Validated: 1
EndChar

StartChar: second
Encoding: 8243 8243 337
Width: 256
Flags: W
HStem: 320 128<0 64 128 192>
VStem: 0 64<320 448> 128 64<320 448>
LayerCount: 2
Fore
SplineSet
128 320 m 1,0,-1
 128 448 l 1,1,-1
 192 448 l 1,2,-1
 192 320 l 1,3,-1
 128 320 l 1,0,-1
0 320 m 1,4,-1
 0 448 l 1,5,-1
 64 448 l 1,6,-1
 64 320 l 1,7,-1
 0 320 l 1,4,-1
EndSplineSet
Validated: 1
EndChar

StartChar: guilsinglleft
Encoding: 8249 8249 338
Width: 256
Flags: W
HStem: 0 64<128 192> 64 64<64 128> 128 64<0 64> 192 64<64 128> 256 64<128 192>
VStem: 0 64<128 192> 64 64<64 128 192 256> 128 64<0 64 256 320>
LayerCount: 2
Fore
SplineSet
128 0 m 1,0,-1
 128 64 l 1,1,-1
 192 64 l 1,2,-1
 192 0 l 1,3,-1
 128 0 l 1,0,-1
128 64 m 1,4,-1
 64 64 l 1,5,-1
 64 128 l 1,6,-1
 128 128 l 1,7,-1
 128 64 l 1,4,-1
64 128 m 1,8,-1
 0 128 l 1,9,-1
 0 192 l 1,10,-1
 64 192 l 1,11,-1
 64 128 l 1,8,-1
64 192 m 1,12,-1
 64 256 l 1,13,-1
 128 256 l 1,14,-1
 128 192 l 1,15,-1
 64 192 l 1,12,-1
128 256 m 1,16,-1
 128 320 l 1,17,-1
 192 320 l 1,18,-1
 192 256 l 1,19,-1
 128 256 l 1,16,-1
EndSplineSet
Validated: 5
EndChar

StartChar: guilsinglright
Encoding: 8250 8250 339
Width: 256
Flags: W
HStem: 0 64<0 64> 64 64<64 128> 128 64<128 192> 192 64<64 128> 256 64<0 64>
VStem: 0 64<0 64 256 320> 64 64<64 128 192 256> 128 64<128 192>
LayerCount: 2
Fore
SplineSet
0 0 m 1,0,-1
 0 64 l 1,1,-1
 64 64 l 1,2,-1
 64 0 l 1,3,-1
 0 0 l 1,0,-1
64 64 m 1,4,-1
 64 128 l 1,5,-1
 128 128 l 1,6,-1
 128 64 l 1,7,-1
 64 64 l 1,4,-1
128 128 m 1,8,-1
 128 192 l 1,9,-1
 192 192 l 1,10,-1
 192 128 l 1,11,-1
 128 128 l 1,8,-1
128 192 m 1,12,-1
 64 192 l 1,13,-1
 64 256 l 1,14,-1
 128 256 l 1,15,-1
 128 192 l 1,12,-1
64 256 m 1,16,-1
 0 256 l 1,17,-1
 0 320 l 1,18,-1
 64 320 l 1,19,-1
 64 256 l 1,16,-1
EndSplineSet
Validated: 5
EndChar

StartChar: fraction
Encoding: 8260 8260 340
Width: 384
Flags: W
HStem: 0 64<0 64> 64 64<64 128> 128 64<128 192> 192 64<192 256> 256 64<256 320>
VStem: 0 64<0 64> 64 64<64 128> 128 64<128 192> 192 64<192 256> 256 64<256 320>
LayerCount: 2
Fore
SplineSet
0 0 m 1,0,-1
 0 64 l 1,1,-1
 64 64 l 1,2,-1
 64 0 l 1,3,-1
 0 0 l 1,0,-1
64 64 m 1,4,-1
 64 128 l 1,5,-1
 128 128 l 1,6,-1
 128 64 l 1,7,-1
 64 64 l 1,4,-1
128 128 m 1,8,-1
 128 192 l 1,9,-1
 192 192 l 1,10,-1
 192 128 l 1,11,-1
 128 128 l 1,8,-1
192 192 m 1,12,-1
 192 256 l 1,13,-1
 256 256 l 1,14,-1
 256 192 l 1,15,-1
 192 192 l 1,12,-1
256 256 m 1,16,-1
 256 320 l 1,17,-1
 320 320 l 1,18,-1
 320 256 l 1,19,-1
 256 256 l 1,16,-1
EndSplineSet
Validated: 5
EndChar

StartChar: uni2074
Encoding: 8308 8308 341
Width: 320
Flags: W
HStem: 256 64<64 192> 428 20G<0 64 192 256>
VStem: 0 64<320 448> 192 64<128 256 320 448>
LayerCount: 2
Fore
SplineSet
192 128 m 1,0,-1
 192 256 l 1,1,-1
 0 256 l 1,2,-1
 0 448 l 1,3,-1
 64 448 l 1,4,-1
 64 320 l 1,5,-1
 192 320 l 1,6,-1
 192 448 l 1,7,-1
 256 448 l 1,8,-1
 256 128 l 1,9,-1
 192 128 l 1,0,-1
EndSplineSet
Validated: 1
EndChar

StartChar: Euro
Encoding: 8364 8364 342
Width: 384
Flags: W
HStem: 0 64<128 320> 128 64<0 64 128 256> 256 64<0 64 128 256> 384 64<128 320>
VStem: 64 64<64 128 192 256 320 384>
LayerCount: 2
Fore
SplineSet
128 64 m 1,0,-1
 320 64 l 1,1,-1
 320 0 l 1,2,-1
 64 0 l 1,3,-1
 64 128 l 1,4,-1
 0 128 l 1,5,-1
 0 192 l 1,6,-1
 64 192 l 1,7,-1
 64 256 l 1,8,-1
 0 256 l 1,9,-1
 0 320 l 1,10,-1
 64 320 l 1,11,-1
 64 448 l 1,12,-1
 320 448 l 1,13,-1
 320 384 l 1,14,-1
 128 384 l 1,15,-1
 128 320 l 1,16,-1
 256 320 l 1,17,-1
 256 256 l 1,18,-1
 128 256 l 1,19,-1
 128 192 l 1,20,-1
 256 192 l 1,21,-1
 256 128 l 1,22,-1
 128 128 l 1,23,-1
 128 64 l 1,0,-1
EndSplineSet
Validated: 1
EndChar

StartChar: trademark
Encoding: 8482 8482 343
Width: 640
Flags: W
HStem: 256 192<64 128 256 320 384 448 512 576> 384 64<0 64 128 192 320 384 448 512>
VStem: 64 64<256 384> 256 64<256 384> 384 64<256 384> 512 64<256 384>
LayerCount: 2
Fore
SplineSet
512 256 m 1,0,-1
 512 384 l 1,1,-1
 448 384 l 1,2,-1
 448 256 l 1,3,-1
 384 256 l 1,4,-1
 384 384 l 1,5,-1
 320 384 l 1,6,-1
 320 256 l 1,7,-1
 256 256 l 1,8,-1
 256 448 l 1,9,-1
 576 448 l 1,10,-1
 576 256 l 1,11,-1
 512 256 l 1,0,-1
64 256 m 1,12,-1
 64 384 l 1,13,-1
 0 384 l 1,14,-1
 0 448 l 1,15,-1
 192 448 l 1,16,-1
 192 384 l 1,17,-1
 128 384 l 1,18,-1
 128 256 l 1,19,-1
 64 256 l 1,12,-1
EndSplineSet
Validated: 1
EndChar

StartChar: arrowup
Encoding: 8593 8593 344
Width: 256
Flags: W
HStem: 0 21G<64 128> 320 64<0 64 128 192> 428 20G<64 128>
VStem: 64 64<0 320 384 448>
LayerCount: 2
Fore
SplineSet
64 0 m 1,0,-1
 64 320 l 1,1,-1
 0 320 l 1,2,-1
 0 384 l 1,3,-1
 64 384 l 1,4,-1
 64 448 l 1,5,-1
 128 448 l 1,6,-1
 128 384 l 1,7,-1
 192 384 l 1,8,-1
 192 320 l 1,9,-1
 128 320 l 1,10,-1
 128 0 l 1,11,-1
 64 0 l 1,0,-1
EndSplineSet
Validated: 1
EndChar

StartChar: arrowdown
Encoding: 8595 8595 345
Width: 256
Flags: W
HStem: 0 21G<64 128> 64 64<0 64 128 192> 428 20G<64 128>
VStem: 64 64<0 64 128 448>
LayerCount: 2
Fore
SplineSet
64 0 m 1,0,-1
 64 64 l 1,1,-1
 0 64 l 1,2,-1
 0 128 l 1,3,-1
 64 128 l 1,4,-1
 64 448 l 1,5,-1
 128 448 l 1,6,-1
 128 128 l 1,7,-1
 192 128 l 1,8,-1
 192 64 l 1,9,-1
 128 64 l 1,10,-1
 128 0 l 1,11,-1
 64 0 l 1,0,-1
EndSplineSet
Validated: 1
EndChar

StartChar: minus
Encoding: 8722 8722 346
Width: 512
Flags: W
HStem: 256 64<0 448>
LayerCount: 2
Fore
SplineSet
0 320 m 1,0,-1
 448 320 l 1,1,-1
 448 256 l 1,2,-1
 0 256 l 1,3,-1
 0 320 l 1,0,-1
EndSplineSet
Validated: 1
EndChar

StartChar: uni2215
Encoding: 8725 8725 347
Width: 384
Flags: W
HStem: 0 64<0 64> 64 64<64 128> 128 64<128 192> 192 64<192 256> 256 64<256 320>
VStem: 0 64<0 64> 64 64<64 128> 128 64<128 192> 192 64<192 256> 256 64<256 320>
LayerCount: 2
Fore
SplineSet
0 0 m 1,0,-1
 0 64 l 1,1,-1
 64 64 l 1,2,-1
 64 0 l 1,3,-1
 0 0 l 1,0,-1
64 64 m 1,4,-1
 64 128 l 1,5,-1
 128 128 l 1,6,-1
 128 64 l 1,7,-1
 64 64 l 1,4,-1
128 128 m 1,8,-1
 128 192 l 1,9,-1
 192 192 l 1,10,-1
 192 128 l 1,11,-1
 128 128 l 1,8,-1
192 192 m 1,12,-1
 192 256 l 1,13,-1
 256 256 l 1,14,-1
 256 192 l 1,15,-1
 192 192 l 1,12,-1
256 256 m 1,16,-1
 256 320 l 1,17,-1
 320 320 l 1,18,-1
 320 256 l 1,19,-1
 256 256 l 1,16,-1
EndSplineSet
Validated: 5
EndChar

StartChar: uniFFFD
Encoding: 65533 65533 349
Width: 384
Flags: W
HStem: 0 64<128 192> 128 64<128 192> 320 64<128 192> 448 64<64 256>
VStem: 0 128<64 128 192 320> 0 64<384 448> 192 128<64 128 192 256> 256 64<256 448>
LayerCount: 2
Fore
SplineSet
320 0 m 1,0,-1
 0 0 l 1,1,-1
 0 512 l 1,2,-1
 320 512 l 1,3,-1
 320 0 l 1,0,-1
192 64 m 1,4,-1
 192 128 l 1,5,-1
 128 128 l 1,6,-1
 128 64 l 1,7,-1
 192 64 l 1,4,-1
192 192 m 1,8,-1
 192 256 l 1,9,-1
 256 256 l 1,10,-1
 256 448 l 1,11,-1
 64 448 l 1,12,-1
 64 384 l 1,13,-1
 192 384 l 1,14,-1
 192 320 l 1,15,-1
 128 320 l 1,16,-1
 128 192 l 1,17,-1
 192 192 l 1,8,-1
EndSplineSet
Validated: 1
EndChar
